<mxfile host="Electron" agent="Mozilla/5.0 (Windows NT 10.0; Win64; x64) AppleWebKit/537.36 (KHTML, like Gecko) draw.io/25.0.2 Chrome/128.0.6613.186 Electron/32.2.5 Safari/537.36" version="25.0.2">
  <diagram name="Page-1" id="kdVsVY8fp6lugTp3-DsJ">
    <mxGraphModel dx="1050" dy="621" grid="1" gridSize="1" guides="1" tooltips="1" connect="1" arrows="1" fold="1" page="1" pageScale="1" pageWidth="5000" pageHeight="2100" background="none" math="0" shadow="0">
      <root>
        <mxCell id="0" />
        <mxCell id="1" parent="0" />
        <mxCell id="045CiPY4S235guZHoBIP-2" style="edgeStyle=orthogonalEdgeStyle;rounded=0;orthogonalLoop=1;jettySize=auto;html=1;exitX=1;exitY=0.5;exitDx=0;exitDy=0;entryX=0;entryY=0.5;entryDx=0;entryDy=0;endArrow=none;endFill=0;strokeColor=default;fontSize=13;" parent="1" source="045CiPY4S235guZHoBIP-3" target="045CiPY4S235guZHoBIP-9" edge="1">
          <mxGeometry relative="1" as="geometry" />
        </mxCell>
        <mxCell id="045CiPY4S235guZHoBIP-3" value="PC&lt;br style=&quot;font-size: 13px;&quot;&gt;src mux&lt;div style=&quot;font-size: 13px;&quot;&gt;&lt;br style=&quot;font-size: 13px;&quot;&gt;&lt;/div&gt;" style="triangle;whiteSpace=wrap;html=1;strokeOpacity=100;snapToPoint=0;fontSize=13;" parent="1" vertex="1">
          <mxGeometry x="554.75" y="838" width="70" height="160" as="geometry" />
        </mxCell>
        <mxCell id="045CiPY4S235guZHoBIP-4" value="pc_src" style="text;html=1;align=center;verticalAlign=middle;whiteSpace=wrap;rounded=0;fontSize=13;strokeOpacity=100;snapToPoint=0;" parent="1" vertex="1">
          <mxGeometry x="559.75" y="998" width="60" height="30" as="geometry" />
        </mxCell>
        <mxCell id="045CiPY4S235guZHoBIP-5" style="edgeStyle=orthogonalEdgeStyle;rounded=0;orthogonalLoop=1;jettySize=auto;html=1;exitX=0.5;exitY=1;exitDx=0;exitDy=0;entryX=0.498;entryY=-0.095;entryDx=0;entryDy=0;entryPerimeter=0;endArrow=none;endFill=0;fontSize=13;" parent="1" source="045CiPY4S235guZHoBIP-3" target="045CiPY4S235guZHoBIP-4" edge="1">
          <mxGeometry relative="1" as="geometry" />
        </mxCell>
        <mxCell id="045CiPY4S235guZHoBIP-6" style="edgeStyle=orthogonalEdgeStyle;rounded=0;orthogonalLoop=1;jettySize=auto;html=1;exitX=1;exitY=0.5;exitDx=0;exitDy=0;entryX=0;entryY=0.25;entryDx=0;entryDy=0;" parent="1" source="045CiPY4S235guZHoBIP-9" target="045CiPY4S235guZHoBIP-13" edge="1">
          <mxGeometry relative="1" as="geometry" />
        </mxCell>
        <mxCell id="045CiPY4S235guZHoBIP-7" style="edgeStyle=orthogonalEdgeStyle;rounded=0;orthogonalLoop=1;jettySize=auto;html=1;exitX=1;exitY=0.5;exitDx=0;exitDy=0;entryX=0;entryY=0.25;entryDx=0;entryDy=0;" parent="1" source="045CiPY4S235guZHoBIP-9" target="045CiPY4S235guZHoBIP-18" edge="1">
          <mxGeometry relative="1" as="geometry">
            <Array as="points">
              <mxPoint x="1032" y="936" />
              <mxPoint x="1032" y="673" />
            </Array>
          </mxGeometry>
        </mxCell>
        <mxCell id="045CiPY4S235guZHoBIP-9" value="PC reg" style="rounded=0;whiteSpace=wrap;html=1;strokeOpacity=100;snapToPoint=0;fontSize=13;" parent="1" vertex="1">
          <mxGeometry x="804.75" y="853" width="65" height="165" as="geometry" />
        </mxCell>
        <mxCell id="045CiPY4S235guZHoBIP-10" value="" style="triangle;whiteSpace=wrap;html=1;rotation=-90;strokeOpacity=100;snapToPoint=0;fontSize=13;" parent="1" vertex="1">
          <mxGeometry x="834.75" y="998" width="20" height="20" as="geometry" />
        </mxCell>
        <mxCell id="045CiPY4S235guZHoBIP-11" style="edgeStyle=orthogonalEdgeStyle;rounded=0;orthogonalLoop=1;jettySize=auto;html=1;exitX=0.5;exitY=0;exitDx=0;exitDy=0;entryX=0;entryY=0.5;entryDx=0;entryDy=0;endArrow=none;endFill=0;fontSize=13;" parent="1" source="045CiPY4S235guZHoBIP-12" target="045CiPY4S235guZHoBIP-10" edge="1">
          <mxGeometry relative="1" as="geometry" />
        </mxCell>
        <mxCell id="045CiPY4S235guZHoBIP-12" value="clk" style="text;html=1;align=center;verticalAlign=middle;whiteSpace=wrap;rounded=0;fontSize=13;strokeOpacity=100;snapToPoint=0;" parent="1" vertex="1">
          <mxGeometry x="814.75" y="1038" width="60" height="30" as="geometry" />
        </mxCell>
        <mxCell id="045CiPY4S235guZHoBIP-13" value="&lt;div&gt;&lt;font style=&quot;font-size: 13px;&quot;&gt;&lt;br&gt;&lt;/font&gt;&lt;/div&gt;&lt;font style=&quot;font-size: 13px;&quot;&gt;&lt;div&gt;&lt;font style=&quot;font-size: 13px;&quot;&gt;&lt;br&gt;&lt;/font&gt;&lt;/div&gt;Inst Memory&lt;/font&gt;" style="rounded=0;whiteSpace=wrap;html=1;strokeOpacity=100;snapToPoint=0;fontSize=13;" parent="1" vertex="1">
          <mxGeometry x="1194.75" y="893" width="129.25" height="59" as="geometry" />
        </mxCell>
        <mxCell id="045CiPY4S235guZHoBIP-14" value="addr" style="text;html=1;align=center;verticalAlign=middle;whiteSpace=wrap;rounded=0;strokeOpacity=100;snapToPoint=0;fontSize=13;" parent="1" vertex="1">
          <mxGeometry x="1201" y="907" width="32" height="20" as="geometry" />
        </mxCell>
        <mxCell id="045CiPY4S235guZHoBIP-15" value="Inst" style="text;html=1;align=center;verticalAlign=middle;whiteSpace=wrap;rounded=0;strokeOpacity=100;snapToPoint=0;fontSize=13;" parent="1" vertex="1">
          <mxGeometry x="1353" y="885.5" width="28" height="20" as="geometry" />
        </mxCell>
        <mxCell id="045CiPY4S235guZHoBIP-16" style="edgeStyle=orthogonalEdgeStyle;rounded=0;orthogonalLoop=1;jettySize=auto;html=1;exitX=0;exitY=0.75;exitDx=0;exitDy=0;endArrow=none;endFill=0;fontSize=13;" parent="1" source="045CiPY4S235guZHoBIP-18" edge="1">
          <mxGeometry relative="1" as="geometry">
            <mxPoint x="1224.7499999999998" y="723.072463768116" as="targetPoint" />
          </mxGeometry>
        </mxCell>
        <mxCell id="045CiPY4S235guZHoBIP-17" style="edgeStyle=orthogonalEdgeStyle;rounded=0;orthogonalLoop=1;jettySize=auto;html=1;exitX=1;exitY=0.5;exitDx=0;exitDy=0;entryX=0;entryY=0.25;entryDx=0;entryDy=0;endArrow=none;endFill=0;fontSize=13;" parent="1" source="045CiPY4S235guZHoBIP-18" target="045CiPY4S235guZHoBIP-3" edge="1">
          <mxGeometry relative="1" as="geometry">
            <Array as="points">
              <mxPoint x="1314.75" y="698" />
              <mxPoint x="1314.75" y="628" />
              <mxPoint x="474.75" y="628" />
              <mxPoint x="474.75" y="878" />
            </Array>
          </mxGeometry>
        </mxCell>
        <mxCell id="045CiPY4S235guZHoBIP-18" value="" style="shape=image;verticalLabelPosition=bottom;labelBackgroundColor=#000000;verticalAlign=top;aspect=fixed;imageAspect=0;image=data:image/png,iVBORw0KGgoAAAANSUhEUgAAAPsAAAIrCAYAAAAp0++gAAAAAXNSR0IArs4c6QAAAARnQU1BAACxjwv8YQUAAAAJcEhZcwAAEnQAABJ0Ad5mH3gAADBjSURBVHhe7d0HfFXl+Qfwc2/2JHvvhIQRQggECCSACLIECigU96COWmcdbf1rbWutVStqBaqtE8UNiFAR2SCEmUACWZC9J9n75v88J+9NExKVkXHvOb/v53P/N+fcE+pf+d3nfd7znnM0HR0dEgAon5b/T1ZWVlB6enpoe3u7ibwXABRHDvtjjz0Wv2DBgrSEhIRJbW1tpvInAKAo8jC+rKysuKGhwT0pKUny8fGZZmtrW0lVXsuv1tZW7ahRo5LNzMxaxe8AgBGSw15aWlro5ubmKfZJTU1NUmpqqpSYmCjt27dPuueee+bSF0AFVX1teHh4AoIPYHzksBcXF+d7eHh4i3290OfS2bNnpRMnTkhTp05dZG1tzcHXtLS0aPkLgEcAU6ZMOWRhYdEsfgUADIwmLy/Pz9TUNJ7C3lXZfwqFW0pJSZFOnz4tHT58WH6/cOGC9Pzzz6+k6l9OoT9oaWnZJA4HAAOhefXVV3NWrVrlZ2dnJ3ZdnoqKCikjI0M6deqUtHfvXumOO+641cbGpry5uVlL7YBWp9Px6EEza9asnTQiaBC/BgCDjMOedffddwfY29uLXVcnOztbrvw85D9y5IhUXl4uVVVVdTz11FP3OTg4lM+ZM2c7Qg8w+Djs5++6666gYcOGiV39p7a2VsrMzJSSk5M74uPjpfPnz0t33nnngxT2svr6ernfX7Ro0RYa/teJXwGAAcJhz6AAhlDVFbsGTmFhoTzk5z6fw19aWirddtttv7WwsCjjIT9P9PGQ/4YbbviSRho14tcAoB9w2NMp7MMHI+zdNTQ0SLm5uVJ6ero85OdTfRx++kLooL7/GWdn5zLq97W//OUvP6V/tgvi1wDgCnHYUylcYY6OjmLX0CgrK5P7/TNnzshVn0cBHH6q8n9etWrVaxT4KnEoAFwBDvvZ22+/faSTk5PYNfR4UU9eXp7c4/P5/aCgoOdNTExKY2NjP6YvpUpxGABcBpO5c+feHxER4WZtbS12DT1TU1OJhvFSSEiIFBMTI3l4eEzTarXzaMjfQWFPtLKyahSHAsAl0qxevTrp1ltvDedwGTpe7bdv376XNRpNMW3yZJ52zJgx73F/33kEAPwYDvupW265JcLFxUXsMh7t7e28kOf1tra2Ev2FO5MnT37b1dW1RBwCAAKHPeHmm2+OpICIXcaDK31zc7PU2Ngov7e2tkrnzp37F1V+DjtfrbfOzc2tqPNoAHXjsJ+46aaboigUYpdyHDhw4B2q9nLV5wU8ERERb3h6ehaIjwFUhcN+nMI+XolhZzqdTr54p6WlRUpISPiItuWqz+EfOXLkq15eXrmdRwIoG4f96MqVK6Pd3d3FLnXgIX98fPzn1AKU8kU7kZGRL/v6+maLjwEUR/Paa6/Fr1ixYpKHh4fYpR5c8Tn03POnpqZuouE+z+pr/f39/+bn55fZeRSAMnDYDy1fvjyGelmxC44dO7aVqr0cfA3x8fF5nr4AMjo/BTBOHPaDN95441TqXcUuuNiJEyd2NDU1lfN5fV6vT+H/Y1BQUKr4GMAocNj3U9jjEPafxqf5+MUTfklJSXup8ldQ0de6uLj8X3Bw8FlxGIDB4ltJ099hPCji51CwJa1WKy/lHTdu3IzJkycvmzRp0pK6urq3fvjhhy0ZGRnh4lAAg8Q9qQ5hv3IRERGxFPyFNMx/+/jx49vo9W16evpY8TGAwdC8/vrru5YsWTLT19dX7IKrlZKScryxsbGKh/n8srS0fHzEiBEnxccAQ4LD/j2FfRbCPnCo0p+m8FdT8JnWxMTkkVGjRh0THwMMCs0bb7yxY/HixbP9/PzELhhomZmZKRT+Wk5+TU2Ntry8XFtaWqotKCjQzps3774JEyYcEocC9BsO+/ZFixbN8ff3F7tgMPGiHl7Kq3/V19dn03tDfn6+1snJ6Z6oqKgD4lCAq8Jh/+/ChQvnBQQEiF0w1HjClINPFb+gqampITc3V3v69GntxIkT746JidkjDgO4LJp//vOf266//vr5CLth4uDrl/RStS+lVzPfo2/mzJl3xcXF7RSHAfwsk/nz568cPnx46FDfcBL6Rm29ZGJiIllYWEiWlpY2tra2wxwcHIZlZWVdv2/fvke///77J7Ra7Wlqw86LXwHoE1f2rynwi4KCgsQuMFRc5dvb2+UXX8TDq/lE5a+h91YKvTYvL0974sQJTXBw8E3Tp0/fJn4VQNK8+eabm+bOnfsL+sshdoEx4y8A7vdzcnKakpKSdAkJCdoZM2b8cvbs2V+LQ0ClOOxfzZkzZynfyRWUQT/Bx7fkFrfraqMvgY6ioiJ+2ObyadOmbeQLeqhF6OCX+DVQOPk/uPgZFIL7fO7x+fl9fG9BLy8vU19fX7Po6GiT8PDwL+Pj4zvefvvtth07diynLwVz+kKwaGxstKqvr7epra21oy8HM/FHgYJo1qxZ8zkN8W4cPny42AVKxjP7FGr5xTP8XP156M+P3k5NTe04deqUjtq6u6655potXP35/n00UtDY2dnV4rn7xo3D/umsWbNWhIaGil2gdpWVlfLz9/bs2cP36ZefzPPCCy/cN3/+/C0cfkdHxyo8dtv4aNauXbth5syZK8PCwsQuUDue6eeKz4/cvnDhAp/fl5++y8/hO3z4sPTAAw88eN11133j5ORUbmNjUy9+DQwch/0jCvvNCDv8HP4S4AdwJiQkSDt37pSioqIejYuLk6u9q6trKQ318ZhtA2Zy/fXXLwkICDDKJ8LA4OObd/Ck3+jRo/nnuQcPHnz4gw8+eKiurq6Kwl5BXwZupaWl7sXFxR7m5uatVlZW6PMNhGbdunUfTJ8+/baRI0eKXQCXjh+zzct3T548KT9jn4f8PPnHE4EPP/zwM9dee+1Wvjc/Dfnx9N0hZrJw4cLFfn5+Rvn4Jxh6fJrP1tZW8vb2lkaMGCFNmDBBio2Nla655hpe5jszMTHxvoKCgqaOjo46MzOzFkzsDR3Nv/71r3eo77pr1KhRYhdA/+FFPTyj//7770sTJ058nkaRW318fLK4xxeHwCDhyr7Q19dXkc96A8PAF/LwnFBLS8u03NzcVUVFRe2kiYb8ATk5OYFZWVmBXPX5XL74FRgAmrfeeuvtKVOm/Co8HDdHhYHBs/i8fJcX7/BSXj6lV1hYKPf4fCqP+/0FCxaspqr/X/pcXsTDt+emEUCe+COgH5gsWrRoAf1LnaC2Z73B4OFbcFPllszNzeVlvPp37vWdnZ0lvksSfSHEZGdn30aV/laq/rdUVFSYNTU1aWnfiIyMjBE0OmhxcHC4IP5IuAKaf//732upl7o/IiJC7AIYWFzhaRgvz9jrL9bh7b7wCICrP31hvBUWFraDfkdewjt69OiTVP3PicPgEnBln+ft7T0RlR0GC8/gcx/P1d7KykqiXl2yt7fv82VpaSnZ2NhwGzDh3LlzK9LT05enpaXdWFlZaVdVVWVNf1aLk5NThfij4SeYLF68eJ6Xl9dENT7FFQwfL+Lh0PPjyfhirTFjxkjjx4/nU33jiouLlyUnJw+j6m/LoaeWoFz8GvSBK/tcT09PVT6yGQwfjwC4unP151un8aw+rwmhai6PCqgNGHv+/Pml+fn5TuXl5fZU/aOoTeDg81N4oRvNO++8s3rcuHGP0EvsAjB83Pc3NDRINTU1Ul1dnXy5Ls/6s7Kyss9p6L+LjtHQPi2NAg6NGDHilPyhimnefffdVyMjIx9F2EFp+HQfX66bmJi4kTb30LaWw8+n96gl2B8REXG880h14LC/Mnbs2N9GRUWJXQDKwNWfZ/q56vMIgC/X5W3eT0P+raampvvr6+u1wcHBe6nYHRG/plia995776UxY8Y8wZMeAGrBC3uKi4sl6vH54p3ttra2B9vb2zX0RaDlV2trq4ZysXPy5MmKeSKP5v33339x9OjRT/EFDABqwef49RWfb8nF791X+YkRwB47O7vD9JnG09Pz+0mTJhn103g0H3zwwQujRo36PcIOasOhvvjVl6ysLL5N1376gjhCIwIt9frbjfFpPCb8bHYXF5c4vkQRQE14cQ+/eDkvv/g0X18vcadefvLp1Orq6ilpaWnB8fHxY5qamjoCAwON5kk8mg8//PAvYWFh/zdx4kSxCwC646E9n9bjoT4v3+U+ny/eoTYgnob3x3n5Lh2joZGBNjo6euvs2bO3il81KJr169f/afjw4c9SPyJ2AUBfuKfnc/rc4xcUFMgTfHyun9f161sA6vVP0hdDAh2jpVGAZtasWVsWL168Sf5wiHHYnwsJCfnj5MmTxS4A6AsHmoPNVZ6Dr5/Q0+PP+bZcR48elZKSkuQRAA3/TwcFBZ3mmX6+im/mzJmbli5d+oX4lUGl+eijj54NDg7+E8IOcHU47FVVVVJmZqYc+tLSUvkUH39B8Mw/76PKf9bW1vbMhQsXtAsXLvxq5cqVn4hfH3Cajz/++JnAwMA/x8TEiF0AcKW46usv2+XTexx0xqFPSUmRjh07Jt9/n78QnJ2d02hUncK9Ph0nn9ufP3/+FzfffPMH8i/1M82GDRue9vf3f37KlCliFwD0N67seXl58tN1+J2rPt+FV39GgPEXhKmpaaa5uXlGeHj458uXL39X/qCfaD755JPf+/r6vjB16lSxCwD6G/f2HGYOPff6XPX1/b4+8PyZflVfWlpadmVl5XnK5Wd33HHHv+UDr5Lm008/fcrHx+dFhB1gaPGXAff8fHqPH7fFoae2INfOzi6TJ/doyP8ZVfu14vDLpvnss8+e8PLyeonv9Q0AQ4crPff4XPm57+cXb/OLL+Kh4X9BTk5OdnJysjYqKuqTe++995/iVy8Jh/1xT0/Pl+Pi4sQuADAUPMPPLz6/z30+L91NTEzkS3eLLS0t83hijz7npl++dJdaAW1RUZEmJiZm/YMPPvj3zj+lk+bzzz9/zN3d/R/Tpk0TuwDAkHDYubrzMF9/ww7u73mfnr7v52N4+J+QkFBJI4Gy6Ojo9Y8++uhf5WO++OKLR9zc3FYj7ACGiwOvf+fhvn67Ow47T/zx+fxTp07J9+UvKyujDuBCeWRk5HqTFStWTLS2tp4XEBAgfgUADI2+cvPrxy7a0e/ne/bxPfoCAwP5+XuWzs7O25YuXfq8ln5Z19e3BAAYHw4833qbr2INCwuT+HZznp6eNXznXQ47ZR1hB1AKrv5c4fVP4aEvAC3vlyu7fAQAKBJl/H9hR2UHUDSEHUAl5MX3nHj07AAKhmE8gHp0hp1ggg5AwVDZAdSjM+z0Qs8OoGBdlZ2H8Qg7gKJ1zsbzMF7eBABFcnJyWvj++++/gZ4dQOHMzc1tm5ubPTjs6NkBlE+Lyg6gcJRx+Q09O4DCibCjsgOoAWUcYQdQuq7KjvPsAMomwi737Eg6gIJx2DGMB1APhB1A6cQwHmEHUDoR9s6eHWEHUDbKeOdsvNgGAAXCMB5AJbrCzpUdYQdQPPlJEejZARSsR2WX9wCAIomwd171hsoOoFwcdso4JugAVKJzGI+wAyhXV89OPyDpAAomwq5BZQdQuO6VHWEHUD6EHUDpMIwHUInuw3gkHUDBusKOyg6gCujZAZQOlR1AJUTYcXdZAJVAZQdQuq5hPHp2AGWrq6srXLx48XRUdgCFo3y3+/j45KJnB1A4ruj6d1R2AAXrCjt6dgBlo4yjsgOoAYW9a1UNwg6gYJRxE/kdE3QAyobKDqASHHL5nUKPsAMoGGUcE3QAakAZ7xzGc8+OsAMoV9cwniu7vAcAFAnDeACVMDMzs1yzZk0Kwg6gcJRxjYmJSRDCDqAOuLssgNJRxuW+HZUdQOE47ARhB1ADDrw8JU8o7wg8gJLpw45z7QAK1lXZqapjKA+gYN2H8Qg7gMKhZwdQAVR2AJXoEXbxDgAKhMoOoCLo2QFUoMepN3kPACgShvEAKoKwA6hA98qOnh1AwTCMB1CRrrCLdwBQIFR2AJVA2AFUAhN0ACqCnh1ABTCMB1AJhB1AJRB2ABXBBB2ACvSo7OIdABSoK+z0A4bxAAqGnh1ARdCzA6gAenYAlcAwHkBFEHYAFcBsPIBKdB/GI+kACodhPIAKYIIOQCUQdgCV6D5BR1lH2AGUrKuyi3cAUCAM4wFUovswHmEHULDulR09O4DCoWcHUAH07AAqgZ4dQEVQ2QFUoHtlxwQdgIL16NnFOwAoFIbxACqACToAleg+jEfPDqBwXZVd3gIAReoxQYfKDqBc6NkBVAI9O4BK9Kjs8h4AUCz07AAqgJ4dQCW69+wIO4DCoWcHUIHulR2z8QAKhp4dQEUQdgAV6D6MR88OoGDdh/Ho2QEUDsN4ABVoaGj4W9cwHmEHUC4zM7MqVHYAddAi7AAqQPnW6IfxSDqAsqGyA6gEwg6gEv8Lu7wJAEr1v54dlR1AuSwsLB7WV3aEHUDBKOyO6NkBVIAyjuWyAGqh79kxQQegYKjsACrRPeyYoANQOFR2ABXoMYyX9wCAIvUIOyo7gLKhZwdQAVR2AJVA2AFUoqKi4mM57AQTdADKVoueHUAFKOO4eQWASiDsAGrQVdmJrqamRuJXQ0OD1NLSIrW3t/MdLcTHAGDkOu9UU19fr1u/fr30wQcfSHv27JHS09OlyspKqa2tTT4KAIxeZ2W3sLCoSUtLy9iyZUva7t27i06ePCnl5uZKFy5c4C8Cqbm5WQ4+Kj2AceJhPE/Di81O27dvX7Rhw4a1/v7+3n5+fpKPj4/k5eUlubm5SY6OjpKlpaU4EgCMxaFDhz42ee6558Rmp5CQkDSq9OkU+IicnJymgoKCYfyFYGpqKgfd3NycvyVoTKBv9wHA0OXl5SX3quzdfffdd/NeeumldVTZ/cPDw6XQ0FApKChI8vX1lZycnMRRAGDoDh8+/Fmvyt4dVflznp6eKRT60RUVFU3nz5935P6dg+7g4CDP2Ot0nYvvuNrzCwAMT35+/tmfrOzd7dq1a/Zrr732V+rhHceOHRvClZ6H9jY2NpK7u7v8BcDbAGB44uPjv7zksOvt379/5tq1a/9FFX04V3eexIuLi5PGjRsn2draosIDGKD09PT6nxzG98Xf3z/LxcUladu2baE0tK/Lzs525erOQTczM5Mn8ExMTMTRAGAIamtrzS+7snd38ODBuNWrVz9vZ2fnZG1tHT5z5ky5yvOwHgAMBxVl6arCrnfo0KGpr7766l+ol3eeMWNGBA/teSjPp+rs7e1xbh5giOXk5PRP2PVOnDgRs2nTprX19fWRPJwfPny4NG3aNPmUHQAMHV4Re9k9+0/x8vLKpyF94scffxx14MABz6amJsnb21tefceLcDBbDzA0qqur+zfsjMJdMGrUqITU1FRfCwuLKvof8eb91NPLy20BYPDxFa39Ooy/WGJi4vjXX399jY2NzaT58+dL0dHRcoXn2Xr6IpBfWHYLMPDy8/MHNuzs1KlT4955553nqOK7ODk5TeHJumHDhknBwcFSQECAvCgHAAYWFd5DAx52veTk5LFc5XNzc6fy2nqeuIuNjZU8PT1xbh5ggCUkJOzu9579x7i5uZUEBgYe27VrV/jZs2f9+UuG19bzMJ77eSsrK3EkAPS3kpKS7EELO3N3dy+NjIw8ev78edfW1tbS+Pj4QL6QxsPDQx7a8w0y+AuAz9GjlwfoPxT23EEbxl8sJSVl5JNPPvkmBXzmL37xC/mcPAecl93yohw+XQcA/eP06dMHhizsLC0tbQT18c9YWlq6pKamXsdr6/l6+aVLl8rLbgGgfyQlJf0wqMP4i7m4uJQvWLBgI/XyR7/99tvh33//fUhtbS3vl4f1jY2N8rCe8QQerqYDuDKlpaX5Qxp2PWdn54rJkycfuXDhwjAnJ6eCY8eOhfLCfV71wyMPXnnHk3hYgQdwZcrKygqGdBjfl8zMzKCXX375DxTuDk9PTx2F35X6+SVjx46VL6oBgMt39uzZowYX9ovl5eUFHDhw4JVZs2Ytw6QdwJWhsB83+PNbvr6+2RERES/yJXoVFRXy02oA4PJomfjZoDk6OpacOnXqM6rwUlVVldgLAJdK0+1ZbwbN29s7b968eY9nZWV9cvToUbnC86w93+lWP1sPAD+Owi4/mF1sGr6ioiKvzZs3P+np6ens4OBwi7+/P8/kY+IO4GdkZGQkGVXY9YqLiz03bdr0oq2t7W0TJ06UH0/Fp+X4XLz+BQD/U1ZW1mKUYWclJSUeGzdufMzDw6PD3NycCrzz3Txbz7e35gU5CDzA//Bcl9GGvTv61nL7/vvvH7a0tHQOCwu7l6+T56vocDENQKfs7OxMRYRdr6KiwnXPnj3PUU//a773Hd/SGpfOAshhT1dU6aOhfNnMmTOfTU9Pf/PIkSPy8+UB4Eeez64E1J84bdu27UHq3x28vLwe4avp+PZXfIENZu5BjXJzc88rMux6VNkdd+zY8evW1laH+vr6x6dOnSqNHj1afAqgHnl5eVmKDrtedXX1sE8//fQPlpaWT8bExMgVnp86C6AWBQUFOaoIO6upqbHfunXrfRYWFvYeHh5Pc5UHUIvCwsI81YRdr7a21m737t332NnZ2QcEBDyr0Wgk+lk+N8+9PYASFRcXG9717IOFenjb77777rHU1NQ/8bXykydPlpfeAihRSUlJoWpXndjY2NTNmTPnH76+vg9R8P/AD76rq6uT73ALoDSKPfV2uRoaGqz37dt3Bw3jbSIjI1/iCTwAJSkvLy9F2LtpamqyOnDgwP2xsbH/4F6eX/oLbACMWWVlZTnCfhEKvOXBgwfva25uXs2TdrzO3sfHR3wKYJwo7BW4UuQilpaWTXFxcesaGxsf2rx5s5Seni4+ATBefFcqg7iVtKGhoXt7SEhIYkVFRUlCQsJ8vhsOj4B4qS2upANj1EIwjP8Jra2tZlu3br2JenaL2trat5YsWSLfvx7A2NTV1dUi7JeAQ799+/bbrKys/qMPOy+35ctoeUEOgKGrJwj7JWprazOlwN+6Zs2ad/kKugkTJkjLli2TH0gJYOgaCHr2S0S9ui44ODiJ3s+/8cYbS3jijq+X51th8WOn+aU/VQdgaOjvpikq+2WiUGu//PLLG6iP11HwTdetW7dhxYoVmnHjxsk3vuRnzQMYGrkYIexXjoP/zTffLKI+XpuVlfVlaGioJjAwkE/fybfDMjc3lywsLOSKDzCUEPZ+wv38kiVLGv39/U25svMz5kNCQuQqzy8OPcBQ4pwj7P2A/h1qduzYMZ+G9Rp6dbz33ntbIyIi5CvpoqKiJFtbW3EkwNBB2AcABb2DH0DJYX/llVfkO+MADDUsBxsA1L93nDt3TuI73DY2Noq9AEMLYR8Ara2t7XwjDFwxB4YEYR8YOr4RxvTp0+WZeQBDgLAPAKrqHbyy7oYbbkDYwWAg7AOgoaGh47rrrpPvUY/TbmAoEPYB8Nhjj+nuvfdeydHRET07GAycehsAubm5tb6+vrZYOQeGBJW9n8XHx3/h5eVliaCDoUFl7ydr1qx5LyoqyiU6OnquKS59AwOEsPeD1atX/yU2NvZhCrsdenQwVBjGXyWq6A8MGzbsplGjRlkj6GDIEPar8OGHH95ZUFBw1+zZs72srKzw7xIMGobxV2jdunX3t7e33zNz5syw0NBQS2rTMSMHBg1hv0zx8fGTv/rqq2W2traLb7/9dn8/Pz9zLW4vDUYAYb8MGzduXLply5alnp6es+666y6XoKAgatPRp4NxQNgv0UcffXTLnj17bpkxY0ZUXFyco6+vrymCDsYEYb9E//nPf/b4+/uPi42NtcNkHBgjhP1nrF+/np/h7jpy5MjFrq6udnzrKfERgFFB2H/C3r17/+7m5vbr4cOH25qZmYm9AMYJYe8Dhfyv1I+7R0ZG3mhnZ2cvdgMYNYS9m40bN/7J0dHRIyoqasUwfjg7gIIg7GTDhg3PUD/u4efnd1NwcLADrmMBJVJ92Ldv3/60k5PTbyMiIhxxCylQMtWGfcuWLU/Z2tp6hoaG3url5eWEVXCgdKoM+759+x53d3d/iobsLphlB7VQVdh37tz5qImJiRcN2W93dnZ2FbsBVEE1Yadq/lBQUNDT3t7ebhiygxopPuz79+//tU6n8x49evTdrq6u7mI3gOooNux79uy5l9445Kvc3Nw8O/cCqJeiwv7FF1/cST25j4ODgzY4OPgeX19fLwzZATopIuwbNmy4TaPR+LS0tNw/efJkH+rNJcyyA/Rk1GGnkN/U2trqk5eX98D06dP9JkyYIFlZWYlPAaA7ow37N998s/Lbb7994Zprrgmgl+Tk5CRhyA7w44wu7Js3b76xra3Np76+/kEasgdiyA5waYwq7Lt27Vp67Nixl2JjY4OjoqIka2tr8QkA/ByjCfsPP/zwiwsXLrwcExMTwk9HxbPUAC6PwYf94MGDC1tbW31dXFweHjFiRCiG7ABXxuDD/t133+2Mi4u7FkN2gKtjsGE/fvz4vMbGRl9vb+9HgoKCRordAHCFDDLsJ06cmOPg4PBqcHDwKLELAK6SQYX95MmTsxoaGnw9PDweCwkJCRe7AaAfGETYExMTZ9TX1/u6uro+HhoaGiF2A0A/GtKwnzp1ahqF3MfZ2fnxsLCwcWI3AAyAIQv76dOnY83MzF4bOXLkeLELAAbQoIc9OTk5pq6uztve3v7JUaNGRYvdADDABjXsZ86cmURvr48ePZrfAWAQDUrYU1JSJtTW1npbW1s/FR4eHiN2A8AgGtCwp6amjqOQe1laWv5+zJgxU8VuABgCAxb2tLS0sU1NTf8cO3ZsnNgFAEOo38OekZERXlNT42VqavoHCvp0sRsAhtgVhV2n02mbm5stCgsLvaqqqvg+7OYajYZvE8PXnT49bty4mfKBAGAwrijspaWlbqdPnx6/devWVa6urrOWLVtmr79jDK4zBzBMlxV26sEtqJI7x8fHz8zMzLwvLi5u/JgxYyysrKyQcAADd0lhb2lpMac+3P7cuXMjkpOTf+Hu7n7NpEmThlNVt6VKjqADGIGfDHtbW5sp9+bZ2dlBhw8fvo4qeAxV80gfHx9fyjj36eJIADB0fYad9mk46Pn5+b5UySfU19dP8vPzmxMWFhY6bNgwM1NTU3EkABiLXmHnmfbq6uphhYWFvhkZGXw7qDuio6NHOzo6mohDAMAI9Qh7a2urWUVFhcvJkyenV1VVrYyJiYmmiu5sYmKCITuAkesKO1d0noBLTU1dGRoaOjswMDDEzMzMgUJugqADGL+usFNFd6Me/baAgIC77O3tQyjguGczgIJ0PRyNevRwGxubRRT0MAQdQHm6wn727Nm4hoaGsRR0PB0RQIG6gt3Y2GhHfbuN2AQAhekKO0/Q0Qun1wAUqivsNHzvvboGABSje9h14kcAUKDuk3G6i1fTAYBy9KjsCDuAcvXo2RF2AOXqHvZ2hB1Aubr37Eg6gIKhZwdQCfTsACqByg6gEt17diyqAVAwDOMBVALDeACVQNgBVEIOO1/eiqADKJsc9rq6OtuWlhZ7BB5AueSwU8jlG08i7ADK1dWzE8o6wg6gVPqw843hEXYABeuq7FqtFkkHUDB9zy5voLIDKBeG8QAqoQ97BxbVACibHHbq13X0apP3AIAiyWG3t7evsbOzK0ZlB1Au/TAeV70BKFz3sKNnB1CwHmEXPwKAAqGyA6gEenYAlUBlB1AJhB1AJbrCzgtrxI8AoEBdYSfo2QEUrEdlR9gBlAs9O4BK9Ai7+BEAFKh72NGzAygYhvEAKoEJOgCVQM8OoBLo2QFUAj07gEqgZwdQCVR2AJXABB2ASmAYD6AS3Ss7ZR1hB1Aq9OwAKoGeHUAl0LMDqAR6dgCVQM8OoBI9hvHiRwBQIFR2AJVAzw6gEj2G8Qg7gHIh7AAq0aNnFz8CgAKhsgOoBCboAFQClR1AJXr07Ag7gHL1qOziRwBQIFR2AJXoXtkxQQegYKjsACqBnh1AJXqEHZUdQLm6D+PRswMoGCo7gEqgZwdQia6wEwzjARQMw3gAlUDYAVQCYQdQCUzQAahEV9hxnh1A2TCMB1AJhB1AJXoM48WPAKBAXWEXUN0BFAphB1CJHmGnoCPsAArVq7KLdwBQmIvDToUdlR1AidCzA6gEwg6gEgg7gEr0CDsFHRN0AAqFCToAlcAwHkAlEHYAleg1jBfvAKAwqOwAKoGwA6gEwg6gEr3CLt4BQGF6TdChsgMoE4bxACqBsAOoBHp2AJVAzw6gEhjGA6hEj7BrNBqEHUChUNkBVAITdAAqgQk6AJXAMB5AJRB2AJVAzw6gEj3Czo9tRmUHUCYM4wFUAmEHUAn07AAqcXHPjsoOoFAXV3ZM0AEoFHp2AJVAzw6gEujZAVQCPTuASqBnB1AJDOMBVKJH2C0sLApaW1vrxCYAKAhf+SJ+7HT06NHNEydOXCw2AUAhLu7ZeYYOp98AFKivsKNpB1CgXmEnqOwACoRhPIBK9FXZMYwHUCBUdgCVQM8OoBKo7AAqgZ4dQCVQ2QFUAj07gEqgsgOoBCo7gEpggg5AwZqbm6XU1FTpww8/7H2J6/79+9dOmzbtfrEJAEbmwoULcsAPHz4sbd++XUpLS5MaGhr6DPubFPYHxCYAGIGioiIpMTFROnDggHTw4EEpLy9Pqq2tlX7zm988f9NNN63XarW6vsL+BoX9QbEJAAaoqalJysnJkU6ePCnt3r1bSkhIkCoqKqQ77rjj78uWLfuYbzHHT2X29PQscnR0rOLf6RX2ffv2vTZ9+vSHxSYAGAgenqenp0vHjh2T9u7dKw/Pb7zxxlcXLFjwCX3cwQH39fXNc3FxKe/8jZ76CvtqCvsjYhMAhghns6SkREpOTpb77/j4eGnq1Klvzp49+1Mdoc87AgICsj08PIrFr/ykvsL+Dwr7Y2ITAAZRY2OjlJ+fL50+fZpbasnf3/8tCvjnbW1tcr6DgoLOeXt7F4jDL0tfYX+Zwv642ASAAVZdXS2dP39e7rtpKP7uyJEjv+Jw84vCnUaBzxGHXpW+wv53CvuTYhMA+hlVaKmsrExKSUmRysvLP6JKzeHuaG1t1QUGBp6l13lxaL/qK+wvUtifEpsA0A949rygoIAn1T5zcHDY3N7eruNw+/n5JYWEhKSJwwZUr7Dv3bv3hRkzZvxebALAFYqPj99IFfsb+pFi1iEPy6mKJ4aGhp7pPGJw9RX25ynsT4tNALhEVK35tNgWqtjbaFPn5uZ2PCwsLLHz06HXV9j/TGF/RmwCwE/g4TmvXsvIyNhmYWGxjQJ+dOTIkSfExwalr7D/icL+rNgEgIvwMtTc3Fx+fWdpafktBZ6H5/ERERHHxCEGqa+w/5HC/pzYBFA9Hp5XVlZK2dnZUnFx8U4rK6vv6uvrebXa4aioqMPiMIPXV9ifobD/WWwCqBIPz0tLS6XMzExec77X2tp6B1V0XrF2cOLEiQfFYUalr7D/H4X9L2ITQDXq6urk02Pnzp2Tl6hSNvbT8HxncHDwgSlTpuwVhxmtvsL+Bwr7X8UmgGLx8JwvLuHLQfkCE6rch+3t7XfTkF1XVVWli46OPnDttdfuEocbvb7C/jsK+9/EJoCi8J1bUlJSjldXVx/gxebce1OwO2jIrouIiNg7e/bs78ShitMr7Pv27Xtq+vTpL4pNAKOXlpaWWFJScoh+1LW0tHTY2NjsjImJ2dL5qXr0FfYnKOwviU0Ao0M9d3JxcfER+rvNf7l1ZmZmOyZPnvxV56fq1VfYf0thf0VsAhiFzMzMlKKiouP091mn1Wq3T5ky5VPxEQh9hf1RCvurYhPAIPHfWz49xleP0RA9jYbnz0+dOvUj8TH0AfeNB6PBs+f6a7+PHDmScfDgwc/37NnzKYX9BQT95/Wq7Pv3739o2rRpr4tNgCHV2toqB5wrON9gsbCwMJMqeoKHh8d/ly5d+q44DC5BX2H/DYX9n2ITYFDx30c+Pcbnv3kFW3FxcQ79nJSVldVx7tw53cSJE7f96le/+rc4HC5DX2H/NYV9jdgEGHA8POd7r1VVVfHS1PzKysoUquId6enpupCQkK133303/j72g77Cfh+FfZ3YBBgQbW1t8vJUCncxhTuDF7Vw5XZyctpy6623viYOg37UK+wHDhy4Jy4u7i2xCdAv+O9ZS0uLHHAalpeVl5efz87O5gcZbF6+fPnL4jAYQH2F/VcU9rfFJsAV4xsrcv9Nw/NKCngOBVyXkZHRYWZmtum22257QRwGg6RX2A8ePHh3bGzsf8QmwGWpqampplAX0d8rHfXhuvz8/A7at5GqN+6RMMT6CvudFHac0oCfVU+oYpfzBSUcbkZD869m4IalBqmvsN9OYX9fbAJ0aSJUpS/og52env7FdDw9yGj0WkHHT34UPwLwpFpLZWVlBSk7evToO25ubp7u7u7enp6evgi6ccFyWeihjdDovK62tpaKeE31kSNH3ndycnJxdnZ2mzZt2m/EYWCE+qrsCLsK8bCch+nx8fEf2djY2JFh9vb2DnFxcfeKQ8DIobKrHPXfHVzNDx8+vMHS0tIqNjb2TvERKAwqu4pRMe+gkH9mampqNnXq1FvFblCovio7JugUjBe57N69+0v6UaMlU6ZMWdn5CSgdKrsKHDly5Gtqx61aWlosTExMzGbMmLFCfAQqgrArEK+d4Ou/N23atLWhocE2MjJyBfXjTebm5i00ZG+jgo7/xiqECTqF4OF5Wlqa9Mknn3xbXV3tZGFh4TB37tzl1tbW9fRzszgMVKyvyo6e3UjwFWQ0RJfeffddfjSRu4uLi+vChQtXODg4VNnb21dbWVk1ikMBei+XPXbs2PXR0dH8AHkwMDqdTiovL5dOnDjB92HbdcMNN9zObRdV7iYOuDgMoE99hX0+hZ0fJg8GgIfnfO81+u/Cjynae/PNN9/FAacevIEqeZk4DOBn9Qr78ePH506YMOFbsQmDLCkp6QcK8v0caPHq4Hf6SEf9d527u3tx55EAl6dX2GmIeN348eMV+7wrQ3LmzJmjFOQHuwebAl3t6+ubKQ4B6De9wn7y5MnZUVFRO8QmDICzZ88ea29vf8TGxqYqKCgoRewGGFC9wp6QkHDtuHHjdopN6Cepqaknqf9+jCs4Ve+qkJCQZPERwKDoK+zXUNh3i024CnyLZBqqJ9L7bynglWFhYYniI4BBhxV0/YzvoMqPJ/r666+TEhMT55iZma3iL08EHYZar8p+6tSpaWPHjt0nNuES8AMOePUavc4EBgY+xdeGW1lZVdK/xyPiEIAh1yvsp0+fjo2IiDggNuEiWVlZaUVFRc/pZ9BpF786WltbuRcvHz9+/A/ygQAGplfYk5KSpowZMwZ/YbvJyck5l5+f/2f6kSt2aVRU1PednwAYj15hT05OnhweHn5YbKoaD8/py++8Vqt9aMKECf8VuwGMEi6E6YZnz/nS0Pj4eGnDhg1ZR48evZuG548g6KAEvSr72bNno0eNGnVUbCoeP/+7sLBQysjIkDIzM3OCg4Nf5CeZWFhYlMyePftrcRiA0esV9pSUlPEjR448LjYVh///5eE5X1xC4c63sbF5pampSVdfXy8H/Prrr+dbNgEoTq+wp6WljQsLCzspNhWBh+f8cP9z584VUtBfp2053KampiXz58//WBwGoGh9hX2sEhaA8PO/i4uLuXoXU7jfbG5u5lNkJXPnzsVz7ECVeoU9PT09IjQ09JTYNBr64XlBQYG8go1CXurr67uW9hctWrQIj6AG1esVdhrqhoeEhCSJTYPGd27h4Xl+fr48wZaQkMDPAi+LjIxcp9FoSlatWrVWHAqger3CTlVxVHBw8BmxaXC4/y4pKZEDTqMQ/uetoH/ed8rKynT8sH93d/eShx566A1xOAAIvcJOw98RhnSNNf/zNTU1yf13bm4uXyrKM+lVgYGB71Po5Rn0J5544mVxOAD8iF5hz8rKCqMgpYrNIcHD85qaGjng2dnZvIpN7sPz8vIuhIeHf2hvb1/69NNP/1UcDgCXoFfYKVzDAwIC0sXmoOHhOd85lQNOoa6hXV+UlpbqCgoKOgoLC3X8YAMeoj/77LO8Rh0ALlOvsNNQOdjPz++c2Bww/L/Ld04VAa9raGjYTOHuKCoq4nPgJb/73e+eEocCQD/oFXaqqoEDdcNDHp7zgw044HyKLCMjo97c3Pyb6urqkgceeOARcRgADIBeYc/Pz/f38fHJFptXTb96jQNOXyQ8g95gYmLybWZmZgdX8DfffPM34lAAGEC9wk79sZ+Xl1eO2Lxs/OfxrZlEwJtqamp20xeILicnp4OCzqvYSt9+++17Oo8GgMHSK+zUM/t4enrmic1Lwn8Ghbo5KyvrEN+SiX7uoHDrSkpKSp988kk85B/AAPQKe3FxsZeHh0eB2PxRzc3NLVSpj9Pv6/jCEvqSKJs/f/4N4mMAMDC9wl5aWurh5uZWJDZ7aGxsbKXqfYoDXldXVzZp0qTrxUcAYOB6hb2srMzd1dVVfp4Yf8ar1+rr63nNeRv183umT59+nXwgABgRSfp/bZBBJGKOBY8AAAAASUVORK5CYII=;labelBorderColor=#000000;imageBackground=#000000;fillStyle=solid;strokeOpacity=100;snapToPoint=0;fontSize=13;" parent="1" vertex="1">
          <mxGeometry x="1249.75" y="648" width="45.23" height="100" as="geometry" />
        </mxCell>
        <mxCell id="045CiPY4S235guZHoBIP-19" value="IF/ID&lt;br style=&quot;font-size: 13px;&quot;&gt;BUFFER" style="rounded=0;whiteSpace=wrap;html=1;strokeOpacity=100;snapToPoint=0;fontSize=13;" parent="1" vertex="1">
          <mxGeometry x="1522.25" y="558" width="50" height="650" as="geometry" />
        </mxCell>
        <mxCell id="045CiPY4S235guZHoBIP-20" value="" style="triangle;whiteSpace=wrap;html=1;rotation=-90;strokeOpacity=100;snapToPoint=0;fontSize=13;" parent="1" vertex="1">
          <mxGeometry x="1537.25" y="1188" width="20" height="20" as="geometry" />
        </mxCell>
        <mxCell id="045CiPY4S235guZHoBIP-21" value="clk" style="text;html=1;align=center;verticalAlign=middle;whiteSpace=wrap;rounded=0;fontSize=13;strokeOpacity=100;snapToPoint=0;" parent="1" vertex="1">
          <mxGeometry x="1477.25" y="1228" width="60" height="30" as="geometry" />
        </mxCell>
        <mxCell id="045CiPY4S235guZHoBIP-22" value="" style="verticalLabelPosition=bottom;shadow=0;dashed=0;align=center;html=1;verticalAlign=top;shape=mxgraph.electrical.logic_gates.inverter_2;rotation=-90;fontSize=13;" parent="1" vertex="1">
          <mxGeometry x="1534.75" y="1213" width="25" height="15" as="geometry" />
        </mxCell>
        <mxCell id="045CiPY4S235guZHoBIP-23" style="edgeStyle=orthogonalEdgeStyle;rounded=0;orthogonalLoop=1;jettySize=auto;html=1;exitX=1;exitY=0.5;exitDx=0;exitDy=0;entryX=0;entryY=0.5;entryDx=0;entryDy=0;entryPerimeter=0;endArrow=none;endFill=0;fontSize=13;" parent="1" source="045CiPY4S235guZHoBIP-21" target="045CiPY4S235guZHoBIP-22" edge="1">
          <mxGeometry relative="1" as="geometry" />
        </mxCell>
        <mxCell id="045CiPY4S235guZHoBIP-24" value="1" style="text;html=1;align=center;verticalAlign=middle;whiteSpace=wrap;rounded=0;strokeOpacity=100;snapToPoint=0;fontSize=13;" parent="1" vertex="1">
          <mxGeometry x="1209.75" y="718" width="12.5" height="10" as="geometry" />
        </mxCell>
        <mxCell id="045CiPY4S235guZHoBIP-25" value="PC_next" style="text;html=1;align=center;verticalAlign=middle;whiteSpace=wrap;rounded=0;fontSize=13;strokeOpacity=100;snapToPoint=0;" parent="1" vertex="1">
          <mxGeometry x="484.75" y="848" width="60" height="30" as="geometry" />
        </mxCell>
        <mxCell id="045CiPY4S235guZHoBIP-26" value="32&#39;d1000" style="text;html=1;align=center;verticalAlign=middle;whiteSpace=wrap;rounded=0;fontSize=13;strokeOpacity=100;snapToPoint=0;" parent="1" vertex="1">
          <mxGeometry x="442" y="888" width="72.75" height="17" as="geometry" />
        </mxCell>
        <mxCell id="045CiPY4S235guZHoBIP-27" style="edgeStyle=orthogonalEdgeStyle;rounded=0;orthogonalLoop=1;jettySize=auto;html=1;exitX=1;exitY=0.5;exitDx=0;exitDy=0;entryX=-0.011;entryY=0.406;entryDx=0;entryDy=0;entryPerimeter=0;endArrow=none;endFill=0;fontSize=13;" parent="1" source="045CiPY4S235guZHoBIP-26" target="045CiPY4S235guZHoBIP-3" edge="1">
          <mxGeometry relative="1" as="geometry" />
        </mxCell>
        <mxCell id="045CiPY4S235guZHoBIP-28" value="pc_reg_in" style="text;html=1;align=center;verticalAlign=middle;whiteSpace=wrap;rounded=0;fontSize=13;strokeOpacity=100;snapToPoint=0;" parent="1" vertex="1">
          <mxGeometry x="634.75" y="893" width="60" height="30" as="geometry" />
        </mxCell>
        <mxCell id="045CiPY4S235guZHoBIP-29" value="&lt;font style=&quot;font-size: 13px;&quot;&gt;inst_mem_in&lt;/font&gt;" style="text;html=1;align=center;verticalAlign=middle;whiteSpace=wrap;rounded=0;fontSize=13;strokeOpacity=100;snapToPoint=0;" parent="1" vertex="1">
          <mxGeometry x="894.75" y="898" width="40" height="15" as="geometry" />
        </mxCell>
        <mxCell id="b0ziHpK24BVwUH53S_0q-30" style="edgeStyle=orthogonalEdgeStyle;rounded=0;orthogonalLoop=1;jettySize=auto;html=1;entryX=0;entryY=0.5;entryDx=0;entryDy=0;" parent="1" source="045CiPY4S235guZHoBIP-36" target="045CiPY4S235guZHoBIP-279" edge="1">
          <mxGeometry relative="1" as="geometry" />
        </mxCell>
        <mxCell id="045CiPY4S235guZHoBIP-36" value="&lt;font style=&quot;font-size: 13px;&quot;&gt;ForwardA&lt;/font&gt;" style="rounded=0;whiteSpace=wrap;html=1;strokeOpacity=100;snapToPoint=0;fontSize=13;" parent="1" vertex="1">
          <mxGeometry x="3460.67" y="1364.5" width="101.33" height="93.5" as="geometry" />
        </mxCell>
        <mxCell id="045CiPY4S235guZHoBIP-37" value="IF FLUSH&amp;nbsp;" style="text;html=1;align=center;verticalAlign=middle;whiteSpace=wrap;rounded=0;fontSize=13;strokeOpacity=100;snapToPoint=0;" parent="1" vertex="1">
          <mxGeometry x="2234" y="1633.5" width="71" height="14" as="geometry" />
        </mxCell>
        <mxCell id="045CiPY4S235guZHoBIP-39" style="edgeStyle=orthogonalEdgeStyle;rounded=0;orthogonalLoop=1;jettySize=auto;html=1;exitX=0;exitY=0.25;exitDx=0;exitDy=0;endArrow=none;endFill=0;fontSize=13;" parent="1" source="045CiPY4S235guZHoBIP-41" edge="1">
          <mxGeometry relative="1" as="geometry">
            <mxPoint x="2407" y="988" as="targetPoint" />
          </mxGeometry>
        </mxCell>
        <mxCell id="045CiPY4S235guZHoBIP-41" value="ID/EX&lt;br style=&quot;font-size: 13px;&quot;&gt;BUFFER" style="rounded=0;whiteSpace=wrap;html=1;strokeOpacity=100;snapToPoint=0;fontSize=13;" parent="1" vertex="1">
          <mxGeometry x="2889.25" y="558" width="50" height="650" as="geometry" />
        </mxCell>
        <mxCell id="045CiPY4S235guZHoBIP-42" value="" style="triangle;whiteSpace=wrap;html=1;rotation=-90;strokeOpacity=100;snapToPoint=0;fontSize=13;" parent="1" vertex="1">
          <mxGeometry x="2904.25" y="1188" width="20" height="20" as="geometry" />
        </mxCell>
        <mxCell id="045CiPY4S235guZHoBIP-43" value="clk" style="text;html=1;align=center;verticalAlign=middle;whiteSpace=wrap;rounded=0;fontSize=13;strokeOpacity=100;snapToPoint=0;" parent="1" vertex="1">
          <mxGeometry x="2844.25" y="1228" width="60" height="30" as="geometry" />
        </mxCell>
        <mxCell id="045CiPY4S235guZHoBIP-44" value="" style="verticalLabelPosition=bottom;shadow=0;dashed=0;align=center;html=1;verticalAlign=top;shape=mxgraph.electrical.logic_gates.inverter_2;rotation=-90;fontSize=13;" parent="1" vertex="1">
          <mxGeometry x="2901.75" y="1213" width="25" height="15" as="geometry" />
        </mxCell>
        <mxCell id="045CiPY4S235guZHoBIP-45" style="edgeStyle=orthogonalEdgeStyle;rounded=0;orthogonalLoop=1;jettySize=auto;html=1;exitX=1;exitY=0.5;exitDx=0;exitDy=0;entryX=0;entryY=0.5;entryDx=0;entryDy=0;entryPerimeter=0;endArrow=none;endFill=0;fontSize=13;" parent="1" source="045CiPY4S235guZHoBIP-43" target="045CiPY4S235guZHoBIP-44" edge="1">
          <mxGeometry relative="1" as="geometry" />
        </mxCell>
        <mxCell id="045CiPY4S235guZHoBIP-46" style="edgeStyle=orthogonalEdgeStyle;rounded=0;orthogonalLoop=1;jettySize=auto;html=1;exitX=1;exitY=0.5;exitDx=0;exitDy=0;entryX=0.5;entryY=0;entryDx=0;entryDy=0;endArrow=none;endFill=0;jumpStyle=arc;jumpSize=18;fontSize=13;" parent="1" source="045CiPY4S235guZHoBIP-49" target="045CiPY4S235guZHoBIP-211" edge="1">
          <mxGeometry relative="1" as="geometry">
            <mxPoint x="3834.75" y="883" as="targetPoint" />
            <Array as="points">
              <mxPoint x="3574.75" y="918" />
              <mxPoint x="3874.75" y="918" />
              <mxPoint x="3874.75" y="718" />
              <mxPoint x="4054.75" y="718" />
              <mxPoint x="4054.75" y="776" />
            </Array>
          </mxGeometry>
        </mxCell>
        <mxCell id="045CiPY4S235guZHoBIP-49" value="EX/MEM&lt;br style=&quot;font-size: 13px;&quot;&gt;BUFFER" style="rounded=0;whiteSpace=wrap;html=1;strokeOpacity=100;snapToPoint=0;fontSize=13;" parent="1" vertex="1">
          <mxGeometry x="3525.05" y="558" width="50" height="650" as="geometry" />
        </mxCell>
        <mxCell id="045CiPY4S235guZHoBIP-50" value="" style="triangle;whiteSpace=wrap;html=1;rotation=-90;strokeOpacity=100;snapToPoint=0;fontSize=13;" parent="1" vertex="1">
          <mxGeometry x="3540.05" y="1188" width="20" height="20" as="geometry" />
        </mxCell>
        <mxCell id="045CiPY4S235guZHoBIP-51" value="clk" style="text;html=1;align=center;verticalAlign=middle;whiteSpace=wrap;rounded=0;fontSize=13;strokeOpacity=100;snapToPoint=0;" parent="1" vertex="1">
          <mxGeometry x="3480.05" y="1228" width="60" height="30" as="geometry" />
        </mxCell>
        <mxCell id="045CiPY4S235guZHoBIP-52" value="" style="verticalLabelPosition=bottom;shadow=0;dashed=0;align=center;html=1;verticalAlign=top;shape=mxgraph.electrical.logic_gates.inverter_2;rotation=-90;fontSize=13;" parent="1" vertex="1">
          <mxGeometry x="3537.55" y="1213" width="25" height="15" as="geometry" />
        </mxCell>
        <mxCell id="045CiPY4S235guZHoBIP-53" style="edgeStyle=orthogonalEdgeStyle;rounded=0;orthogonalLoop=1;jettySize=auto;html=1;exitX=1;exitY=0.5;exitDx=0;exitDy=0;entryX=0;entryY=0.5;entryDx=0;entryDy=0;entryPerimeter=0;endArrow=none;endFill=0;fontSize=13;" parent="1" source="045CiPY4S235guZHoBIP-51" target="045CiPY4S235guZHoBIP-52" edge="1">
          <mxGeometry relative="1" as="geometry" />
        </mxCell>
        <mxCell id="045CiPY4S235guZHoBIP-55" style="edgeStyle=orthogonalEdgeStyle;rounded=0;orthogonalLoop=1;jettySize=auto;html=1;exitX=1;exitY=0.25;exitDx=0;exitDy=0;entryX=0;entryY=0.75;entryDx=0;entryDy=0;endArrow=none;endFill=0;fontSize=13;" parent="1" source="045CiPY4S235guZHoBIP-57" target="045CiPY4S235guZHoBIP-231" edge="1">
          <mxGeometry relative="1" as="geometry" />
        </mxCell>
        <mxCell id="045CiPY4S235guZHoBIP-56" style="edgeStyle=orthogonalEdgeStyle;rounded=0;orthogonalLoop=1;jettySize=auto;html=1;exitX=0;exitY=0;exitDx=0;exitDy=0;endArrow=none;endFill=0;" parent="1" source="045CiPY4S235guZHoBIP-57" edge="1">
          <mxGeometry relative="1" as="geometry">
            <mxPoint x="3770" y="791" as="targetPoint" />
            <Array as="points">
              <mxPoint x="4270" y="667" />
              <mxPoint x="3770" y="667" />
            </Array>
          </mxGeometry>
        </mxCell>
        <mxCell id="045CiPY4S235guZHoBIP-57" value="MEM/WB&lt;br style=&quot;font-size: 13px;&quot;&gt;BUFFER" style="rounded=0;whiteSpace=wrap;html=1;strokeOpacity=100;snapToPoint=0;fontSize=13;" parent="1" vertex="1">
          <mxGeometry x="4269.75" y="558" width="50" height="650" as="geometry" />
        </mxCell>
        <mxCell id="045CiPY4S235guZHoBIP-58" value="" style="triangle;whiteSpace=wrap;html=1;rotation=-90;strokeOpacity=100;snapToPoint=0;fontSize=13;" parent="1" vertex="1">
          <mxGeometry x="4284.75" y="1188" width="20" height="20" as="geometry" />
        </mxCell>
        <mxCell id="045CiPY4S235guZHoBIP-59" value="clk" style="text;html=1;align=center;verticalAlign=middle;whiteSpace=wrap;rounded=0;fontSize=13;strokeOpacity=100;snapToPoint=0;" parent="1" vertex="1">
          <mxGeometry x="4224.75" y="1228" width="60" height="30" as="geometry" />
        </mxCell>
        <mxCell id="045CiPY4S235guZHoBIP-60" value="" style="verticalLabelPosition=bottom;shadow=0;dashed=0;align=center;html=1;verticalAlign=top;shape=mxgraph.electrical.logic_gates.inverter_2;rotation=-90;fontSize=13;" parent="1" vertex="1">
          <mxGeometry x="4282.25" y="1213" width="25" height="15" as="geometry" />
        </mxCell>
        <mxCell id="045CiPY4S235guZHoBIP-61" style="edgeStyle=orthogonalEdgeStyle;rounded=0;orthogonalLoop=1;jettySize=auto;html=1;exitX=1;exitY=0.5;exitDx=0;exitDy=0;entryX=0;entryY=0.5;entryDx=0;entryDy=0;entryPerimeter=0;endArrow=none;endFill=0;fontSize=13;" parent="1" source="045CiPY4S235guZHoBIP-59" target="045CiPY4S235guZHoBIP-60" edge="1">
          <mxGeometry relative="1" as="geometry" />
        </mxCell>
        <mxCell id="045CiPY4S235guZHoBIP-62" value="&lt;font style=&quot;font-size: 13px;&quot;&gt;rs1&lt;/font&gt;" style="text;html=1;align=center;verticalAlign=middle;whiteSpace=wrap;rounded=0;strokeWidth=3;horizontal=1;fontSize=13;strokeOpacity=100;snapToPoint=0;" parent="1" vertex="1">
          <mxGeometry x="2087.25" y="710.5" width="35" height="15" as="geometry" />
        </mxCell>
        <mxCell id="045CiPY4S235guZHoBIP-63" style="edgeStyle=orthogonalEdgeStyle;rounded=0;orthogonalLoop=1;jettySize=auto;html=1;exitX=1;exitY=0.25;exitDx=0;exitDy=0;endArrow=none;endFill=0;fontSize=13;" parent="1" source="045CiPY4S235guZHoBIP-66" edge="1">
          <mxGeometry relative="1" as="geometry">
            <mxPoint x="2134.7500000000005" y="733" as="targetPoint" />
          </mxGeometry>
        </mxCell>
        <mxCell id="045CiPY4S235guZHoBIP-332" style="edgeStyle=orthogonalEdgeStyle;rounded=0;orthogonalLoop=1;jettySize=auto;html=1;exitX=1;exitY=0.75;exitDx=0;exitDy=0;entryX=0;entryY=0.5;entryDx=0;entryDy=0;jumpStyle=arc;jumpSize=18;" parent="1" source="045CiPY4S235guZHoBIP-66" target="045CiPY4S235guZHoBIP-41" edge="1">
          <mxGeometry relative="1" as="geometry">
            <Array as="points">
              <mxPoint x="2123" y="833" />
              <mxPoint x="2123" y="946" />
              <mxPoint x="2488" y="946" />
              <mxPoint x="2488" y="883" />
            </Array>
          </mxGeometry>
        </mxCell>
        <mxCell id="045CiPY4S235guZHoBIP-66" value="&lt;font style=&quot;font-size: 13px;&quot;&gt;Reg File&lt;/font&gt;" style="whiteSpace=wrap;html=1;aspect=fixed;strokeOpacity=100;snapToPoint=0;fontSize=13;" parent="1" vertex="1">
          <mxGeometry x="1887.25" y="683" width="200" height="200" as="geometry" />
        </mxCell>
        <mxCell id="045CiPY4S235guZHoBIP-67" style="edgeStyle=orthogonalEdgeStyle;rounded=0;orthogonalLoop=1;jettySize=auto;html=1;endArrow=none;endFill=0;strokeOpacity=100;snapToPoint=0;fontSize=13;" parent="1" source="045CiPY4S235guZHoBIP-68" edge="1">
          <mxGeometry relative="1" as="geometry">
            <mxPoint x="1904.75" y="903" as="targetPoint" />
            <Array as="points">
              <mxPoint x="1914.75" y="903" />
            </Array>
          </mxGeometry>
        </mxCell>
        <mxCell id="045CiPY4S235guZHoBIP-68" value="" style="triangle;whiteSpace=wrap;html=1;rotation=-90;strokeOpacity=100;snapToPoint=0;fontSize=13;" parent="1" vertex="1">
          <mxGeometry x="1904.75" y="863" width="20" height="20" as="geometry" />
        </mxCell>
        <mxCell id="045CiPY4S235guZHoBIP-69" value="clk" style="text;html=1;align=center;verticalAlign=middle;whiteSpace=wrap;rounded=0;strokeOpacity=100;snapToPoint=0;fontSize=13;" parent="1" vertex="1">
          <mxGeometry x="1849.75" y="885.5" width="60" height="30" as="geometry" />
        </mxCell>
        <mxCell id="045CiPY4S235guZHoBIP-71" value="RegWrite" style="text;html=1;align=center;verticalAlign=middle;whiteSpace=wrap;rounded=0;strokeOpacity=100;snapToPoint=0;fontSize=13;" parent="1" vertex="1">
          <mxGeometry x="1931" y="904" width="51" height="16" as="geometry" />
        </mxCell>
        <mxCell id="045CiPY4S235guZHoBIP-72" value="" style="endArrow=none;html=1;rounded=0;strokeOpacity=100;snapToPoint=0;fontSize=13;" parent="1" edge="1">
          <mxGeometry width="50" height="50" relative="1" as="geometry">
            <mxPoint x="1957.17" y="903" as="sourcePoint" />
            <mxPoint x="1957.17" y="883" as="targetPoint" />
          </mxGeometry>
        </mxCell>
        <mxCell id="045CiPY4S235guZHoBIP-73" value="ReadData1" style="text;html=1;align=center;verticalAlign=middle;whiteSpace=wrap;rounded=0;strokeOpacity=100;snapToPoint=0;fontSize=13;" parent="1" vertex="1">
          <mxGeometry x="2015" y="721" width="67.75" height="20" as="geometry" />
        </mxCell>
        <mxCell id="045CiPY4S235guZHoBIP-74" value="ReadData2" style="text;html=1;align=center;verticalAlign=middle;whiteSpace=wrap;rounded=0;strokeOpacity=100;snapToPoint=0;fontSize=13;" parent="1" vertex="1">
          <mxGeometry x="2014" y="822" width="70.75" height="20" as="geometry" />
        </mxCell>
        <mxCell id="045CiPY4S235guZHoBIP-75" value="DataIn" style="text;html=1;align=center;verticalAlign=middle;whiteSpace=wrap;rounded=0;strokeOpacity=100;snapToPoint=0;fontSize=13;" parent="1" vertex="1">
          <mxGeometry x="1892" y="828" width="40" height="10" as="geometry" />
        </mxCell>
        <mxCell id="045CiPY4S235guZHoBIP-76" value="DestReg" style="text;html=1;align=center;verticalAlign=middle;whiteSpace=wrap;rounded=0;strokeOpacity=100;snapToPoint=0;fontSize=13;" parent="1" vertex="1">
          <mxGeometry x="1891" y="776.25" width="53.25" height="16" as="geometry" />
        </mxCell>
        <mxCell id="045CiPY4S235guZHoBIP-77" value="ReadReg1" style="text;html=1;align=center;verticalAlign=middle;whiteSpace=wrap;rounded=0;strokeOpacity=100;snapToPoint=0;fontSize=13;" parent="1" vertex="1">
          <mxGeometry x="1888.5" y="690.5" width="64.25" height="14.5" as="geometry" />
        </mxCell>
        <mxCell id="045CiPY4S235guZHoBIP-78" value="ReadReg2" style="text;html=1;align=center;verticalAlign=middle;whiteSpace=wrap;rounded=0;strokeOpacity=100;snapToPoint=0;fontSize=13;" parent="1" vertex="1">
          <mxGeometry x="1888.5" y="725.5" width="69.25" height="14" as="geometry" />
        </mxCell>
        <mxCell id="045CiPY4S235guZHoBIP-79" value="&lt;font style=&quot;font-size: 13px;&quot;&gt;rs2&lt;/font&gt;" style="text;html=1;align=center;verticalAlign=middle;whiteSpace=wrap;rounded=0;strokeWidth=3;horizontal=1;fontSize=13;strokeOpacity=100;snapToPoint=0;" parent="1" vertex="1">
          <mxGeometry x="2087.25" y="811.75" width="35" height="15" as="geometry" />
        </mxCell>
        <mxCell id="045CiPY4S235guZHoBIP-80" style="edgeStyle=orthogonalEdgeStyle;rounded=0;orthogonalLoop=1;jettySize=auto;html=1;exitX=0;exitY=0.5;exitDx=0;exitDy=0;endArrow=none;endFill=0;fontSize=13;" parent="1" source="045CiPY4S235guZHoBIP-82" edge="1">
          <mxGeometry relative="1" as="geometry">
            <mxPoint x="1643" y="787" as="targetPoint" />
            <Array as="points">
              <mxPoint x="1644.75" y="1083" />
              <mxPoint x="1644.75" y="788" />
            </Array>
          </mxGeometry>
        </mxCell>
        <mxCell id="045CiPY4S235guZHoBIP-318" style="edgeStyle=orthogonalEdgeStyle;rounded=0;orthogonalLoop=1;jettySize=auto;html=1;exitX=1;exitY=0.5;exitDx=0;exitDy=0;entryX=0;entryY=0.25;entryDx=0;entryDy=0;" parent="1" source="045CiPY4S235guZHoBIP-82" target="045CiPY4S235guZHoBIP-85" edge="1">
          <mxGeometry relative="1" as="geometry" />
        </mxCell>
        <mxCell id="b0ziHpK24BVwUH53S_0q-44" style="edgeStyle=orthogonalEdgeStyle;rounded=0;orthogonalLoop=1;jettySize=auto;html=1;entryX=0;entryY=0.75;entryDx=0;entryDy=0;" parent="1" source="045CiPY4S235guZHoBIP-82" target="b0ziHpK24BVwUH53S_0q-40" edge="1">
          <mxGeometry relative="1" as="geometry">
            <Array as="points">
              <mxPoint x="1780" y="1083" />
              <mxPoint x="1780" y="1312" />
            </Array>
          </mxGeometry>
        </mxCell>
        <mxCell id="045CiPY4S235guZHoBIP-82" value="&lt;font style=&quot;font-size: 13px;&quot;&gt;Immed&lt;br style=&quot;font-size: 13px;&quot;&gt;gen&lt;br style=&quot;font-size: 13px;&quot;&gt;&lt;/font&gt;" style="whiteSpace=wrap;html=1;aspect=fixed;strokeOpacity=100;snapToPoint=0;fontSize=13;" parent="1" vertex="1">
          <mxGeometry x="1674.75" y="1038" width="90" height="90" as="geometry" />
        </mxCell>
        <mxCell id="045CiPY4S235guZHoBIP-83" value="Immediate" style="text;html=1;align=center;verticalAlign=middle;whiteSpace=wrap;rounded=0;strokeOpacity=100;snapToPoint=0;fontSize=13;" parent="1" vertex="1">
          <mxGeometry x="1766" y="1048" width="60" height="30" as="geometry" />
        </mxCell>
        <mxCell id="045CiPY4S235guZHoBIP-84" style="edgeStyle=orthogonalEdgeStyle;rounded=0;orthogonalLoop=1;jettySize=auto;html=1;exitX=1;exitY=0.5;exitDx=0;exitDy=0;entryX=0;entryY=0.5;entryDx=0;entryDy=0;endArrow=none;endFill=0;jumpStyle=arc;jumpSize=17;fontSize=13;" parent="1" source="b0ziHpK24BVwUH53S_0q-40" target="045CiPY4S235guZHoBIP-3" edge="1">
          <mxGeometry relative="1" as="geometry">
            <Array as="points">
              <mxPoint x="2036" y="1293" />
              <mxPoint x="2036" y="1373" />
              <mxPoint x="305" y="1373" />
              <mxPoint x="305" y="919" />
              <mxPoint x="555" y="919" />
            </Array>
          </mxGeometry>
        </mxCell>
        <mxCell id="b0ziHpK24BVwUH53S_0q-43" style="edgeStyle=orthogonalEdgeStyle;rounded=0;orthogonalLoop=1;jettySize=auto;html=1;entryX=0;entryY=0.25;entryDx=0;entryDy=0;" parent="1" source="045CiPY4S235guZHoBIP-85" target="b0ziHpK24BVwUH53S_0q-40" edge="1">
          <mxGeometry relative="1" as="geometry">
            <Array as="points">
              <mxPoint x="1932" y="1157" />
              <mxPoint x="1932" y="1275" />
            </Array>
          </mxGeometry>
        </mxCell>
        <mxCell id="045CiPY4S235guZHoBIP-85" value="" style="shape=image;verticalLabelPosition=bottom;labelBackgroundColor=#000000;verticalAlign=top;aspect=fixed;imageAspect=0;image=data:image/png,iVBORw0KGgoAAAANSUhEUgAAAPsAAAIrCAYAAAAp0++gAAAAAXNSR0IArs4c6QAAAARnQU1BAACxjwv8YQUAAAAJcEhZcwAAEnQAABJ0Ad5mH3gAADBjSURBVHhe7d0HfFXl+Qfwc2/2JHvvhIQRQggECCSACLIECigU96COWmcdbf1rbWutVStqBaqtE8UNiFAR2SCEmUACWZC9J9n75v88J+9NExKVkXHvOb/v53P/N+fcE+pf+d3nfd7znnM0HR0dEgAon5b/T1ZWVlB6enpoe3u7ibwXABRHDvtjjz0Wv2DBgrSEhIRJbW1tpvInAKAo8jC+rKysuKGhwT0pKUny8fGZZmtrW0lVXsuv1tZW7ahRo5LNzMxaxe8AgBGSw15aWlro5ubmKfZJTU1NUmpqqpSYmCjt27dPuueee+bSF0AFVX1teHh4AoIPYHzksBcXF+d7eHh4i3290OfS2bNnpRMnTkhTp05dZG1tzcHXtLS0aPkLgEcAU6ZMOWRhYdEsfgUADIwmLy/Pz9TUNJ7C3lXZfwqFW0pJSZFOnz4tHT58WH6/cOGC9Pzzz6+k6l9OoT9oaWnZJA4HAAOhefXVV3NWrVrlZ2dnJ3ZdnoqKCikjI0M6deqUtHfvXumOO+641cbGpry5uVlL7YBWp9Px6EEza9asnTQiaBC/BgCDjMOedffddwfY29uLXVcnOztbrvw85D9y5IhUXl4uVVVVdTz11FP3OTg4lM+ZM2c7Qg8w+Djs5++6666gYcOGiV39p7a2VsrMzJSSk5M74uPjpfPnz0t33nnngxT2svr6ernfX7Ro0RYa/teJXwGAAcJhz6AAhlDVFbsGTmFhoTzk5z6fw19aWirddtttv7WwsCjjIT9P9PGQ/4YbbviSRho14tcAoB9w2NMp7MMHI+zdNTQ0SLm5uVJ6ero85OdTfRx++kLooL7/GWdn5zLq97W//OUvP6V/tgvi1wDgCnHYUylcYY6OjmLX0CgrK5P7/TNnzshVn0cBHH6q8n9etWrVaxT4KnEoAFwBDvvZ22+/faSTk5PYNfR4UU9eXp7c4/P5/aCgoOdNTExKY2NjP6YvpUpxGABcBpO5c+feHxER4WZtbS12DT1TU1OJhvFSSEiIFBMTI3l4eEzTarXzaMjfQWFPtLKyahSHAsAl0qxevTrp1ltvDedwGTpe7bdv376XNRpNMW3yZJ52zJgx73F/33kEAPwYDvupW265JcLFxUXsMh7t7e28kOf1tra2Ev2FO5MnT37b1dW1RBwCAAKHPeHmm2+OpICIXcaDK31zc7PU2Ngov7e2tkrnzp37F1V+DjtfrbfOzc2tqPNoAHXjsJ+46aaboigUYpdyHDhw4B2q9nLV5wU8ERERb3h6ehaIjwFUhcN+nMI+XolhZzqdTr54p6WlRUpISPiItuWqz+EfOXLkq15eXrmdRwIoG4f96MqVK6Pd3d3FLnXgIX98fPzn1AKU8kU7kZGRL/v6+maLjwEUR/Paa6/Fr1ixYpKHh4fYpR5c8Tn03POnpqZuouE+z+pr/f39/+bn55fZeRSAMnDYDy1fvjyGelmxC44dO7aVqr0cfA3x8fF5nr4AMjo/BTBOHPaDN95441TqXcUuuNiJEyd2NDU1lfN5fV6vT+H/Y1BQUKr4GMAocNj3U9jjEPafxqf5+MUTfklJSXup8ldQ0de6uLj8X3Bw8FlxGIDB4ltJ099hPCji51CwJa1WKy/lHTdu3IzJkycvmzRp0pK6urq3fvjhhy0ZGRnh4lAAg8Q9qQ5hv3IRERGxFPyFNMx/+/jx49vo9W16evpY8TGAwdC8/vrru5YsWTLT19dX7IKrlZKScryxsbGKh/n8srS0fHzEiBEnxccAQ4LD/j2FfRbCPnCo0p+m8FdT8JnWxMTkkVGjRh0THwMMCs0bb7yxY/HixbP9/PzELhhomZmZKRT+Wk5+TU2Ntry8XFtaWqotKCjQzps3774JEyYcEocC9BsO+/ZFixbN8ff3F7tgMPGiHl7Kq3/V19dn03tDfn6+1snJ6Z6oqKgD4lCAq8Jh/+/ChQvnBQQEiF0w1HjClINPFb+gqampITc3V3v69GntxIkT746JidkjDgO4LJp//vOf266//vr5CLth4uDrl/RStS+lVzPfo2/mzJl3xcXF7RSHAfwsk/nz568cPnx46FDfcBL6Rm29ZGJiIllYWEiWlpY2tra2wxwcHIZlZWVdv2/fvke///77J7Ra7Wlqw86LXwHoE1f2rynwi4KCgsQuMFRc5dvb2+UXX8TDq/lE5a+h91YKvTYvL0974sQJTXBw8E3Tp0/fJn4VQNK8+eabm+bOnfsL+sshdoEx4y8A7vdzcnKakpKSdAkJCdoZM2b8cvbs2V+LQ0ClOOxfzZkzZynfyRWUQT/Bx7fkFrfraqMvgY6ioiJ+2ObyadOmbeQLeqhF6OCX+DVQOPk/uPgZFIL7fO7x+fl9fG9BLy8vU19fX7Po6GiT8PDwL+Pj4zvefvvtth07diynLwVz+kKwaGxstKqvr7epra21oy8HM/FHgYJo1qxZ8zkN8W4cPny42AVKxjP7FGr5xTP8XP156M+P3k5NTe04deqUjtq6u6655potXP35/n00UtDY2dnV4rn7xo3D/umsWbNWhIaGil2gdpWVlfLz9/bs2cP36ZefzPPCCy/cN3/+/C0cfkdHxyo8dtv4aNauXbth5syZK8PCwsQuUDue6eeKz4/cvnDhAp/fl5++y8/hO3z4sPTAAw88eN11133j5ORUbmNjUy9+DQwch/0jCvvNCDv8HP4S4AdwJiQkSDt37pSioqIejYuLk6u9q6trKQ318ZhtA2Zy/fXXLwkICDDKJ8LA4OObd/Ck3+jRo/nnuQcPHnz4gw8+eKiurq6Kwl5BXwZupaWl7sXFxR7m5uatVlZW6PMNhGbdunUfTJ8+/baRI0eKXQCXjh+zzct3T548KT9jn4f8PPnHE4EPP/zwM9dee+1Wvjc/Dfnx9N0hZrJw4cLFfn5+Rvn4Jxh6fJrP1tZW8vb2lkaMGCFNmDBBio2Nla655hpe5jszMTHxvoKCgqaOjo46MzOzFkzsDR3Nv/71r3eo77pr1KhRYhdA/+FFPTyj//7770sTJ058nkaRW318fLK4xxeHwCDhyr7Q19dXkc96A8PAF/LwnFBLS8u03NzcVUVFRe2kiYb8ATk5OYFZWVmBXPX5XL74FRgAmrfeeuvtKVOm/Co8HDdHhYHBs/i8fJcX7/BSXj6lV1hYKPf4fCqP+/0FCxaspqr/X/pcXsTDt+emEUCe+COgH5gsWrRoAf1LnaC2Z73B4OFbcFPllszNzeVlvPp37vWdnZ0lvksSfSHEZGdn30aV/laq/rdUVFSYNTU1aWnfiIyMjBE0OmhxcHC4IP5IuAKaf//732upl7o/IiJC7AIYWFzhaRgvz9jrL9bh7b7wCICrP31hvBUWFraDfkdewjt69OiTVP3PicPgEnBln+ft7T0RlR0GC8/gcx/P1d7KykqiXl2yt7fv82VpaSnZ2NhwGzDh3LlzK9LT05enpaXdWFlZaVdVVWVNf1aLk5NThfij4SeYLF68eJ6Xl9dENT7FFQwfL+Lh0PPjyfhirTFjxkjjx4/nU33jiouLlyUnJw+j6m/LoaeWoFz8GvSBK/tcT09PVT6yGQwfjwC4unP151un8aw+rwmhai6PCqgNGHv+/Pml+fn5TuXl5fZU/aOoTeDg81N4oRvNO++8s3rcuHGP0EvsAjB83Pc3NDRINTU1Ul1dnXy5Ls/6s7Kyss9p6L+LjtHQPi2NAg6NGDHilPyhimnefffdVyMjIx9F2EFp+HQfX66bmJi4kTb30LaWw8+n96gl2B8REXG880h14LC/Mnbs2N9GRUWJXQDKwNWfZ/q56vMIgC/X5W3eT0P+raampvvr6+u1wcHBe6nYHRG/plia995776UxY8Y8wZMeAGrBC3uKi4sl6vH54p3ttra2B9vb2zX0RaDlV2trq4ZysXPy5MmKeSKP5v33339x9OjRT/EFDABqwef49RWfb8nF791X+YkRwB47O7vD9JnG09Pz+0mTJhn103g0H3zwwQujRo36PcIOasOhvvjVl6ysLL5N1376gjhCIwIt9frbjfFpPCb8bHYXF5c4vkQRQE14cQ+/eDkvv/g0X18vcadefvLp1Orq6ilpaWnB8fHxY5qamjoCAwON5kk8mg8//PAvYWFh/zdx4kSxCwC646E9n9bjoT4v3+U+ny/eoTYgnob3x3n5Lh2joZGBNjo6euvs2bO3il81KJr169f/afjw4c9SPyJ2AUBfuKfnc/rc4xcUFMgTfHyun9f161sA6vVP0hdDAh2jpVGAZtasWVsWL168Sf5wiHHYnwsJCfnj5MmTxS4A6AsHmoPNVZ6Dr5/Q0+PP+bZcR48elZKSkuQRAA3/TwcFBZ3mmX6+im/mzJmbli5d+oX4lUGl+eijj54NDg7+E8IOcHU47FVVVVJmZqYc+tLSUvkUH39B8Mw/76PKf9bW1vbMhQsXtAsXLvxq5cqVn4hfH3Cajz/++JnAwMA/x8TEiF0AcKW46usv2+XTexx0xqFPSUmRjh07Jt9/n78QnJ2d02hUncK9Ph0nn9ufP3/+FzfffPMH8i/1M82GDRue9vf3f37KlCliFwD0N67seXl58tN1+J2rPt+FV39GgPEXhKmpaaa5uXlGeHj458uXL39X/qCfaD755JPf+/r6vjB16lSxCwD6G/f2HGYOPff6XPX1/b4+8PyZflVfWlpadmVl5XnK5Wd33HHHv+UDr5Lm008/fcrHx+dFhB1gaPGXAff8fHqPH7fFoae2INfOzi6TJ/doyP8ZVfu14vDLpvnss8+e8PLyeonv9Q0AQ4crPff4XPm57+cXb/OLL+Kh4X9BTk5OdnJysjYqKuqTe++995/iVy8Jh/1xT0/Pl+Pi4sQuADAUPMPPLz6/z30+L91NTEzkS3eLLS0t83hijz7npl++dJdaAW1RUZEmJiZm/YMPPvj3zj+lk+bzzz9/zN3d/R/Tpk0TuwDAkHDYubrzMF9/ww7u73mfnr7v52N4+J+QkFBJI4Gy6Ojo9Y8++uhf5WO++OKLR9zc3FYj7ACGiwOvf+fhvn67Ow47T/zx+fxTp07J9+UvKyujDuBCeWRk5HqTFStWTLS2tp4XEBAgfgUADI2+cvPrxy7a0e/ne/bxPfoCAwP5+XuWzs7O25YuXfq8ln5Z19e3BAAYHw4833qbr2INCwuT+HZznp6eNXznXQ47ZR1hB1AKrv5c4fVP4aEvAC3vlyu7fAQAKBJl/H9hR2UHUDSEHUAl5MX3nHj07AAKhmE8gHp0hp1ggg5AwVDZAdSjM+z0Qs8OoGBdlZ2H8Qg7gKJ1zsbzMF7eBABFcnJyWvj++++/gZ4dQOHMzc1tm5ubPTjs6NkBlE+Lyg6gcJRx+Q09O4DCibCjsgOoAWUcYQdQuq7KjvPsAMomwi737Eg6gIJx2DGMB1APhB1A6cQwHmEHUDoR9s6eHWEHUDbKeOdsvNgGAAXCMB5AJbrCzpUdYQdQPPlJEejZARSsR2WX9wCAIomwd171hsoOoFwcdso4JugAVKJzGI+wAyhXV89OPyDpAAomwq5BZQdQuO6VHWEHUD6EHUDpMIwHUInuw3gkHUDBusKOyg6gCujZAZQOlR1AJUTYcXdZAJVAZQdQuq5hPHp2AGWrq6srXLx48XRUdgCFo3y3+/j45KJnB1A4ruj6d1R2AAXrCjt6dgBlo4yjsgOoAYW9a1UNwg6gYJRxE/kdE3QAyobKDqASHHL5nUKPsAMoGGUcE3QAakAZ7xzGc8+OsAMoV9cwniu7vAcAFAnDeACVMDMzs1yzZk0Kwg6gcJRxjYmJSRDCDqAOuLssgNJRxuW+HZUdQOE47ARhB1ADDrw8JU8o7wg8gJLpw45z7QAK1lXZqapjKA+gYN2H8Qg7gMKhZwdQAVR2AJXoEXbxDgAKhMoOoCLo2QFUoMepN3kPACgShvEAKoKwA6hA98qOnh1AwTCMB1CRrrCLdwBQIFR2AJVA2AFUAhN0ACqCnh1ABTCMB1AJhB1AJRB2ABXBBB2ACvSo7OIdABSoK+z0A4bxAAqGnh1ARdCzA6gAenYAlcAwHkBFEHYAFcBsPIBKdB/GI+kACodhPIAKYIIOQCUQdgCV6D5BR1lH2AGUrKuyi3cAUCAM4wFUovswHmEHULDulR09O4DCoWcHUAH07AAqgZ4dQEVQ2QFUoHtlxwQdgIL16NnFOwAoFIbxACqACToAleg+jEfPDqBwXZVd3gIAReoxQYfKDqBc6NkBVAI9O4BK9Kjs8h4AUCz07AAqgJ4dQCW69+wIO4DCoWcHUIHulR2z8QAKhp4dQEUQdgAV6D6MR88OoGDdh/Ho2QEUDsN4ABVoaGj4W9cwHmEHUC4zM7MqVHYAddAi7AAqQPnW6IfxSDqAsqGyA6gEwg6gEv8Lu7wJAEr1v54dlR1AuSwsLB7WV3aEHUDBKOyO6NkBVIAyjuWyAGqh79kxQQegYKjsACrRPeyYoANQOFR2ABXoMYyX9wCAIvUIOyo7gLKhZwdQAVR2AJVA2AFUoqKi4mM57AQTdADKVoueHUAFKOO4eQWASiDsAGrQVdmJrqamRuJXQ0OD1NLSIrW3t/MdLcTHAGDkOu9UU19fr1u/fr30wQcfSHv27JHS09OlyspKqa2tTT4KAIxeZ2W3sLCoSUtLy9iyZUva7t27i06ePCnl5uZKFy5c4C8Cqbm5WQ4+Kj2AceJhPE/Di81O27dvX7Rhw4a1/v7+3n5+fpKPj4/k5eUlubm5SY6OjpKlpaU4EgCMxaFDhz42ee6558Rmp5CQkDSq9OkU+IicnJymgoKCYfyFYGpqKgfd3NycvyVoTKBv9wHA0OXl5SX3quzdfffdd/NeeumldVTZ/cPDw6XQ0FApKChI8vX1lZycnMRRAGDoDh8+/Fmvyt4dVflznp6eKRT60RUVFU3nz5935P6dg+7g4CDP2Ot0nYvvuNrzCwAMT35+/tmfrOzd7dq1a/Zrr732V+rhHceOHRvClZ6H9jY2NpK7u7v8BcDbAGB44uPjv7zksOvt379/5tq1a/9FFX04V3eexIuLi5PGjRsn2draosIDGKD09PT6nxzG98Xf3z/LxcUladu2baE0tK/Lzs525erOQTczM5Mn8ExMTMTRAGAIamtrzS+7snd38ODBuNWrVz9vZ2fnZG1tHT5z5ky5yvOwHgAMBxVl6arCrnfo0KGpr7766l+ol3eeMWNGBA/teSjPp+rs7e1xbh5giOXk5PRP2PVOnDgRs2nTprX19fWRPJwfPny4NG3aNPmUHQAMHV4Re9k9+0/x8vLKpyF94scffxx14MABz6amJsnb21tefceLcDBbDzA0qqur+zfsjMJdMGrUqITU1FRfCwuLKvof8eb91NPLy20BYPDxFa39Ooy/WGJi4vjXX399jY2NzaT58+dL0dHRcoXn2Xr6IpBfWHYLMPDy8/MHNuzs1KlT4955553nqOK7ODk5TeHJumHDhknBwcFSQECAvCgHAAYWFd5DAx52veTk5LFc5XNzc6fy2nqeuIuNjZU8PT1xbh5ggCUkJOzu9579x7i5uZUEBgYe27VrV/jZs2f9+UuG19bzMJ77eSsrK3EkAPS3kpKS7EELO3N3dy+NjIw8ev78edfW1tbS+Pj4QL6QxsPDQx7a8w0y+AuAz9GjlwfoPxT23EEbxl8sJSVl5JNPPvkmBXzmL37xC/mcPAecl93yohw+XQcA/eP06dMHhizsLC0tbQT18c9YWlq6pKamXsdr6/l6+aVLl8rLbgGgfyQlJf0wqMP4i7m4uJQvWLBgI/XyR7/99tvh33//fUhtbS3vl4f1jY2N8rCe8QQerqYDuDKlpaX5Qxp2PWdn54rJkycfuXDhwjAnJ6eCY8eOhfLCfV71wyMPXnnHk3hYgQdwZcrKygqGdBjfl8zMzKCXX375DxTuDk9PTx2F35X6+SVjx46VL6oBgMt39uzZowYX9ovl5eUFHDhw4JVZs2Ytw6QdwJWhsB83+PNbvr6+2RERES/yJXoVFRXy02oA4PJomfjZoDk6OpacOnXqM6rwUlVVldgLAJdK0+1ZbwbN29s7b968eY9nZWV9cvToUbnC86w93+lWP1sPAD+Owi4/mF1sGr6ioiKvzZs3P+np6ens4OBwi7+/P8/kY+IO4GdkZGQkGVXY9YqLiz03bdr0oq2t7W0TJ06UH0/Fp+X4XLz+BQD/U1ZW1mKUYWclJSUeGzdufMzDw6PD3NycCrzz3Txbz7e35gU5CDzA//Bcl9GGvTv61nL7/vvvH7a0tHQOCwu7l6+T56vocDENQKfs7OxMRYRdr6KiwnXPnj3PUU//a773Hd/SGpfOAshhT1dU6aOhfNnMmTOfTU9Pf/PIkSPy8+UB4Eeez64E1J84bdu27UHq3x28vLwe4avp+PZXfIENZu5BjXJzc88rMux6VNkdd+zY8evW1laH+vr6x6dOnSqNHj1afAqgHnl5eVmKDrtedXX1sE8//fQPlpaWT8bExMgVnp86C6AWBQUFOaoIO6upqbHfunXrfRYWFvYeHh5Pc5UHUIvCwsI81YRdr7a21m737t332NnZ2QcEBDyr0Wgk+lk+N8+9PYASFRcXG9717IOFenjb77777rHU1NQ/8bXykydPlpfeAihRSUlJoWpXndjY2NTNmTPnH76+vg9R8P/AD76rq6uT73ALoDSKPfV2uRoaGqz37dt3Bw3jbSIjI1/iCTwAJSkvLy9F2LtpamqyOnDgwP2xsbH/4F6eX/oLbACMWWVlZTnCfhEKvOXBgwfva25uXs2TdrzO3sfHR3wKYJwo7BW4UuQilpaWTXFxcesaGxsf2rx5s5Seni4+ATBefFcqg7iVtKGhoXt7SEhIYkVFRUlCQsJ8vhsOj4B4qS2upANj1EIwjP8Jra2tZlu3br2JenaL2trat5YsWSLfvx7A2NTV1dUi7JeAQ799+/bbrKys/qMPOy+35ctoeUEOgKGrJwj7JWprazOlwN+6Zs2ad/kKugkTJkjLli2TH0gJYOgaCHr2S0S9ui44ODiJ3s+/8cYbS3jijq+X51th8WOn+aU/VQdgaOjvpikq+2WiUGu//PLLG6iP11HwTdetW7dhxYoVmnHjxsk3vuRnzQMYGrkYIexXjoP/zTffLKI+XpuVlfVlaGioJjAwkE/fybfDMjc3lywsLOSKDzCUEPZ+wv38kiVLGv39/U25svMz5kNCQuQqzy8OPcBQ4pwj7P2A/h1qduzYMZ+G9Rp6dbz33ntbIyIi5CvpoqKiJFtbW3EkwNBB2AcABb2DH0DJYX/llVfkO+MADDUsBxsA1L93nDt3TuI73DY2Noq9AEMLYR8Ara2t7XwjDFwxB4YEYR8YOr4RxvTp0+WZeQBDgLAPAKrqHbyy7oYbbkDYwWAg7AOgoaGh47rrrpPvUY/TbmAoEPYB8Nhjj+nuvfdeydHRET07GAycehsAubm5tb6+vrZYOQeGBJW9n8XHx3/h5eVliaCDoUFl7ydr1qx5LyoqyiU6OnquKS59AwOEsPeD1atX/yU2NvZhCrsdenQwVBjGXyWq6A8MGzbsplGjRlkj6GDIEPar8OGHH95ZUFBw1+zZs72srKzw7xIMGobxV2jdunX3t7e33zNz5syw0NBQS2rTMSMHBg1hv0zx8fGTv/rqq2W2traLb7/9dn8/Pz9zLW4vDUYAYb8MGzduXLply5alnp6es+666y6XoKAgatPRp4NxQNgv0UcffXTLnj17bpkxY0ZUXFyco6+vrymCDsYEYb9E//nPf/b4+/uPi42NtcNkHBgjhP1nrF+/np/h7jpy5MjFrq6udnzrKfERgFFB2H/C3r17/+7m5vbr4cOH25qZmYm9AMYJYe8Dhfyv1I+7R0ZG3mhnZ2cvdgMYNYS9m40bN/7J0dHRIyoqasUwfjg7gIIg7GTDhg3PUD/u4efnd1NwcLADrmMBJVJ92Ldv3/60k5PTbyMiIhxxCylQMtWGfcuWLU/Z2tp6hoaG3url5eWEVXCgdKoM+759+x53d3d/iobsLphlB7VQVdh37tz5qImJiRcN2W93dnZ2FbsBVEE1Yadq/lBQUNDT3t7ebhiygxopPuz79+//tU6n8x49evTdrq6u7mI3gOooNux79uy5l9445Kvc3Nw8O/cCqJeiwv7FF1/cST25j4ODgzY4OPgeX19fLwzZATopIuwbNmy4TaPR+LS0tNw/efJkH+rNJcyyA/Rk1GGnkN/U2trqk5eX98D06dP9JkyYIFlZWYlPAaA7ow37N998s/Lbb7994Zprrgmgl+Tk5CRhyA7w44wu7Js3b76xra3Np76+/kEasgdiyA5waYwq7Lt27Vp67Nixl2JjY4OjoqIka2tr8QkA/ByjCfsPP/zwiwsXLrwcExMTwk9HxbPUAC6PwYf94MGDC1tbW31dXFweHjFiRCiG7ABXxuDD/t133+2Mi4u7FkN2gKtjsGE/fvz4vMbGRl9vb+9HgoKCRordAHCFDDLsJ06cmOPg4PBqcHDwKLELAK6SQYX95MmTsxoaGnw9PDweCwkJCRe7AaAfGETYExMTZ9TX1/u6uro+HhoaGiF2A0A/GtKwnzp1ahqF3MfZ2fnxsLCwcWI3AAyAIQv76dOnY83MzF4bOXLkeLELAAbQoIc9OTk5pq6uztve3v7JUaNGRYvdADDABjXsZ86cmURvr48ePZrfAWAQDUrYU1JSJtTW1npbW1s/FR4eHiN2A8AgGtCwp6amjqOQe1laWv5+zJgxU8VuABgCAxb2tLS0sU1NTf8cO3ZsnNgFAEOo38OekZERXlNT42VqavoHCvp0sRsAhtgVhV2n02mbm5stCgsLvaqqqvg+7OYajYZvE8PXnT49bty4mfKBAGAwrijspaWlbqdPnx6/devWVa6urrOWLVtmr79jDK4zBzBMlxV26sEtqJI7x8fHz8zMzLwvLi5u/JgxYyysrKyQcAADd0lhb2lpMac+3P7cuXMjkpOTf+Hu7n7NpEmThlNVt6VKjqADGIGfDHtbW5sp9+bZ2dlBhw8fvo4qeAxV80gfHx9fyjj36eJIADB0fYad9mk46Pn5+b5UySfU19dP8vPzmxMWFhY6bNgwM1NTU3EkABiLXmHnmfbq6uphhYWFvhkZGXw7qDuio6NHOzo6mohDAMAI9Qh7a2urWUVFhcvJkyenV1VVrYyJiYmmiu5sYmKCITuAkesKO1d0noBLTU1dGRoaOjswMDDEzMzMgUJugqADGL+usFNFd6Me/baAgIC77O3tQyjguGczgIJ0PRyNevRwGxubRRT0MAQdQHm6wn727Nm4hoaGsRR0PB0RQIG6gt3Y2GhHfbuN2AQAhekKO0/Q0Qun1wAUqivsNHzvvboGABSje9h14kcAUKDuk3G6i1fTAYBy9KjsCDuAcvXo2RF2AOXqHvZ2hB1Aubr37Eg6gIKhZwdQCfTsACqByg6gEt17diyqAVAwDOMBVALDeACVQNgBVEIOO1/eiqADKJsc9rq6OtuWlhZ7BB5AueSwU8jlG08i7ADK1dWzE8o6wg6gVPqw843hEXYABeuq7FqtFkkHUDB9zy5voLIDKBeG8QAqoQ97BxbVACibHHbq13X0apP3AIAiyWG3t7evsbOzK0ZlB1Au/TAeV70BKFz3sKNnB1CwHmEXPwKAAqGyA6gEenYAlUBlB1AJhB1AJbrCzgtrxI8AoEBdYSfo2QEUrEdlR9gBlAs9O4BK9Ai7+BEAFKh72NGzAygYhvEAKoEJOgCVQM8OoBLo2QFUAj07gEqgZwdQCVR2AJXABB2ASmAYD6AS3Ss7ZR1hB1Aq9OwAKoGeHUAl0LMDqAR6dgCVQM8OoBI9hvHiRwBQIFR2AJVAzw6gEj2G8Qg7gHIh7AAq0aNnFz8CgAKhsgOoBCboAFQClR1AJXr07Ag7gHL1qOziRwBQIFR2AJXoXtkxQQegYKjsACqBnh1AJXqEHZUdQLm6D+PRswMoGCo7gEqgZwdQia6wEwzjARQMw3gAlUDYAVQCYQdQCUzQAahEV9hxnh1A2TCMB1AJhB1AJXoM48WPAKBAXWEXUN0BFAphB1CJHmGnoCPsAArVq7KLdwBQmIvDToUdlR1AidCzA6gEwg6gEgg7gEr0CDsFHRN0AAqFCToAlcAwHkAlEHYAleg1jBfvAKAwqOwAKoGwA6gEwg6gEr3CLt4BQGF6TdChsgMoE4bxACqBsAOoBHp2AJVAzw6gEhjGA6hEj7BrNBqEHUChUNkBVAITdAAqgQk6AJXAMB5AJRB2AJVAzw6gEj3Czo9tRmUHUCYM4wFUAmEHUAn07AAqcXHPjsoOoFAXV3ZM0AEoFHp2AJVAzw6gEujZAVQCPTuASqBnB1AJDOMBVKJH2C0sLApaW1vrxCYAKAhf+SJ+7HT06NHNEydOXCw2AUAhLu7ZeYYOp98AFKivsKNpB1CgXmEnqOwACoRhPIBK9FXZMYwHUCBUdgCVQM8OoBKo7AAqgZ4dQCVQ2QFUAj07gEqgsgOoBCo7gEpggg5AwZqbm6XU1FTpww8/7H2J6/79+9dOmzbtfrEJAEbmwoULcsAPHz4sbd++XUpLS5MaGhr6DPubFPYHxCYAGIGioiIpMTFROnDggHTw4EEpLy9Pqq2tlX7zm988f9NNN63XarW6vsL+BoX9QbEJAAaoqalJysnJkU6ePCnt3r1bSkhIkCoqKqQ77rjj78uWLfuYbzHHT2X29PQscnR0rOLf6RX2ffv2vTZ9+vSHxSYAGAgenqenp0vHjh2T9u7dKw/Pb7zxxlcXLFjwCX3cwQH39fXNc3FxKe/8jZ76CvtqCvsjYhMAhghns6SkREpOTpb77/j4eGnq1Klvzp49+1Mdoc87AgICsj08PIrFr/ykvsL+Dwr7Y2ITAAZRY2OjlJ+fL50+fZpbasnf3/8tCvjnbW1tcr6DgoLOeXt7F4jDL0tfYX+Zwv642ASAAVZdXS2dP39e7rtpKP7uyJEjv+Jw84vCnUaBzxGHXpW+wv53CvuTYhMA+hlVaKmsrExKSUmRysvLP6JKzeHuaG1t1QUGBp6l13lxaL/qK+wvUtifEpsA0A949rygoIAn1T5zcHDY3N7eruNw+/n5JYWEhKSJwwZUr7Dv3bv3hRkzZvxebALAFYqPj99IFfsb+pFi1iEPy6mKJ4aGhp7pPGJw9RX25ynsT4tNALhEVK35tNgWqtjbaFPn5uZ2PCwsLLHz06HXV9j/TGF/RmwCwE/g4TmvXsvIyNhmYWGxjQJ+dOTIkSfExwalr7D/icL+rNgEgIvwMtTc3Fx+fWdpafktBZ6H5/ERERHHxCEGqa+w/5HC/pzYBFA9Hp5XVlZK2dnZUnFx8U4rK6vv6uvrebXa4aioqMPiMIPXV9ifobD/WWwCqBIPz0tLS6XMzExec77X2tp6B1V0XrF2cOLEiQfFYUalr7D/H4X9L2ITQDXq6urk02Pnzp2Tl6hSNvbT8HxncHDwgSlTpuwVhxmtvsL+Bwr7X8UmgGLx8JwvLuHLQfkCE6rch+3t7XfTkF1XVVWli46OPnDttdfuEocbvb7C/jsK+9/EJoCi8J1bUlJSjldXVx/gxebce1OwO2jIrouIiNg7e/bs78ShitMr7Pv27Xtq+vTpL4pNAKOXlpaWWFJScoh+1LW0tHTY2NjsjImJ2dL5qXr0FfYnKOwviU0Ao0M9d3JxcfER+rvNf7l1ZmZmOyZPnvxV56fq1VfYf0thf0VsAhiFzMzMlKKiouP091mn1Wq3T5ky5VPxEQh9hf1RCvurYhPAIPHfWz49xleP0RA9jYbnz0+dOvUj8TH0AfeNB6PBs+f6a7+PHDmScfDgwc/37NnzKYX9BQT95/Wq7Pv3739o2rRpr4tNgCHV2toqB5wrON9gsbCwMJMqeoKHh8d/ly5d+q44DC5BX2H/DYX9n2ITYFDx30c+Pcbnv3kFW3FxcQ79nJSVldVx7tw53cSJE7f96le/+rc4HC5DX2H/NYV9jdgEGHA8POd7r1VVVfHS1PzKysoUquId6enpupCQkK133303/j72g77Cfh+FfZ3YBBgQbW1t8vJUCncxhTuDF7Vw5XZyctpy6623viYOg37UK+wHDhy4Jy4u7i2xCdAv+O9ZS0uLHHAalpeVl5efz87O5gcZbF6+fPnL4jAYQH2F/VcU9rfFJsAV4xsrcv9Nw/NKCngOBVyXkZHRYWZmtum22257QRwGg6RX2A8ePHh3bGzsf8QmwGWpqampplAX0d8rHfXhuvz8/A7at5GqN+6RMMT6CvudFHac0oCfVU+oYpfzBSUcbkZD869m4IalBqmvsN9OYX9fbAJ0aSJUpS/og52env7FdDw9yGj0WkHHT34UPwLwpFpLZWVlBSk7evToO25ubp7u7u7enp6evgi6ccFyWeihjdDovK62tpaKeE31kSNH3ndycnJxdnZ2mzZt2m/EYWCE+qrsCLsK8bCch+nx8fEf2djY2JFh9vb2DnFxcfeKQ8DIobKrHPXfHVzNDx8+vMHS0tIqNjb2TvERKAwqu4pRMe+gkH9mampqNnXq1FvFblCovio7JugUjBe57N69+0v6UaMlU6ZMWdn5CSgdKrsKHDly5Gtqx61aWlosTExMzGbMmLFCfAQqgrArEK+d4Ou/N23atLWhocE2MjJyBfXjTebm5i00ZG+jgo7/xiqECTqF4OF5Wlqa9Mknn3xbXV3tZGFh4TB37tzl1tbW9fRzszgMVKyvyo6e3UjwFWQ0RJfeffddfjSRu4uLi+vChQtXODg4VNnb21dbWVk1ikMBei+XPXbs2PXR0dH8AHkwMDqdTiovL5dOnDjB92HbdcMNN9zObRdV7iYOuDgMoE99hX0+hZ0fJg8GgIfnfO81+u/Cjynae/PNN9/FAacevIEqeZk4DOBn9Qr78ePH506YMOFbsQmDLCkp6QcK8v0caPHq4Hf6SEf9d527u3tx55EAl6dX2GmIeN348eMV+7wrQ3LmzJmjFOQHuwebAl3t6+ubKQ4B6De9wn7y5MnZUVFRO8QmDICzZ88ea29vf8TGxqYqKCgoRewGGFC9wp6QkHDtuHHjdopN6Cepqaknqf9+jCs4Ve+qkJCQZPERwKDoK+zXUNh3i024CnyLZBqqJ9L7bynglWFhYYniI4BBhxV0/YzvoMqPJ/r666+TEhMT55iZma3iL08EHYZar8p+6tSpaWPHjt0nNuES8AMOePUavc4EBgY+xdeGW1lZVdK/xyPiEIAh1yvsp0+fjo2IiDggNuEiWVlZaUVFRc/pZ9BpF786WltbuRcvHz9+/A/ygQAGplfYk5KSpowZMwZ/YbvJyck5l5+f/2f6kSt2aVRU1PednwAYj15hT05OnhweHn5YbKoaD8/py++8Vqt9aMKECf8VuwGMEi6E6YZnz/nS0Pj4eGnDhg1ZR48evZuG548g6KAEvSr72bNno0eNGnVUbCoeP/+7sLBQysjIkDIzM3OCg4Nf5CeZWFhYlMyePftrcRiA0esV9pSUlPEjR448LjYVh///5eE5X1xC4c63sbF5pampSVdfXy8H/Prrr+dbNgEoTq+wp6WljQsLCzspNhWBh+f8cP9z584VUtBfp2053KampiXz58//WBwGoGh9hX2sEhaA8PO/i4uLuXoXU7jfbG5u5lNkJXPnzsVz7ECVeoU9PT09IjQ09JTYNBr64XlBQYG8go1CXurr67uW9hctWrQIj6AG1esVdhrqhoeEhCSJTYPGd27h4Xl+fr48wZaQkMDPAi+LjIxcp9FoSlatWrVWHAqger3CTlVxVHBw8BmxaXC4/y4pKZEDTqMQ/uetoH/ed8rKynT8sH93d/eShx566A1xOAAIvcJOw98RhnSNNf/zNTU1yf13bm4uXyrKM+lVgYGB71Po5Rn0J5544mVxOAD8iF5hz8rKCqMgpYrNIcHD85qaGjng2dnZvIpN7sPz8vIuhIeHf2hvb1/69NNP/1UcDgCXoFfYKVzDAwIC0sXmoOHhOd85lQNOoa6hXV+UlpbqCgoKOgoLC3X8YAMeoj/77LO8Rh0ALlOvsNNQOdjPz++c2Bww/L/Ld04VAa9raGjYTOHuKCoq4nPgJb/73e+eEocCQD/oFXaqqoEDdcNDHp7zgw044HyKLCMjo97c3Pyb6urqkgceeOARcRgADIBeYc/Pz/f38fHJFptXTb96jQNOXyQ8g95gYmLybWZmZgdX8DfffPM34lAAGEC9wk79sZ+Xl1eO2Lxs/OfxrZlEwJtqamp20xeILicnp4OCzqvYSt9+++17Oo8GgMHSK+zUM/t4enrmic1Lwn8Ghbo5KyvrEN+SiX7uoHDrSkpKSp988kk85B/AAPQKe3FxsZeHh0eB2PxRzc3NLVSpj9Pv6/jCEvqSKJs/f/4N4mMAMDC9wl5aWurh5uZWJDZ7aGxsbKXqfYoDXldXVzZp0qTrxUcAYOB6hb2srMzd1dVVfp4Yf8ar1+rr63nNeRv183umT59+nXwgABgRSfp/bZBBJGKOBY8AAAAASUVORK5CYII=;labelBorderColor=#000000;imageBackground=#000000;fillStyle=solid;strokeOpacity=100;snapToPoint=0;fontSize=13;" parent="1" vertex="1">
          <mxGeometry x="1826" y="1107" width="45.23" height="100" as="geometry" />
        </mxCell>
        <mxCell id="045CiPY4S235guZHoBIP-86" value="ID_PFC" style="text;html=1;align=center;verticalAlign=middle;whiteSpace=wrap;rounded=0;fontSize=13;strokeOpacity=100;snapToPoint=0;" parent="1" vertex="1">
          <mxGeometry x="387" y="904" width="32.25" height="14" as="geometry" />
        </mxCell>
        <mxCell id="045CiPY4S235guZHoBIP-330" style="edgeStyle=orthogonalEdgeStyle;rounded=0;orthogonalLoop=1;jettySize=auto;html=1;exitX=1;exitY=0.5;exitDx=0;exitDy=0;entryX=0;entryY=0.5;entryDx=0;entryDy=0;" parent="1" target="045CiPY4S235guZHoBIP-115" edge="1">
          <mxGeometry relative="1" as="geometry">
            <mxPoint x="2497" y="782.125" as="sourcePoint" />
          </mxGeometry>
        </mxCell>
        <mxCell id="045CiPY4S235guZHoBIP-106" value="&lt;font style=&quot;font-size: 13px;&quot;&gt;Branch Resolver&lt;/font&gt;" style="rounded=0;whiteSpace=wrap;html=1;fontSize=13;" parent="1" vertex="1">
          <mxGeometry x="2379" y="760" width="118" height="69.75" as="geometry" />
        </mxCell>
        <mxCell id="045CiPY4S235guZHoBIP-108" style="edgeStyle=orthogonalEdgeStyle;rounded=0;orthogonalLoop=1;jettySize=auto;html=1;exitX=0.25;exitY=1;exitDx=0;exitDy=0;jumpStyle=arc;jumpSize=16;endArrow=none;endFill=0;fontSize=13;" parent="1" source="045CiPY4S235guZHoBIP-106" edge="1">
          <mxGeometry relative="1" as="geometry">
            <mxPoint x="1645" y="985" as="targetPoint" />
            <Array as="points">
              <mxPoint x="2407" y="830" />
              <mxPoint x="2407" y="988" />
              <mxPoint x="1664" y="988" />
              <mxPoint x="1664" y="987" />
              <mxPoint x="1645" y="987" />
            </Array>
            <mxPoint x="2407.25" y="915.5" as="sourcePoint" />
          </mxGeometry>
        </mxCell>
        <mxCell id="045CiPY4S235guZHoBIP-331" style="edgeStyle=orthogonalEdgeStyle;rounded=0;orthogonalLoop=1;jettySize=auto;html=1;entryX=0;entryY=0.5;entryDx=0;entryDy=0;" parent="1" source="045CiPY4S235guZHoBIP-114" edge="1">
          <mxGeometry relative="1" as="geometry">
            <mxPoint x="2378.53" y="766.8749999999999" as="targetPoint" />
          </mxGeometry>
        </mxCell>
        <mxCell id="045CiPY4S235guZHoBIP-114" value="exception flag" style="text;html=1;align=center;verticalAlign=middle;whiteSpace=wrap;rounded=0;strokeWidth=3;horizontal=1;fontSize=13;strokeOpacity=100;snapToPoint=0;" parent="1" vertex="1">
          <mxGeometry x="2247.53" y="759.38" width="100" height="15" as="geometry" />
        </mxCell>
        <mxCell id="045CiPY4S235guZHoBIP-115" value="pc_src" style="text;html=1;align=center;verticalAlign=middle;whiteSpace=wrap;rounded=0;strokeWidth=3;horizontal=1;fontSize=13;strokeOpacity=100;snapToPoint=0;" parent="1" vertex="1">
          <mxGeometry x="2527.75" y="775.25" width="40" height="15" as="geometry" />
        </mxCell>
        <mxCell id="b0ziHpK24BVwUH53S_0q-21" style="edgeStyle=orthogonalEdgeStyle;rounded=0;orthogonalLoop=1;jettySize=auto;html=1;entryX=0;entryY=0.5;entryDx=0;entryDy=0;" parent="1" source="045CiPY4S235guZHoBIP-116" target="b0ziHpK24BVwUH53S_0q-20" edge="1">
          <mxGeometry relative="1" as="geometry" />
        </mxCell>
        <mxCell id="045CiPY4S235guZHoBIP-116" value="Control unit" style="rounded=0;whiteSpace=wrap;html=1;fontSize=13;" parent="1" vertex="1">
          <mxGeometry x="2187.25" y="1128" width="80" height="87" as="geometry" />
        </mxCell>
        <mxCell id="045CiPY4S235guZHoBIP-117" style="edgeStyle=orthogonalEdgeStyle;rounded=0;orthogonalLoop=1;jettySize=auto;html=1;exitX=0;exitY=0.5;exitDx=0;exitDy=0;endArrow=none;endFill=0;jumpStyle=arc;jumpSize=18;fontSize=13;" parent="1" source="045CiPY4S235guZHoBIP-118" edge="1">
          <mxGeometry relative="1" as="geometry">
            <mxPoint x="2074.75" y="988" as="targetPoint" />
          </mxGeometry>
        </mxCell>
        <mxCell id="045CiPY4S235guZHoBIP-118" value="opcode" style="text;html=1;align=center;verticalAlign=middle;whiteSpace=wrap;rounded=0;strokeWidth=3;horizontal=1;fontSize=13;strokeOpacity=100;snapToPoint=0;" parent="1" vertex="1">
          <mxGeometry x="2112.25" y="1130.5" width="53.75" height="15" as="geometry" />
        </mxCell>
        <mxCell id="045CiPY4S235guZHoBIP-119" style="edgeStyle=orthogonalEdgeStyle;rounded=0;orthogonalLoop=1;jettySize=auto;html=1;exitX=0;exitY=0.5;exitDx=0;exitDy=0;endArrow=none;endFill=0;fontSize=13;" parent="1" source="045CiPY4S235guZHoBIP-120" edge="1">
          <mxGeometry relative="1" as="geometry">
            <mxPoint x="2074.75" y="1138" as="targetPoint" />
            <Array as="points">
              <mxPoint x="2075.75" y="1168" />
              <mxPoint x="2075.75" y="1138" />
            </Array>
          </mxGeometry>
        </mxCell>
        <mxCell id="045CiPY4S235guZHoBIP-120" value="func" style="text;html=1;align=center;verticalAlign=middle;whiteSpace=wrap;rounded=0;strokeWidth=3;horizontal=1;fontSize=13;strokeOpacity=100;snapToPoint=0;" parent="1" vertex="1">
          <mxGeometry x="2118.5" y="1160.5" width="41.25" height="15" as="geometry" />
        </mxCell>
        <mxCell id="045CiPY4S235guZHoBIP-121" style="edgeStyle=orthogonalEdgeStyle;rounded=0;orthogonalLoop=1;jettySize=auto;html=1;exitX=1;exitY=0.5;exitDx=0;exitDy=0;entryX=-0.003;entryY=0.089;entryDx=0;entryDy=0;entryPerimeter=0;endArrow=none;endFill=0;fontSize=13;" parent="1" source="045CiPY4S235guZHoBIP-118" target="045CiPY4S235guZHoBIP-116" edge="1">
          <mxGeometry relative="1" as="geometry" />
        </mxCell>
        <mxCell id="045CiPY4S235guZHoBIP-122" style="edgeStyle=orthogonalEdgeStyle;rounded=0;orthogonalLoop=1;jettySize=auto;html=1;exitX=1;exitY=0.5;exitDx=0;exitDy=0;entryX=-0.005;entryY=0.24;entryDx=0;entryDy=0;entryPerimeter=0;endArrow=none;endFill=0;fontSize=13;" parent="1" source="045CiPY4S235guZHoBIP-120" target="045CiPY4S235guZHoBIP-116" edge="1">
          <mxGeometry relative="1" as="geometry" />
        </mxCell>
        <mxCell id="045CiPY4S235guZHoBIP-134" style="edgeStyle=orthogonalEdgeStyle;rounded=0;orthogonalLoop=1;jettySize=auto;html=1;exitX=1;exitY=0.5;exitDx=0;exitDy=0;exitPerimeter=0;entryX=0.5;entryY=1;entryDx=0;entryDy=0;endArrow=none;endFill=0;fontSize=13;" parent="1" source="045CiPY4S235guZHoBIP-136" target="045CiPY4S235guZHoBIP-140" edge="1">
          <mxGeometry relative="1" as="geometry" />
        </mxCell>
        <mxCell id="045CiPY4S235guZHoBIP-135" style="edgeStyle=orthogonalEdgeStyle;rounded=0;orthogonalLoop=1;jettySize=auto;html=1;exitX=0.175;exitY=0.25;exitDx=0;exitDy=0;exitPerimeter=0;endArrow=none;endFill=0;fontSize=13;" parent="1" source="045CiPY4S235guZHoBIP-136" edge="1">
          <mxGeometry relative="1" as="geometry">
            <mxPoint x="2528.2500000000005" y="1270.7692307692305" as="targetPoint" />
          </mxGeometry>
        </mxCell>
        <mxCell id="045CiPY4S235guZHoBIP-136" value="" style="shape=xor;whiteSpace=wrap;html=1;fontSize=13;" parent="1" vertex="1">
          <mxGeometry x="2560.5" y="1250.5" width="60" height="80" as="geometry" />
        </mxCell>
        <mxCell id="045CiPY4S235guZHoBIP-137" value="ID_FLUSH" style="text;html=1;align=center;verticalAlign=middle;whiteSpace=wrap;rounded=0;fontSize=13;strokeOpacity=100;snapToPoint=0;" parent="1" vertex="1">
          <mxGeometry x="2695" y="1343" width="60" height="30" as="geometry" />
        </mxCell>
        <mxCell id="045CiPY4S235guZHoBIP-139" style="edgeStyle=orthogonalEdgeStyle;rounded=0;orthogonalLoop=1;jettySize=auto;html=1;exitX=0;exitY=0.75;exitDx=0;exitDy=0;endArrow=none;endFill=0;fontSize=13;" parent="1" source="045CiPY4S235guZHoBIP-140" edge="1">
          <mxGeometry relative="1" as="geometry">
            <mxPoint x="2644.75" y="1184.128205128205" as="targetPoint" />
          </mxGeometry>
        </mxCell>
        <mxCell id="045CiPY4S235guZHoBIP-140" value="&lt;span style=&quot;font-size: 13px;&quot;&gt;control mux&lt;/span&gt;" style="triangle;whiteSpace=wrap;html=1;strokeOpacity=100;snapToPoint=0;fontSize=13;" parent="1" vertex="1">
          <mxGeometry x="2674.75" y="1113" width="70" height="95" as="geometry" />
        </mxCell>
        <mxCell id="045CiPY4S235guZHoBIP-141" style="edgeStyle=orthogonalEdgeStyle;rounded=0;orthogonalLoop=1;jettySize=auto;html=1;exitX=1;exitY=0.5;exitDx=0;exitDy=0;entryX=-0.005;entryY=0.846;entryDx=0;entryDy=0;entryPerimeter=0;endArrow=none;endFill=0;fontSize=13;" parent="1" source="045CiPY4S235guZHoBIP-140" target="045CiPY4S235guZHoBIP-41" edge="1">
          <mxGeometry relative="1" as="geometry" />
        </mxCell>
        <mxCell id="045CiPY4S235guZHoBIP-142" style="edgeStyle=orthogonalEdgeStyle;rounded=0;orthogonalLoop=1;jettySize=auto;html=1;exitX=1;exitY=0.5;exitDx=0;exitDy=0;entryX=0;entryY=0.874;entryDx=0;entryDy=0;entryPerimeter=0;endArrow=none;endFill=0;fontSize=13;" parent="1" source="045CiPY4S235guZHoBIP-140" target="045CiPY4S235guZHoBIP-41" edge="1">
          <mxGeometry relative="1" as="geometry" />
        </mxCell>
        <mxCell id="045CiPY4S235guZHoBIP-143" style="edgeStyle=orthogonalEdgeStyle;rounded=0;orthogonalLoop=1;jettySize=auto;html=1;exitX=1;exitY=0.5;exitDx=0;exitDy=0;entryX=-0.01;entryY=0.901;entryDx=0;entryDy=0;entryPerimeter=0;endArrow=none;endFill=0;fontSize=13;" parent="1" source="045CiPY4S235guZHoBIP-140" target="045CiPY4S235guZHoBIP-41" edge="1">
          <mxGeometry relative="1" as="geometry" />
        </mxCell>
        <mxCell id="045CiPY4S235guZHoBIP-144" value="0" style="text;html=1;align=center;verticalAlign=middle;whiteSpace=wrap;rounded=0;fontSize=13;strokeOpacity=100;snapToPoint=0;" parent="1" vertex="1">
          <mxGeometry x="2624.75" y="1178" width="15" height="10" as="geometry" />
        </mxCell>
        <mxCell id="045CiPY4S235guZHoBIP-145" value="ID_EX_stall" style="text;html=1;align=center;verticalAlign=middle;whiteSpace=wrap;rounded=0;fontSize=13;strokeOpacity=100;snapToPoint=0;" parent="1" vertex="1">
          <mxGeometry x="2304.75" y="1493" width="60" height="30" as="geometry" />
        </mxCell>
        <mxCell id="045CiPY4S235guZHoBIP-146" style="edgeStyle=orthogonalEdgeStyle;rounded=0;orthogonalLoop=1;jettySize=auto;html=1;exitX=0;exitY=0.5;exitDx=0;exitDy=0;endArrow=none;endFill=0;jumpStyle=arc;jumpSize=16;fontSize=13;" parent="1" source="045CiPY4S235guZHoBIP-149" edge="1">
          <mxGeometry relative="1" as="geometry">
            <mxPoint x="2094.75" y="1138" as="targetPoint" />
            <Array as="points">
              <mxPoint x="2034.75" y="1528" />
              <mxPoint x="2034.75" y="1388" />
              <mxPoint x="2095.75" y="1388" />
              <mxPoint x="2095.75" y="1138" />
            </Array>
          </mxGeometry>
        </mxCell>
        <mxCell id="045CiPY4S235guZHoBIP-147" style="edgeStyle=orthogonalEdgeStyle;rounded=0;orthogonalLoop=1;jettySize=auto;html=1;exitX=1;exitY=0.75;exitDx=0;exitDy=0;entryX=0.999;entryY=0.879;entryDx=0;entryDy=0;entryPerimeter=0;endArrow=none;endFill=0;fontSize=13;" parent="1" source="045CiPY4S235guZHoBIP-149" target="045CiPY4S235guZHoBIP-41" edge="1">
          <mxGeometry relative="1" as="geometry">
            <Array as="points">
              <mxPoint x="2955" y="1563" />
              <mxPoint x="2955" y="1128" />
              <mxPoint x="2939" y="1128" />
            </Array>
          </mxGeometry>
        </mxCell>
        <mxCell id="045CiPY4S235guZHoBIP-148" style="edgeStyle=orthogonalEdgeStyle;rounded=0;orthogonalLoop=1;jettySize=auto;html=1;exitX=0.25;exitY=1;exitDx=0;exitDy=0;entryX=0;entryY=0.5;entryDx=0;entryDy=0;endArrow=none;endFill=0;jumpStyle=arc;jumpSize=18;fontSize=13;" parent="1" source="045CiPY4S235guZHoBIP-149" edge="1">
          <mxGeometry relative="1" as="geometry">
            <Array as="points">
              <mxPoint x="2091" y="1598" />
              <mxPoint x="2091" y="1698" />
              <mxPoint x="785" y="1698" />
              <mxPoint x="785" y="971" />
              <mxPoint x="805" y="971" />
            </Array>
            <mxPoint x="804.75" y="968.5" as="targetPoint" />
          </mxGeometry>
        </mxCell>
        <mxCell id="045CiPY4S235guZHoBIP-367" style="edgeStyle=orthogonalEdgeStyle;rounded=0;orthogonalLoop=1;jettySize=auto;html=1;exitX=0.75;exitY=1;exitDx=0;exitDy=0;entryX=0;entryY=0.75;entryDx=0;entryDy=0;jumpStyle=arc;jumpSize=18;" parent="1" source="045CiPY4S235guZHoBIP-149" target="045CiPY4S235guZHoBIP-19" edge="1">
          <mxGeometry relative="1" as="geometry">
            <Array as="points">
              <mxPoint x="2229" y="1749" />
              <mxPoint x="1382" y="1749" />
              <mxPoint x="1382" y="1046" />
            </Array>
          </mxGeometry>
        </mxCell>
        <mxCell id="045CiPY4S235guZHoBIP-149" value="&lt;font style=&quot;font-size: 13px;&quot;&gt;StallDetectionUnit&lt;/font&gt;" style="rounded=0;whiteSpace=wrap;html=1;strokeOpacity=100;snapToPoint=0;fontSize=13;" parent="1" vertex="1">
          <mxGeometry x="2069.75" y="1458" width="212.5" height="140" as="geometry" />
        </mxCell>
        <mxCell id="045CiPY4S235guZHoBIP-150" style="edgeStyle=orthogonalEdgeStyle;rounded=0;orthogonalLoop=1;jettySize=auto;html=1;exitX=1;exitY=0.5;exitDx=0;exitDy=0;entryX=0.175;entryY=0.25;entryDx=0;entryDy=0;entryPerimeter=0;endArrow=none;endFill=0;fontSize=13;" parent="1" source="045CiPY4S235guZHoBIP-149" target="045CiPY4S235guZHoBIP-136" edge="1">
          <mxGeometry relative="1" as="geometry">
            <Array as="points">
              <mxPoint x="2385" y="1528" />
              <mxPoint x="2385" y="1271" />
            </Array>
          </mxGeometry>
        </mxCell>
        <mxCell id="045CiPY4S235guZHoBIP-151" value="rs1_ind" style="text;html=1;align=center;verticalAlign=middle;whiteSpace=wrap;rounded=0;strokeOpacity=100;snapToPoint=0;fontSize=13;" parent="1" vertex="1">
          <mxGeometry x="1832.25" y="680.5" width="40" height="10" as="geometry" />
        </mxCell>
        <mxCell id="045CiPY4S235guZHoBIP-152" value="rs2_ind" style="text;html=1;align=center;verticalAlign=middle;whiteSpace=wrap;rounded=0;strokeOpacity=100;snapToPoint=0;fontSize=13;" parent="1" vertex="1">
          <mxGeometry x="1832.25" y="715.5" width="40" height="10" as="geometry" />
        </mxCell>
        <mxCell id="045CiPY4S235guZHoBIP-153" value="ID_rs1_ind" style="text;html=1;align=center;verticalAlign=middle;whiteSpace=wrap;rounded=0;strokeOpacity=100;snapToPoint=0;fontSize=13;" parent="1" vertex="1">
          <mxGeometry x="1932" y="1538" width="70.02" height="10" as="geometry" />
        </mxCell>
        <mxCell id="045CiPY4S235guZHoBIP-154" style="edgeStyle=orthogonalEdgeStyle;rounded=0;orthogonalLoop=1;jettySize=auto;html=1;exitX=1;exitY=0.5;exitDx=0;exitDy=0;entryX=0;entryY=0.75;entryDx=0;entryDy=0;endArrow=none;endFill=0;jumpStyle=arc;jumpSize=15;fontSize=13;" parent="1" source="045CiPY4S235guZHoBIP-155" target="045CiPY4S235guZHoBIP-149" edge="1">
          <mxGeometry relative="1" as="geometry" />
        </mxCell>
        <mxCell id="045CiPY4S235guZHoBIP-155" value="ID_rs2_ind" style="text;html=1;align=center;verticalAlign=middle;whiteSpace=wrap;rounded=0;strokeOpacity=100;snapToPoint=0;fontSize=13;" parent="1" vertex="1">
          <mxGeometry x="1934" y="1558" width="68.02" height="10" as="geometry" />
        </mxCell>
        <mxCell id="045CiPY4S235guZHoBIP-156" style="edgeStyle=orthogonalEdgeStyle;rounded=0;orthogonalLoop=1;jettySize=auto;html=1;exitX=1;exitY=0.5;exitDx=0;exitDy=0;entryX=0.004;entryY=0.605;entryDx=0;entryDy=0;entryPerimeter=0;endArrow=none;endFill=0;jumpStyle=arc;jumpSize=15;fontSize=13;" parent="1" source="045CiPY4S235guZHoBIP-153" target="045CiPY4S235guZHoBIP-149" edge="1">
          <mxGeometry relative="1" as="geometry" />
        </mxCell>
        <mxCell id="045CiPY4S235guZHoBIP-157" value="Inst" style="text;html=1;align=center;verticalAlign=middle;whiteSpace=wrap;rounded=0;strokeOpacity=100;snapToPoint=0;fontSize=13;" parent="1" vertex="1">
          <mxGeometry x="2839.25" y="695.5" width="45" height="20" as="geometry" />
        </mxCell>
        <mxCell id="045CiPY4S235guZHoBIP-158" style="edgeStyle=orthogonalEdgeStyle;rounded=0;orthogonalLoop=1;jettySize=auto;html=1;exitX=1;exitY=0.25;exitDx=0;exitDy=0;entryX=1;entryY=0.907;entryDx=0;entryDy=0;entryPerimeter=0;endArrow=none;endFill=0;jumpStyle=none;jumpSize=20;fontSize=13;" parent="1" source="045CiPY4S235guZHoBIP-41" target="045CiPY4S235guZHoBIP-149" edge="1">
          <mxGeometry relative="1" as="geometry">
            <Array as="points">
              <mxPoint x="2984.75" y="721" />
              <mxPoint x="2984.75" y="1588" />
              <mxPoint x="2281.75" y="1588" />
            </Array>
          </mxGeometry>
        </mxCell>
        <mxCell id="045CiPY4S235guZHoBIP-159" value="EX_DestReg_index" style="text;html=1;align=center;verticalAlign=middle;whiteSpace=wrap;rounded=0;fontSize=13;strokeOpacity=100;snapToPoint=0;" parent="1" vertex="1">
          <mxGeometry x="2297" y="1588" width="119.25" height="30" as="geometry" />
        </mxCell>
        <mxCell id="045CiPY4S235guZHoBIP-160" value="&lt;font style=&quot;font-size: 13px;&quot;&gt;IF_ID write&lt;/font&gt;" style="text;html=1;align=center;verticalAlign=middle;whiteSpace=wrap;rounded=0;fontSize=13;strokeOpacity=100;snapToPoint=0;" parent="1" vertex="1">
          <mxGeometry x="2139.88" y="1603" width="72.25" height="10" as="geometry" />
        </mxCell>
        <mxCell id="045CiPY4S235guZHoBIP-161" style="edgeStyle=orthogonalEdgeStyle;rounded=0;orthogonalLoop=1;jettySize=auto;html=1;exitX=0.5;exitY=1;exitDx=0;exitDy=0;entryX=-0.006;entryY=0.92;entryDx=0;entryDy=0;entryPerimeter=0;startArrow=none;startFill=0;strokeWidth=1;jumpStyle=arc;jumpSize=18;endArrow=none;endFill=0;fontSize=13;" parent="1" source="045CiPY4S235guZHoBIP-149" target="045CiPY4S235guZHoBIP-19" edge="1">
          <mxGeometry relative="1" as="geometry">
            <Array as="points">
              <mxPoint x="2141" y="1598" />
              <mxPoint x="2141" y="1658" />
              <mxPoint x="1255" y="1658" />
              <mxPoint x="1255" y="1156" />
            </Array>
          </mxGeometry>
        </mxCell>
        <mxCell id="045CiPY4S235guZHoBIP-162" style="edgeStyle=orthogonalEdgeStyle;rounded=0;orthogonalLoop=1;jettySize=auto;html=1;exitX=1;exitY=0.5;exitDx=0;exitDy=0;entryX=0;entryY=0.25;entryDx=0;entryDy=0;endArrow=none;endFill=0;fontSize=13;" parent="1" source="045CiPY4S235guZHoBIP-164" target="045CiPY4S235guZHoBIP-173" edge="1">
          <mxGeometry relative="1" as="geometry" />
        </mxCell>
        <mxCell id="045CiPY4S235guZHoBIP-163" style="edgeStyle=orthogonalEdgeStyle;rounded=0;orthogonalLoop=1;jettySize=auto;html=1;exitX=0.5;exitY=1;exitDx=0;exitDy=0;entryX=0.5;entryY=0;entryDx=0;entryDy=0;endArrow=none;endFill=0;fontSize=13;" parent="1" source="045CiPY4S235guZHoBIP-164" target="045CiPY4S235guZHoBIP-195" edge="1">
          <mxGeometry relative="1" as="geometry" />
        </mxCell>
        <mxCell id="iowaOyrM9Hpdpf-qPCg2-4" style="edgeStyle=orthogonalEdgeStyle;rounded=0;orthogonalLoop=1;jettySize=auto;html=1;exitX=1;exitY=0.5;exitDx=0;exitDy=0;entryX=0;entryY=0.25;entryDx=0;entryDy=0;jumpStyle=arc;jumpSize=18;endArrow=none;endFill=0;" parent="1" source="045CiPY4S235guZHoBIP-164" target="D5iflguW_ETY26olaIU6-4" edge="1">
          <mxGeometry relative="1" as="geometry">
            <Array as="points">
              <mxPoint x="3254" y="706" />
              <mxPoint x="3254" y="936" />
            </Array>
          </mxGeometry>
        </mxCell>
        <mxCell id="045CiPY4S235guZHoBIP-164" value="&lt;span style=&quot;font-size: 13px;&quot;&gt;ALU oper1&lt;/span&gt;" style="triangle;whiteSpace=wrap;html=1;strokeOpacity=100;snapToPoint=0;fontSize=13;" parent="1" vertex="1">
          <mxGeometry x="3144.75" y="645.5" width="72.5" height="120" as="geometry" />
        </mxCell>
        <mxCell id="045CiPY4S235guZHoBIP-165" style="edgeStyle=orthogonalEdgeStyle;rounded=0;orthogonalLoop=1;jettySize=auto;html=1;exitX=1;exitY=0.5;exitDx=0;exitDy=0;entryX=0;entryY=0.75;entryDx=0;entryDy=0;endArrow=none;endFill=0;fontSize=13;jumpStyle=arc;jumpSize=18;" parent="1" source="045CiPY4S235guZHoBIP-167" target="045CiPY4S235guZHoBIP-173" edge="1">
          <mxGeometry relative="1" as="geometry" />
        </mxCell>
        <mxCell id="045CiPY4S235guZHoBIP-166" style="edgeStyle=orthogonalEdgeStyle;rounded=0;orthogonalLoop=1;jettySize=auto;html=1;exitX=0.5;exitY=1;exitDx=0;exitDy=0;entryX=0.5;entryY=0;entryDx=0;entryDy=0;endArrow=none;endFill=0;fontSize=13;" parent="1" source="045CiPY4S235guZHoBIP-167" target="045CiPY4S235guZHoBIP-194" edge="1">
          <mxGeometry relative="1" as="geometry" />
        </mxCell>
        <mxCell id="iowaOyrM9Hpdpf-qPCg2-5" style="edgeStyle=orthogonalEdgeStyle;rounded=0;orthogonalLoop=1;jettySize=auto;html=1;exitX=1;exitY=0.5;exitDx=0;exitDy=0;entryX=0;entryY=0.75;entryDx=0;entryDy=0;jumpStyle=arc;jumpSize=18;endArrow=none;endFill=0;" parent="1" source="045CiPY4S235guZHoBIP-167" target="D5iflguW_ETY26olaIU6-4" edge="1">
          <mxGeometry relative="1" as="geometry" />
        </mxCell>
        <mxCell id="045CiPY4S235guZHoBIP-167" value="&lt;span style=&quot;font-size: 13px;&quot;&gt;ALUoper2&lt;/span&gt;" style="triangle;whiteSpace=wrap;html=1;strokeOpacity=100;snapToPoint=0;fontSize=13;" parent="1" vertex="1">
          <mxGeometry x="3144.75" y="798" width="72.5" height="120" as="geometry" />
        </mxCell>
        <mxCell id="045CiPY4S235guZHoBIP-168" style="edgeStyle=orthogonalEdgeStyle;rounded=0;orthogonalLoop=1;jettySize=auto;html=1;exitX=0;exitY=0.25;exitDx=0;exitDy=0;entryX=0;entryY=0.75;entryDx=0;entryDy=0;endArrow=none;endFill=0;fontSize=13;" parent="1" source="045CiPY4S235guZHoBIP-170" target="045CiPY4S235guZHoBIP-167" edge="1">
          <mxGeometry relative="1" as="geometry">
            <Array as="points">
              <mxPoint x="3144.75" y="968" />
              <mxPoint x="3064.75" y="968" />
              <mxPoint x="3064.75" y="888" />
            </Array>
          </mxGeometry>
        </mxCell>
        <mxCell id="045CiPY4S235guZHoBIP-169" style="edgeStyle=orthogonalEdgeStyle;rounded=0;orthogonalLoop=1;jettySize=auto;html=1;exitX=0.5;exitY=1;exitDx=0;exitDy=0;entryX=0.5;entryY=0;entryDx=0;entryDy=0;endArrow=none;endFill=0;fontSize=13;" parent="1" source="045CiPY4S235guZHoBIP-170" target="045CiPY4S235guZHoBIP-200" edge="1">
          <mxGeometry relative="1" as="geometry" />
        </mxCell>
        <mxCell id="045CiPY4S235guZHoBIP-170" value="&lt;font style=&quot;font-size: 9px;&quot;&gt;Forward Store&lt;/font&gt;&lt;div&gt;&lt;font style=&quot;font-size: 9px;&quot;&gt;Mux&lt;/font&gt;&lt;/div&gt;" style="triangle;whiteSpace=wrap;html=1;strokeOpacity=100;snapToPoint=0;fontSize=13;" parent="1" vertex="1">
          <mxGeometry x="3144.75" y="941" width="83.25" height="97" as="geometry" />
        </mxCell>
        <mxCell id="045CiPY4S235guZHoBIP-171" style="edgeStyle=orthogonalEdgeStyle;rounded=0;orthogonalLoop=1;jettySize=auto;html=1;exitX=1;exitY=0.5;exitDx=0;exitDy=0;entryX=-0.006;entryY=0.362;entryDx=0;entryDy=0;entryPerimeter=0;endArrow=none;endFill=0;fontSize=13;" parent="1" source="045CiPY4S235guZHoBIP-173" target="045CiPY4S235guZHoBIP-49" edge="1">
          <mxGeometry relative="1" as="geometry">
            <mxPoint x="3464.75" y="793" as="targetPoint" />
          </mxGeometry>
        </mxCell>
        <mxCell id="045CiPY4S235guZHoBIP-173" value="" style="shape=image;verticalLabelPosition=bottom;labelBackgroundColor=#000000;verticalAlign=top;aspect=fixed;imageAspect=0;image=data:image/png,iVBORw0KGgoAAAANSUhEUgAAAPsAAAIrCAYAAAAp0++gAAAAAXNSR0IArs4c6QAAAARnQU1BAACxjwv8YQUAAAAJcEhZcwAAEnQAABJ0Ad5mH3gAADBjSURBVHhe7d0HfFXl+Qfwc2/2JHvvhIQRQggECCSACLIECigU96COWmcdbf1rbWutVStqBaqtE8UNiFAR2SCEmUACWZC9J9n75v88J+9NExKVkXHvOb/v53P/N+fcE+pf+d3nfd7znnM0HR0dEgAon5b/T1ZWVlB6enpoe3u7ibwXABRHDvtjjz0Wv2DBgrSEhIRJbW1tpvInAKAo8jC+rKysuKGhwT0pKUny8fGZZmtrW0lVXsuv1tZW7ahRo5LNzMxaxe8AgBGSw15aWlro5ubmKfZJTU1NUmpqqpSYmCjt27dPuueee+bSF0AFVX1teHh4AoIPYHzksBcXF+d7eHh4i3290OfS2bNnpRMnTkhTp05dZG1tzcHXtLS0aPkLgEcAU6ZMOWRhYdEsfgUADIwmLy/Pz9TUNJ7C3lXZfwqFW0pJSZFOnz4tHT58WH6/cOGC9Pzzz6+k6l9OoT9oaWnZJA4HAAOhefXVV3NWrVrlZ2dnJ3ZdnoqKCikjI0M6deqUtHfvXumOO+641cbGpry5uVlL7YBWp9Px6EEza9asnTQiaBC/BgCDjMOedffddwfY29uLXVcnOztbrvw85D9y5IhUXl4uVVVVdTz11FP3OTg4lM+ZM2c7Qg8w+Djs5++6666gYcOGiV39p7a2VsrMzJSSk5M74uPjpfPnz0t33nnngxT2svr6ernfX7Ro0RYa/teJXwGAAcJhz6AAhlDVFbsGTmFhoTzk5z6fw19aWirddtttv7WwsCjjIT9P9PGQ/4YbbviSRho14tcAoB9w2NMp7MMHI+zdNTQ0SLm5uVJ6ero85OdTfRx++kLooL7/GWdn5zLq97W//OUvP6V/tgvi1wDgCnHYUylcYY6OjmLX0CgrK5P7/TNnzshVn0cBHH6q8n9etWrVaxT4KnEoAFwBDvvZ22+/faSTk5PYNfR4UU9eXp7c4/P5/aCgoOdNTExKY2NjP6YvpUpxGABcBpO5c+feHxER4WZtbS12DT1TU1OJhvFSSEiIFBMTI3l4eEzTarXzaMjfQWFPtLKyahSHAsAl0qxevTrp1ltvDedwGTpe7bdv376XNRpNMW3yZJ52zJgx73F/33kEAPwYDvupW265JcLFxUXsMh7t7e28kOf1tra2Ev2FO5MnT37b1dW1RBwCAAKHPeHmm2+OpICIXcaDK31zc7PU2Ngov7e2tkrnzp37F1V+DjtfrbfOzc2tqPNoAHXjsJ+46aaboigUYpdyHDhw4B2q9nLV5wU8ERERb3h6ehaIjwFUhcN+nMI+XolhZzqdTr54p6WlRUpISPiItuWqz+EfOXLkq15eXrmdRwIoG4f96MqVK6Pd3d3FLnXgIX98fPzn1AKU8kU7kZGRL/v6+maLjwEUR/Paa6/Fr1ixYpKHh4fYpR5c8Tn03POnpqZuouE+z+pr/f39/+bn55fZeRSAMnDYDy1fvjyGelmxC44dO7aVqr0cfA3x8fF5nr4AMjo/BTBOHPaDN95441TqXcUuuNiJEyd2NDU1lfN5fV6vT+H/Y1BQUKr4GMAocNj3U9jjEPafxqf5+MUTfklJSXup8ldQ0de6uLj8X3Bw8FlxGIDB4ltJ099hPCji51CwJa1WKy/lHTdu3IzJkycvmzRp0pK6urq3fvjhhy0ZGRnh4lAAg8Q9qQ5hv3IRERGxFPyFNMx/+/jx49vo9W16evpY8TGAwdC8/vrru5YsWTLT19dX7IKrlZKScryxsbGKh/n8srS0fHzEiBEnxccAQ4LD/j2FfRbCPnCo0p+m8FdT8JnWxMTkkVGjRh0THwMMCs0bb7yxY/HixbP9/PzELhhomZmZKRT+Wk5+TU2Ntry8XFtaWqotKCjQzps3774JEyYcEocC9BsO+/ZFixbN8ff3F7tgMPGiHl7Kq3/V19dn03tDfn6+1snJ6Z6oqKgD4lCAq8Jh/+/ChQvnBQQEiF0w1HjClINPFb+gqampITc3V3v69GntxIkT746JidkjDgO4LJp//vOf266//vr5CLth4uDrl/RStS+lVzPfo2/mzJl3xcXF7RSHAfwsk/nz568cPnx46FDfcBL6Rm29ZGJiIllYWEiWlpY2tra2wxwcHIZlZWVdv2/fvke///77J7Ra7Wlqw86LXwHoE1f2rynwi4KCgsQuMFRc5dvb2+UXX8TDq/lE5a+h91YKvTYvL0974sQJTXBw8E3Tp0/fJn4VQNK8+eabm+bOnfsL+sshdoEx4y8A7vdzcnKakpKSdAkJCdoZM2b8cvbs2V+LQ0ClOOxfzZkzZynfyRWUQT/Bx7fkFrfraqMvgY6ioiJ+2ObyadOmbeQLeqhF6OCX+DVQOPk/uPgZFIL7fO7x+fl9fG9BLy8vU19fX7Po6GiT8PDwL+Pj4zvefvvtth07diynLwVz+kKwaGxstKqvr7epra21oy8HM/FHgYJo1qxZ8zkN8W4cPny42AVKxjP7FGr5xTP8XP156M+P3k5NTe04deqUjtq6u6655potXP35/n00UtDY2dnV4rn7xo3D/umsWbNWhIaGil2gdpWVlfLz9/bs2cP36ZefzPPCCy/cN3/+/C0cfkdHxyo8dtv4aNauXbth5syZK8PCwsQuUDue6eeKz4/cvnDhAp/fl5++y8/hO3z4sPTAAw88eN11133j5ORUbmNjUy9+DQwch/0jCvvNCDv8HP4S4AdwJiQkSDt37pSioqIejYuLk6u9q6trKQ318ZhtA2Zy/fXXLwkICDDKJ8LA4OObd/Ck3+jRo/nnuQcPHnz4gw8+eKiurq6Kwl5BXwZupaWl7sXFxR7m5uatVlZW6PMNhGbdunUfTJ8+/baRI0eKXQCXjh+zzct3T548KT9jn4f8PPnHE4EPP/zwM9dee+1Wvjc/Dfnx9N0hZrJw4cLFfn5+Rvn4Jxh6fJrP1tZW8vb2lkaMGCFNmDBBio2Nla655hpe5jszMTHxvoKCgqaOjo46MzOzFkzsDR3Nv/71r3eo77pr1KhRYhdA/+FFPTyj//7770sTJ058nkaRW318fLK4xxeHwCDhyr7Q19dXkc96A8PAF/LwnFBLS8u03NzcVUVFRe2kiYb8ATk5OYFZWVmBXPX5XL74FRgAmrfeeuvtKVOm/Co8HDdHhYHBs/i8fJcX7/BSXj6lV1hYKPf4fCqP+/0FCxaspqr/X/pcXsTDt+emEUCe+COgH5gsWrRoAf1LnaC2Z73B4OFbcFPllszNzeVlvPp37vWdnZ0lvksSfSHEZGdn30aV/laq/rdUVFSYNTU1aWnfiIyMjBE0OmhxcHC4IP5IuAKaf//732upl7o/IiJC7AIYWFzhaRgvz9jrL9bh7b7wCICrP31hvBUWFraDfkdewjt69OiTVP3PicPgEnBln+ft7T0RlR0GC8/gcx/P1d7KykqiXl2yt7fv82VpaSnZ2NhwGzDh3LlzK9LT05enpaXdWFlZaVdVVWVNf1aLk5NThfij4SeYLF68eJ6Xl9dENT7FFQwfL+Lh0PPjyfhirTFjxkjjx4/nU33jiouLlyUnJw+j6m/LoaeWoFz8GvSBK/tcT09PVT6yGQwfjwC4unP151un8aw+rwmhai6PCqgNGHv+/Pml+fn5TuXl5fZU/aOoTeDg81N4oRvNO++8s3rcuHGP0EvsAjB83Pc3NDRINTU1Ul1dnXy5Ls/6s7Kyss9p6L+LjtHQPi2NAg6NGDHilPyhimnefffdVyMjIx9F2EFp+HQfX66bmJi4kTb30LaWw8+n96gl2B8REXG880h14LC/Mnbs2N9GRUWJXQDKwNWfZ/q56vMIgC/X5W3eT0P+raampvvr6+u1wcHBe6nYHRG/plia995776UxY8Y8wZMeAGrBC3uKi4sl6vH54p3ttra2B9vb2zX0RaDlV2trq4ZysXPy5MmKeSKP5v33339x9OjRT/EFDABqwef49RWfb8nF791X+YkRwB47O7vD9JnG09Pz+0mTJhn103g0H3zwwQujRo36PcIOasOhvvjVl6ysLL5N1376gjhCIwIt9frbjfFpPCb8bHYXF5c4vkQRQE14cQ+/eDkvv/g0X18vcadefvLp1Orq6ilpaWnB8fHxY5qamjoCAwON5kk8mg8//PAvYWFh/zdx4kSxCwC646E9n9bjoT4v3+U+ny/eoTYgnob3x3n5Lh2joZGBNjo6euvs2bO3il81KJr169f/afjw4c9SPyJ2AUBfuKfnc/rc4xcUFMgTfHyun9f161sA6vVP0hdDAh2jpVGAZtasWVsWL168Sf5wiHHYnwsJCfnj5MmTxS4A6AsHmoPNVZ6Dr5/Q0+PP+bZcR48elZKSkuQRAA3/TwcFBZ3mmX6+im/mzJmbli5d+oX4lUGl+eijj54NDg7+E8IOcHU47FVVVVJmZqYc+tLSUvkUH39B8Mw/76PKf9bW1vbMhQsXtAsXLvxq5cqVn4hfH3Cajz/++JnAwMA/x8TEiF0AcKW46usv2+XTexx0xqFPSUmRjh07Jt9/n78QnJ2d02hUncK9Ph0nn9ufP3/+FzfffPMH8i/1M82GDRue9vf3f37KlCliFwD0N67seXl58tN1+J2rPt+FV39GgPEXhKmpaaa5uXlGeHj458uXL39X/qCfaD755JPf+/r6vjB16lSxCwD6G/f2HGYOPff6XPX1/b4+8PyZflVfWlpadmVl5XnK5Wd33HHHv+UDr5Lm008/fcrHx+dFhB1gaPGXAff8fHqPH7fFoae2INfOzi6TJ/doyP8ZVfu14vDLpvnss8+e8PLyeonv9Q0AQ4crPff4XPm57+cXb/OLL+Kh4X9BTk5OdnJysjYqKuqTe++995/iVy8Jh/1xT0/Pl+Pi4sQuADAUPMPPLz6/z30+L91NTEzkS3eLLS0t83hijz7npl++dJdaAW1RUZEmJiZm/YMPPvj3zj+lk+bzzz9/zN3d/R/Tpk0TuwDAkHDYubrzMF9/ww7u73mfnr7v52N4+J+QkFBJI4Gy6Ojo9Y8++uhf5WO++OKLR9zc3FYj7ACGiwOvf+fhvn67Ow47T/zx+fxTp07J9+UvKyujDuBCeWRk5HqTFStWTLS2tp4XEBAgfgUADI2+cvPrxy7a0e/ne/bxPfoCAwP5+XuWzs7O25YuXfq8ln5Z19e3BAAYHw4833qbr2INCwuT+HZznp6eNXznXQ47ZR1hB1AKrv5c4fVP4aEvAC3vlyu7fAQAKBJl/H9hR2UHUDSEHUAl5MX3nHj07AAKhmE8gHp0hp1ggg5AwVDZAdSjM+z0Qs8OoGBdlZ2H8Qg7gKJ1zsbzMF7eBABFcnJyWvj++++/gZ4dQOHMzc1tm5ubPTjs6NkBlE+Lyg6gcJRx+Q09O4DCibCjsgOoAWUcYQdQuq7KjvPsAMomwi737Eg6gIJx2DGMB1APhB1A6cQwHmEHUDoR9s6eHWEHUDbKeOdsvNgGAAXCMB5AJbrCzpUdYQdQPPlJEejZARSsR2WX9wCAIomwd171hsoOoFwcdso4JugAVKJzGI+wAyhXV89OPyDpAAomwq5BZQdQuO6VHWEHUD6EHUDpMIwHUInuw3gkHUDBusKOyg6gCujZAZQOlR1AJUTYcXdZAJVAZQdQuq5hPHp2AGWrq6srXLx48XRUdgCFo3y3+/j45KJnB1A4ruj6d1R2AAXrCjt6dgBlo4yjsgOoAYW9a1UNwg6gYJRxE/kdE3QAyobKDqASHHL5nUKPsAMoGGUcE3QAakAZ7xzGc8+OsAMoV9cwniu7vAcAFAnDeACVMDMzs1yzZk0Kwg6gcJRxjYmJSRDCDqAOuLssgNJRxuW+HZUdQOE47ARhB1ADDrw8JU8o7wg8gJLpw45z7QAK1lXZqapjKA+gYN2H8Qg7gMKhZwdQAVR2AJXoEXbxDgAKhMoOoCLo2QFUoMepN3kPACgShvEAKoKwA6hA98qOnh1AwTCMB1CRrrCLdwBQIFR2AJVA2AFUAhN0ACqCnh1ABTCMB1AJhB1AJRB2ABXBBB2ACvSo7OIdABSoK+z0A4bxAAqGnh1ARdCzA6gAenYAlcAwHkBFEHYAFcBsPIBKdB/GI+kACodhPIAKYIIOQCUQdgCV6D5BR1lH2AGUrKuyi3cAUCAM4wFUovswHmEHULDulR09O4DCoWcHUAH07AAqgZ4dQEVQ2QFUoHtlxwQdgIL16NnFOwAoFIbxACqACToAleg+jEfPDqBwXZVd3gIAReoxQYfKDqBc6NkBVAI9O4BK9Kjs8h4AUCz07AAqgJ4dQCW69+wIO4DCoWcHUIHulR2z8QAKhp4dQEUQdgAV6D6MR88OoGDdh/Ho2QEUDsN4ABVoaGj4W9cwHmEHUC4zM7MqVHYAddAi7AAqQPnW6IfxSDqAsqGyA6gEwg6gEv8Lu7wJAEr1v54dlR1AuSwsLB7WV3aEHUDBKOyO6NkBVIAyjuWyAGqh79kxQQegYKjsACrRPeyYoANQOFR2ABXoMYyX9wCAIvUIOyo7gLKhZwdQAVR2AJVA2AFUoqKi4mM57AQTdADKVoueHUAFKOO4eQWASiDsAGrQVdmJrqamRuJXQ0OD1NLSIrW3t/MdLcTHAGDkOu9UU19fr1u/fr30wQcfSHv27JHS09OlyspKqa2tTT4KAIxeZ2W3sLCoSUtLy9iyZUva7t27i06ePCnl5uZKFy5c4C8Cqbm5WQ4+Kj2AceJhPE/Di81O27dvX7Rhw4a1/v7+3n5+fpKPj4/k5eUlubm5SY6OjpKlpaU4EgCMxaFDhz42ee6558Rmp5CQkDSq9OkU+IicnJymgoKCYfyFYGpqKgfd3NycvyVoTKBv9wHA0OXl5SX3quzdfffdd/NeeumldVTZ/cPDw6XQ0FApKChI8vX1lZycnMRRAGDoDh8+/Fmvyt4dVflznp6eKRT60RUVFU3nz5935P6dg+7g4CDP2Ot0nYvvuNrzCwAMT35+/tmfrOzd7dq1a/Zrr732V+rhHceOHRvClZ6H9jY2NpK7u7v8BcDbAGB44uPjv7zksOvt379/5tq1a/9FFX04V3eexIuLi5PGjRsn2draosIDGKD09PT6nxzG98Xf3z/LxcUladu2baE0tK/Lzs525erOQTczM5Mn8ExMTMTRAGAIamtrzS+7snd38ODBuNWrVz9vZ2fnZG1tHT5z5ky5yvOwHgAMBxVl6arCrnfo0KGpr7766l+ol3eeMWNGBA/teSjPp+rs7e1xbh5giOXk5PRP2PVOnDgRs2nTprX19fWRPJwfPny4NG3aNPmUHQAMHV4Re9k9+0/x8vLKpyF94scffxx14MABz6amJsnb21tefceLcDBbDzA0qqur+zfsjMJdMGrUqITU1FRfCwuLKvof8eb91NPLy20BYPDxFa39Ooy/WGJi4vjXX399jY2NzaT58+dL0dHRcoXn2Xr6IpBfWHYLMPDy8/MHNuzs1KlT4955553nqOK7ODk5TeHJumHDhknBwcFSQECAvCgHAAYWFd5DAx52veTk5LFc5XNzc6fy2nqeuIuNjZU8PT1xbh5ggCUkJOzu9579x7i5uZUEBgYe27VrV/jZs2f9+UuG19bzMJ77eSsrK3EkAPS3kpKS7EELO3N3dy+NjIw8ev78edfW1tbS+Pj4QL6QxsPDQx7a8w0y+AuAz9GjlwfoPxT23EEbxl8sJSVl5JNPPvkmBXzmL37xC/mcPAecl93yohw+XQcA/eP06dMHhizsLC0tbQT18c9YWlq6pKamXsdr6/l6+aVLl8rLbgGgfyQlJf0wqMP4i7m4uJQvWLBgI/XyR7/99tvh33//fUhtbS3vl4f1jY2N8rCe8QQerqYDuDKlpaX5Qxp2PWdn54rJkycfuXDhwjAnJ6eCY8eOhfLCfV71wyMPXnnHk3hYgQdwZcrKygqGdBjfl8zMzKCXX375DxTuDk9PTx2F35X6+SVjx46VL6oBgMt39uzZowYX9ovl5eUFHDhw4JVZs2Ytw6QdwJWhsB83+PNbvr6+2RERES/yJXoVFRXy02oA4PJomfjZoDk6OpacOnXqM6rwUlVVldgLAJdK0+1ZbwbN29s7b968eY9nZWV9cvToUbnC86w93+lWP1sPAD+Owi4/mF1sGr6ioiKvzZs3P+np6ens4OBwi7+/P8/kY+IO4GdkZGQkGVXY9YqLiz03bdr0oq2t7W0TJ06UH0/Fp+X4XLz+BQD/U1ZW1mKUYWclJSUeGzdufMzDw6PD3NycCrzz3Txbz7e35gU5CDzA//Bcl9GGvTv61nL7/vvvH7a0tHQOCwu7l6+T56vocDENQKfs7OxMRYRdr6KiwnXPnj3PUU//a773Hd/SGpfOAshhT1dU6aOhfNnMmTOfTU9Pf/PIkSPy8+UB4Eeez64E1J84bdu27UHq3x28vLwe4avp+PZXfIENZu5BjXJzc88rMux6VNkdd+zY8evW1laH+vr6x6dOnSqNHj1afAqgHnl5eVmKDrtedXX1sE8//fQPlpaWT8bExMgVnp86C6AWBQUFOaoIO6upqbHfunXrfRYWFvYeHh5Pc5UHUIvCwsI81YRdr7a21m737t332NnZ2QcEBDyr0Wgk+lk+N8+9PYASFRcXG9717IOFenjb77777rHU1NQ/8bXykydPlpfeAihRSUlJoWpXndjY2NTNmTPnH76+vg9R8P/AD76rq6uT73ALoDSKPfV2uRoaGqz37dt3Bw3jbSIjI1/iCTwAJSkvLy9F2LtpamqyOnDgwP2xsbH/4F6eX/oLbACMWWVlZTnCfhEKvOXBgwfva25uXs2TdrzO3sfHR3wKYJwo7BW4UuQilpaWTXFxcesaGxsf2rx5s5Seni4+ATBefFcqg7iVtKGhoXt7SEhIYkVFRUlCQsJ8vhsOj4B4qS2upANj1EIwjP8Jra2tZlu3br2JenaL2trat5YsWSLfvx7A2NTV1dUi7JeAQ799+/bbrKys/qMPOy+35ctoeUEOgKGrJwj7JWprazOlwN+6Zs2ad/kKugkTJkjLli2TH0gJYOgaCHr2S0S9ui44ODiJ3s+/8cYbS3jijq+X51th8WOn+aU/VQdgaOjvpikq+2WiUGu//PLLG6iP11HwTdetW7dhxYoVmnHjxsk3vuRnzQMYGrkYIexXjoP/zTffLKI+XpuVlfVlaGioJjAwkE/fybfDMjc3lywsLOSKDzCUEPZ+wv38kiVLGv39/U25svMz5kNCQuQqzy8OPcBQ4pwj7P2A/h1qduzYMZ+G9Rp6dbz33ntbIyIi5CvpoqKiJFtbW3EkwNBB2AcABb2DH0DJYX/llVfkO+MADDUsBxsA1L93nDt3TuI73DY2Noq9AEMLYR8Ara2t7XwjDFwxB4YEYR8YOr4RxvTp0+WZeQBDgLAPAKrqHbyy7oYbbkDYwWAg7AOgoaGh47rrrpPvUY/TbmAoEPYB8Nhjj+nuvfdeydHRET07GAycehsAubm5tb6+vrZYOQeGBJW9n8XHx3/h5eVliaCDoUFl7ydr1qx5LyoqyiU6OnquKS59AwOEsPeD1atX/yU2NvZhCrsdenQwVBjGXyWq6A8MGzbsplGjRlkj6GDIEPar8OGHH95ZUFBw1+zZs72srKzw7xIMGobxV2jdunX3t7e33zNz5syw0NBQS2rTMSMHBg1hv0zx8fGTv/rqq2W2traLb7/9dn8/Pz9zLW4vDUYAYb8MGzduXLply5alnp6es+666y6XoKAgatPRp4NxQNgv0UcffXTLnj17bpkxY0ZUXFyco6+vrymCDsYEYb9E//nPf/b4+/uPi42NtcNkHBgjhP1nrF+/np/h7jpy5MjFrq6udnzrKfERgFFB2H/C3r17/+7m5vbr4cOH25qZmYm9AMYJYe8Dhfyv1I+7R0ZG3mhnZ2cvdgMYNYS9m40bN/7J0dHRIyoqasUwfjg7gIIg7GTDhg3PUD/u4efnd1NwcLADrmMBJVJ92Ldv3/60k5PTbyMiIhxxCylQMtWGfcuWLU/Z2tp6hoaG3url5eWEVXCgdKoM+759+x53d3d/iobsLphlB7VQVdh37tz5qImJiRcN2W93dnZ2FbsBVEE1Yadq/lBQUNDT3t7ebhiygxopPuz79+//tU6n8x49evTdrq6u7mI3gOooNux79uy5l9445Kvc3Nw8O/cCqJeiwv7FF1/cST25j4ODgzY4OPgeX19fLwzZATopIuwbNmy4TaPR+LS0tNw/efJkH+rNJcyyA/Rk1GGnkN/U2trqk5eX98D06dP9JkyYIFlZWYlPAaA7ow37N998s/Lbb7994Zprrgmgl+Tk5CRhyA7w44wu7Js3b76xra3Np76+/kEasgdiyA5waYwq7Lt27Vp67Nixl2JjY4OjoqIka2tr8QkA/ByjCfsPP/zwiwsXLrwcExMTwk9HxbPUAC6PwYf94MGDC1tbW31dXFweHjFiRCiG7ABXxuDD/t133+2Mi4u7FkN2gKtjsGE/fvz4vMbGRl9vb+9HgoKCRordAHCFDDLsJ06cmOPg4PBqcHDwKLELAK6SQYX95MmTsxoaGnw9PDweCwkJCRe7AaAfGETYExMTZ9TX1/u6uro+HhoaGiF2A0A/GtKwnzp1ahqF3MfZ2fnxsLCwcWI3AAyAIQv76dOnY83MzF4bOXLkeLELAAbQoIc9OTk5pq6uztve3v7JUaNGRYvdADDABjXsZ86cmURvr48ePZrfAWAQDUrYU1JSJtTW1npbW1s/FR4eHiN2A8AgGtCwp6amjqOQe1laWv5+zJgxU8VuABgCAxb2tLS0sU1NTf8cO3ZsnNgFAEOo38OekZERXlNT42VqavoHCvp0sRsAhtgVhV2n02mbm5stCgsLvaqqqvg+7OYajYZvE8PXnT49bty4mfKBAGAwrijspaWlbqdPnx6/devWVa6urrOWLVtmr79jDK4zBzBMlxV26sEtqJI7x8fHz8zMzLwvLi5u/JgxYyysrKyQcAADd0lhb2lpMac+3P7cuXMjkpOTf+Hu7n7NpEmThlNVt6VKjqADGIGfDHtbW5sp9+bZ2dlBhw8fvo4qeAxV80gfHx9fyjj36eJIADB0fYad9mk46Pn5+b5UySfU19dP8vPzmxMWFhY6bNgwM1NTU3EkABiLXmHnmfbq6uphhYWFvhkZGXw7qDuio6NHOzo6mohDAMAI9Qh7a2urWUVFhcvJkyenV1VVrYyJiYmmiu5sYmKCITuAkesKO1d0noBLTU1dGRoaOjswMDDEzMzMgUJugqADGL+usFNFd6Me/baAgIC77O3tQyjguGczgIJ0PRyNevRwGxubRRT0MAQdQHm6wn727Nm4hoaGsRR0PB0RQIG6gt3Y2GhHfbuN2AQAhekKO0/Q0Qun1wAUqivsNHzvvboGABSje9h14kcAUKDuk3G6i1fTAYBy9KjsCDuAcvXo2RF2AOXqHvZ2hB1Aubr37Eg6gIKhZwdQCfTsACqByg6gEt17diyqAVAwDOMBVALDeACVQNgBVEIOO1/eiqADKJsc9rq6OtuWlhZ7BB5AueSwU8jlG08i7ADK1dWzE8o6wg6gVPqw843hEXYABeuq7FqtFkkHUDB9zy5voLIDKBeG8QAqoQ97BxbVACibHHbq13X0apP3AIAiyWG3t7evsbOzK0ZlB1Au/TAeV70BKFz3sKNnB1CwHmEXPwKAAqGyA6gEenYAlUBlB1AJhB1AJbrCzgtrxI8AoEBdYSfo2QEUrEdlR9gBlAs9O4BK9Ai7+BEAFKh72NGzAygYhvEAKoEJOgCVQM8OoBLo2QFUAj07gEqgZwdQCVR2AJXABB2ASmAYD6AS3Ss7ZR1hB1Aq9OwAKoGeHUAl0LMDqAR6dgCVQM8OoBI9hvHiRwBQIFR2AJVAzw6gEj2G8Qg7gHIh7AAq0aNnFz8CgAKhsgOoBCboAFQClR1AJXr07Ag7gHL1qOziRwBQIFR2AJXoXtkxQQegYKjsACqBnh1AJXqEHZUdQLm6D+PRswMoGCo7gEqgZwdQia6wEwzjARQMw3gAlUDYAVQCYQdQCUzQAahEV9hxnh1A2TCMB1AJhB1AJXoM48WPAKBAXWEXUN0BFAphB1CJHmGnoCPsAArVq7KLdwBQmIvDToUdlR1AidCzA6gEwg6gEgg7gEr0CDsFHRN0AAqFCToAlcAwHkAlEHYAleg1jBfvAKAwqOwAKoGwA6gEwg6gEr3CLt4BQGF6TdChsgMoE4bxACqBsAOoBHp2AJVAzw6gEhjGA6hEj7BrNBqEHUChUNkBVAITdAAqgQk6AJXAMB5AJRB2AJVAzw6gEj3Czo9tRmUHUCYM4wFUAmEHUAn07AAqcXHPjsoOoFAXV3ZM0AEoFHp2AJVAzw6gEujZAVQCPTuASqBnB1AJDOMBVKJH2C0sLApaW1vrxCYAKAhf+SJ+7HT06NHNEydOXCw2AUAhLu7ZeYYOp98AFKivsKNpB1CgXmEnqOwACoRhPIBK9FXZMYwHUCBUdgCVQM8OoBKo7AAqgZ4dQCVQ2QFUAj07gEqgsgOoBCo7gEpggg5AwZqbm6XU1FTpww8/7H2J6/79+9dOmzbtfrEJAEbmwoULcsAPHz4sbd++XUpLS5MaGhr6DPubFPYHxCYAGIGioiIpMTFROnDggHTw4EEpLy9Pqq2tlX7zm988f9NNN63XarW6vsL+BoX9QbEJAAaoqalJysnJkU6ePCnt3r1bSkhIkCoqKqQ77rjj78uWLfuYbzHHT2X29PQscnR0rOLf6RX2ffv2vTZ9+vSHxSYAGAgenqenp0vHjh2T9u7dKw/Pb7zxxlcXLFjwCX3cwQH39fXNc3FxKe/8jZ76CvtqCvsjYhMAhghns6SkREpOTpb77/j4eGnq1Klvzp49+1Mdoc87AgICsj08PIrFr/ykvsL+Dwr7Y2ITAAZRY2OjlJ+fL50+fZpbasnf3/8tCvjnbW1tcr6DgoLOeXt7F4jDL0tfYX+Zwv642ASAAVZdXS2dP39e7rtpKP7uyJEjv+Jw84vCnUaBzxGHXpW+wv53CvuTYhMA+hlVaKmsrExKSUmRysvLP6JKzeHuaG1t1QUGBp6l13lxaL/qK+wvUtifEpsA0A949rygoIAn1T5zcHDY3N7eruNw+/n5JYWEhKSJwwZUr7Dv3bv3hRkzZvxebALAFYqPj99IFfsb+pFi1iEPy6mKJ4aGhp7pPGJw9RX25ynsT4tNALhEVK35tNgWqtjbaFPn5uZ2PCwsLLHz06HXV9j/TGF/RmwCwE/g4TmvXsvIyNhmYWGxjQJ+dOTIkSfExwalr7D/icL+rNgEgIvwMtTc3Fx+fWdpafktBZ6H5/ERERHHxCEGqa+w/5HC/pzYBFA9Hp5XVlZK2dnZUnFx8U4rK6vv6uvrebXa4aioqMPiMIPXV9ifobD/WWwCqBIPz0tLS6XMzExec77X2tp6B1V0XrF2cOLEiQfFYUalr7D/H4X9L2ITQDXq6urk02Pnzp2Tl6hSNvbT8HxncHDwgSlTpuwVhxmtvsL+Bwr7X8UmgGLx8JwvLuHLQfkCE6rch+3t7XfTkF1XVVWli46OPnDttdfuEocbvb7C/jsK+9/EJoCi8J1bUlJSjldXVx/gxebce1OwO2jIrouIiNg7e/bs78ShitMr7Pv27Xtq+vTpL4pNAKOXlpaWWFJScoh+1LW0tHTY2NjsjImJ2dL5qXr0FfYnKOwviU0Ao0M9d3JxcfER+rvNf7l1ZmZmOyZPnvxV56fq1VfYf0thf0VsAhiFzMzMlKKiouP091mn1Wq3T5ky5VPxEQh9hf1RCvurYhPAIPHfWz49xleP0RA9jYbnz0+dOvUj8TH0AfeNB6PBs+f6a7+PHDmScfDgwc/37NnzKYX9BQT95/Wq7Pv3739o2rRpr4tNgCHV2toqB5wrON9gsbCwMJMqeoKHh8d/ly5d+q44DC5BX2H/DYX9n2ITYFDx30c+Pcbnv3kFW3FxcQ79nJSVldVx7tw53cSJE7f96le/+rc4HC5DX2H/NYV9jdgEGHA8POd7r1VVVfHS1PzKysoUquId6enpupCQkK133303/j72g77Cfh+FfZ3YBBgQbW1t8vJUCncxhTuDF7Vw5XZyctpy6623viYOg37UK+wHDhy4Jy4u7i2xCdAv+O9ZS0uLHHAalpeVl5efz87O5gcZbF6+fPnL4jAYQH2F/VcU9rfFJsAV4xsrcv9Nw/NKCngOBVyXkZHRYWZmtum22257QRwGg6RX2A8ePHh3bGzsf8QmwGWpqampplAX0d8rHfXhuvz8/A7at5GqN+6RMMT6CvudFHac0oCfVU+oYpfzBSUcbkZD869m4IalBqmvsN9OYX9fbAJ0aSJUpS/og52env7FdDw9yGj0WkHHT34UPwLwpFpLZWVlBSk7evToO25ubp7u7u7enp6evgi6ccFyWeihjdDovK62tpaKeE31kSNH3ndycnJxdnZ2mzZt2m/EYWCE+qrsCLsK8bCch+nx8fEf2djY2JFh9vb2DnFxcfeKQ8DIobKrHPXfHVzNDx8+vMHS0tIqNjb2TvERKAwqu4pRMe+gkH9mampqNnXq1FvFblCovio7JugUjBe57N69+0v6UaMlU6ZMWdn5CSgdKrsKHDly5Gtqx61aWlosTExMzGbMmLFCfAQqgrArEK+d4Ou/N23atLWhocE2MjJyBfXjTebm5i00ZG+jgo7/xiqECTqF4OF5Wlqa9Mknn3xbXV3tZGFh4TB37tzl1tbW9fRzszgMVKyvyo6e3UjwFWQ0RJfeffddfjSRu4uLi+vChQtXODg4VNnb21dbWVk1ikMBei+XPXbs2PXR0dH8AHkwMDqdTiovL5dOnDjB92HbdcMNN9zObRdV7iYOuDgMoE99hX0+hZ0fJg8GgIfnfO81+u/Cjynae/PNN9/FAacevIEqeZk4DOBn9Qr78ePH506YMOFbsQmDLCkp6QcK8v0caPHq4Hf6SEf9d527u3tx55EAl6dX2GmIeN348eMV+7wrQ3LmzJmjFOQHuwebAl3t6+ubKQ4B6De9wn7y5MnZUVFRO8QmDICzZ88ea29vf8TGxqYqKCgoRewGGFC9wp6QkHDtuHHjdopN6Cepqaknqf9+jCs4Ve+qkJCQZPERwKDoK+zXUNh3i024CnyLZBqqJ9L7bynglWFhYYniI4BBhxV0/YzvoMqPJ/r666+TEhMT55iZma3iL08EHYZar8p+6tSpaWPHjt0nNuES8AMOePUavc4EBgY+xdeGW1lZVdK/xyPiEIAh1yvsp0+fjo2IiDggNuEiWVlZaUVFRc/pZ9BpF786WltbuRcvHz9+/A/ygQAGplfYk5KSpowZMwZ/YbvJyck5l5+f/2f6kSt2aVRU1PednwAYj15hT05OnhweHn5YbKoaD8/py++8Vqt9aMKECf8VuwGMEi6E6YZnz/nS0Pj4eGnDhg1ZR48evZuG548g6KAEvSr72bNno0eNGnVUbCoeP/+7sLBQysjIkDIzM3OCg4Nf5CeZWFhYlMyePftrcRiA0esV9pSUlPEjR448LjYVh///5eE5X1xC4c63sbF5pampSVdfXy8H/Prrr+dbNgEoTq+wp6WljQsLCzspNhWBh+f8cP9z584VUtBfp2053KampiXz58//WBwGoGh9hX2sEhaA8PO/i4uLuXoXU7jfbG5u5lNkJXPnzsVz7ECVeoU9PT09IjQ09JTYNBr64XlBQYG8go1CXurr67uW9hctWrQIj6AG1esVdhrqhoeEhCSJTYPGd27h4Xl+fr48wZaQkMDPAi+LjIxcp9FoSlatWrVWHAqger3CTlVxVHBw8BmxaXC4/y4pKZEDTqMQ/uetoH/ed8rKynT8sH93d/eShx566A1xOAAIvcJOw98RhnSNNf/zNTU1yf13bm4uXyrKM+lVgYGB71Po5Rn0J5544mVxOAD8iF5hz8rKCqMgpYrNIcHD85qaGjng2dnZvIpN7sPz8vIuhIeHf2hvb1/69NNP/1UcDgCXoFfYKVzDAwIC0sXmoOHhOd85lQNOoa6hXV+UlpbqCgoKOgoLC3X8YAMeoj/77LO8Rh0ALlOvsNNQOdjPz++c2Bww/L/Ld04VAa9raGjYTOHuKCoq4nPgJb/73e+eEocCQD/oFXaqqoEDdcNDHp7zgw044HyKLCMjo97c3Pyb6urqkgceeOARcRgADIBeYc/Pz/f38fHJFptXTb96jQNOXyQ8g95gYmLybWZmZgdX8DfffPM34lAAGEC9wk79sZ+Xl1eO2Lxs/OfxrZlEwJtqamp20xeILicnp4OCzqvYSt9+++17Oo8GgMHSK+zUM/t4enrmic1Lwn8Ghbo5KyvrEN+SiX7uoHDrSkpKSp988kk85B/AAPQKe3FxsZeHh0eB2PxRzc3NLVSpj9Pv6/jCEvqSKJs/f/4N4mMAMDC9wl5aWurh5uZWJDZ7aGxsbKXqfYoDXldXVzZp0qTrxUcAYOB6hb2srMzd1dVVfp4Yf8ar1+rr63nNeRv183umT59+nXwgABgRSfp/bZBBJGKOBY8AAAAASUVORK5CYII=;labelBorderColor=#000000;imageBackground=#000000;fillStyle=solid;strokeOpacity=100;snapToPoint=0;fontSize=13;" parent="1" vertex="1">
          <mxGeometry x="3334.52" y="743" width="45.23" height="100" as="geometry" />
        </mxCell>
        <mxCell id="045CiPY4S235guZHoBIP-174" style="edgeStyle=orthogonalEdgeStyle;rounded=0;orthogonalLoop=1;jettySize=auto;html=1;exitX=0.5;exitY=0;exitDx=0;exitDy=0;entryX=0.5;entryY=1;entryDx=0;entryDy=0;endArrow=none;endFill=0;jumpStyle=arc;jumpSize=18;fontSize=13;" parent="1" source="045CiPY4S235guZHoBIP-176" target="045CiPY4S235guZHoBIP-173" edge="1">
          <mxGeometry relative="1" as="geometry">
            <Array as="points">
              <mxPoint x="3363" y="1166" />
              <mxPoint x="3485" y="1166" />
              <mxPoint x="3485" y="851" />
              <mxPoint x="3357" y="851" />
            </Array>
          </mxGeometry>
        </mxCell>
        <mxCell id="045CiPY4S235guZHoBIP-175" style="edgeStyle=orthogonalEdgeStyle;rounded=0;orthogonalLoop=1;jettySize=auto;html=1;exitX=0;exitY=0.5;exitDx=0;exitDy=0;entryX=1;entryY=0.5;entryDx=0;entryDy=0;endArrow=none;endFill=0;fontSize=13;" parent="1" source="045CiPY4S235guZHoBIP-176" target="045CiPY4S235guZHoBIP-190" edge="1">
          <mxGeometry relative="1" as="geometry" />
        </mxCell>
        <mxCell id="045CiPY4S235guZHoBIP-176" value="ALU OP" style="ellipse;whiteSpace=wrap;html=1;fontSize=13;" parent="1" vertex="1">
          <mxGeometry x="3332.15" y="1188" width="62.1" height="80" as="geometry" />
        </mxCell>
        <mxCell id="045CiPY4S235guZHoBIP-177" value="" style="edgeStyle=none;orthogonalLoop=1;jettySize=auto;html=1;rounded=0;entryX=0.031;entryY=0.062;entryDx=0;entryDy=0;entryPerimeter=0;endArrow=none;endFill=0;fontSize=13;" parent="1" target="045CiPY4S235guZHoBIP-41" edge="1">
          <mxGeometry width="80" relative="1" as="geometry">
            <mxPoint x="1572.25" y="598" as="sourcePoint" />
            <mxPoint x="2884.75" y="598" as="targetPoint" />
            <Array as="points" />
          </mxGeometry>
        </mxCell>
        <mxCell id="045CiPY4S235guZHoBIP-178" style="edgeStyle=orthogonalEdgeStyle;rounded=0;orthogonalLoop=1;jettySize=auto;html=1;exitX=0;exitY=0.25;exitDx=0;exitDy=0;entryX=0.996;entryY=0.062;entryDx=0;entryDy=0;entryPerimeter=0;endArrow=none;endFill=0;fontSize=13;" parent="1" source="045CiPY4S235guZHoBIP-164" target="045CiPY4S235guZHoBIP-41" edge="1">
          <mxGeometry relative="1" as="geometry">
            <Array as="points">
              <mxPoint x="3144.75" y="658" />
              <mxPoint x="3041.75" y="658" />
              <mxPoint x="3041.75" y="598" />
            </Array>
          </mxGeometry>
        </mxCell>
        <mxCell id="045CiPY4S235guZHoBIP-179" value="" style="edgeStyle=none;orthogonalLoop=1;jettySize=auto;html=1;rounded=0;endArrow=none;endFill=0;jumpStyle=arc;jumpSize=17;fontSize=13;exitX=1.003;exitY=0.386;exitDx=0;exitDy=0;exitPerimeter=0;" parent="1" source="045CiPY4S235guZHoBIP-41" edge="1">
          <mxGeometry width="80" relative="1" as="geometry">
            <mxPoint x="2944.75" y="808" as="sourcePoint" />
            <mxPoint x="3144.75" y="807.5999999999999" as="targetPoint" />
            <Array as="points" />
          </mxGeometry>
        </mxCell>
        <mxCell id="045CiPY4S235guZHoBIP-180" style="edgeStyle=orthogonalEdgeStyle;rounded=0;orthogonalLoop=1;jettySize=auto;html=1;exitX=0;exitY=0.75;exitDx=0;exitDy=0;entryX=0.997;entryY=0.162;entryDx=0;entryDy=0;entryPerimeter=0;endArrow=none;endFill=0;fontSize=13;" parent="1" source="045CiPY4S235guZHoBIP-164" target="045CiPY4S235guZHoBIP-41" edge="1">
          <mxGeometry relative="1" as="geometry">
            <Array as="points">
              <mxPoint x="3014.75" y="735" />
              <mxPoint x="3014.75" y="663" />
            </Array>
          </mxGeometry>
        </mxCell>
        <mxCell id="045CiPY4S235guZHoBIP-181" value="" style="edgeStyle=none;orthogonalLoop=1;jettySize=auto;html=1;rounded=0;endArrow=none;endFill=0;fontSize=13;" parent="1" edge="1">
          <mxGeometry width="80" relative="1" as="geometry">
            <mxPoint x="2134.75" y="663" as="sourcePoint" />
            <mxPoint x="2889.25" y="662.5500000000002" as="targetPoint" />
            <Array as="points" />
          </mxGeometry>
        </mxCell>
        <mxCell id="045CiPY4S235guZHoBIP-182" value="" style="edgeStyle=none;orthogonalLoop=1;jettySize=auto;html=1;rounded=0;fontSize=13;" parent="1" edge="1">
          <mxGeometry width="80" relative="1" as="geometry">
            <mxPoint x="3094.75" y="820.75" as="sourcePoint" />
            <mxPoint x="3144.75" y="820.5" as="targetPoint" />
            <Array as="points" />
          </mxGeometry>
        </mxCell>
        <mxCell id="045CiPY4S235guZHoBIP-183" value="1" style="text;html=1;align=center;verticalAlign=middle;whiteSpace=wrap;rounded=0;fontSize=13;strokeOpacity=100;snapToPoint=0;" parent="1" vertex="1">
          <mxGeometry x="3077.25" y="811.75" width="17.5" height="20" as="geometry" />
        </mxCell>
        <mxCell id="045CiPY4S235guZHoBIP-184" style="edgeStyle=orthogonalEdgeStyle;rounded=0;orthogonalLoop=1;jettySize=auto;html=1;exitX=0;exitY=0.75;exitDx=0;exitDy=0;entryX=1;entryY=0.5;entryDx=0;entryDy=0;endArrow=none;endFill=0;jumpStyle=arc;jumpSize=17;fontSize=13;" parent="1" source="045CiPY4S235guZHoBIP-167" target="045CiPY4S235guZHoBIP-41" edge="1">
          <mxGeometry relative="1" as="geometry">
            <Array as="points">
              <mxPoint x="3041.75" y="888" />
              <mxPoint x="3041.75" y="883" />
            </Array>
          </mxGeometry>
        </mxCell>
        <mxCell id="045CiPY4S235guZHoBIP-185" value="" style="edgeStyle=none;orthogonalLoop=1;jettySize=auto;html=1;rounded=0;fontSize=13;" parent="1" edge="1">
          <mxGeometry width="80" relative="1" as="geometry">
            <mxPoint x="3379.75" y="832.8599999999997" as="sourcePoint" />
            <mxPoint x="3404.75" y="833" as="targetPoint" />
            <Array as="points" />
          </mxGeometry>
        </mxCell>
        <mxCell id="045CiPY4S235guZHoBIP-186" value="" style="edgeStyle=none;orthogonalLoop=1;jettySize=auto;html=1;rounded=0;fontSize=13;" parent="1" edge="1">
          <mxGeometry width="80" relative="1" as="geometry">
            <mxPoint x="3379.75" y="819.1099999999997" as="sourcePoint" />
            <mxPoint x="3404.75" y="819.25" as="targetPoint" />
            <Array as="points" />
          </mxGeometry>
        </mxCell>
        <mxCell id="045CiPY4S235guZHoBIP-187" value="ZF" style="text;html=1;align=center;verticalAlign=middle;whiteSpace=wrap;rounded=0;fontSize=13;strokeOpacity=100;snapToPoint=0;" parent="1" vertex="1">
          <mxGeometry x="3404.75" y="818" width="17.5" height="30" as="geometry" />
        </mxCell>
        <mxCell id="045CiPY4S235guZHoBIP-188" value="CF" style="text;html=1;align=center;verticalAlign=middle;whiteSpace=wrap;rounded=0;fontSize=13;strokeOpacity=100;snapToPoint=0;" parent="1" vertex="1">
          <mxGeometry x="3404.75" y="803" width="17.5" height="30" as="geometry" />
        </mxCell>
        <mxCell id="045CiPY4S235guZHoBIP-189" style="edgeStyle=orthogonalEdgeStyle;rounded=0;orthogonalLoop=1;jettySize=auto;html=1;exitX=0;exitY=0.5;exitDx=0;exitDy=0;endArrow=none;endFill=0;fontSize=13;" parent="1" source="045CiPY4S235guZHoBIP-190" edge="1">
          <mxGeometry relative="1" as="geometry">
            <mxPoint x="2984.75" y="1190.7142857142858" as="targetPoint" />
          </mxGeometry>
        </mxCell>
        <mxCell id="045CiPY4S235guZHoBIP-190" value="opcode" style="text;html=1;align=center;verticalAlign=middle;whiteSpace=wrap;rounded=0;strokeWidth=3;horizontal=1;fontSize=13;strokeOpacity=100;snapToPoint=0;" parent="1" vertex="1">
          <mxGeometry x="3239.25" y="1208" width="53.75" height="15" as="geometry" />
        </mxCell>
        <mxCell id="045CiPY4S235guZHoBIP-191" style="edgeStyle=orthogonalEdgeStyle;rounded=0;orthogonalLoop=1;jettySize=auto;html=1;exitX=0;exitY=0.5;exitDx=0;exitDy=0;entryX=0;entryY=0.5;entryDx=0;entryDy=0;endArrow=none;endFill=0;fontSize=13;" parent="1" source="045CiPY4S235guZHoBIP-192" target="045CiPY4S235guZHoBIP-190" edge="1">
          <mxGeometry relative="1" as="geometry">
            <Array as="points">
              <mxPoint x="3204.25" y="1246" />
              <mxPoint x="3204.25" y="1216" />
            </Array>
          </mxGeometry>
        </mxCell>
        <mxCell id="045CiPY4S235guZHoBIP-192" value="func" style="text;html=1;align=center;verticalAlign=middle;whiteSpace=wrap;rounded=0;strokeWidth=3;horizontal=1;fontSize=13;strokeOpacity=100;snapToPoint=0;" parent="1" vertex="1">
          <mxGeometry x="3245.5" y="1238" width="41.25" height="15" as="geometry" />
        </mxCell>
        <mxCell id="045CiPY4S235guZHoBIP-193" style="edgeStyle=orthogonalEdgeStyle;rounded=0;orthogonalLoop=1;jettySize=auto;html=1;exitX=1;exitY=0.5;exitDx=0;exitDy=0;entryX=0.036;entryY=0.658;entryDx=0;entryDy=0;entryPerimeter=0;endArrow=none;endFill=0;fontSize=13;" parent="1" source="045CiPY4S235guZHoBIP-192" target="045CiPY4S235guZHoBIP-176" edge="1">
          <mxGeometry relative="1" as="geometry" />
        </mxCell>
        <mxCell id="045CiPY4S235guZHoBIP-194" value="ALU_selB" style="text;html=1;align=center;verticalAlign=middle;whiteSpace=wrap;rounded=0;strokeWidth=3;horizontal=1;fontSize=13;strokeOpacity=100;snapToPoint=0;" parent="1" vertex="1">
          <mxGeometry x="3139.13" y="918" width="83.75" height="15" as="geometry" />
        </mxCell>
        <mxCell id="045CiPY4S235guZHoBIP-195" value="ALU_selA" style="text;html=1;align=center;verticalAlign=middle;whiteSpace=wrap;rounded=0;strokeWidth=3;horizontal=1;fontSize=13;strokeOpacity=100;snapToPoint=0;" parent="1" vertex="1">
          <mxGeometry x="3144.75" y="765.5" width="83.75" height="15" as="geometry" />
        </mxCell>
        <mxCell id="045CiPY4S235guZHoBIP-196" value="" style="edgeStyle=none;orthogonalLoop=1;jettySize=auto;html=1;rounded=0;entryX=-0.006;entryY=0.846;entryDx=0;entryDy=0;entryPerimeter=0;endArrow=none;endFill=0;jumpStyle=arc;jumpSize=17;fontSize=13;" parent="1" target="045CiPY4S235guZHoBIP-49" edge="1">
          <mxGeometry width="80" relative="1" as="geometry">
            <mxPoint x="2939.25" y="1107.3900000000003" as="sourcePoint" />
            <mxPoint x="3484.75" y="1108" as="targetPoint" />
            <Array as="points" />
          </mxGeometry>
        </mxCell>
        <mxCell id="045CiPY4S235guZHoBIP-197" value="" style="edgeStyle=none;orthogonalLoop=1;jettySize=auto;html=1;rounded=0;entryX=-0.006;entryY=0.846;entryDx=0;entryDy=0;entryPerimeter=0;endArrow=none;endFill=0;jumpStyle=arc;jumpSize=17;fontSize=13;" parent="1" edge="1">
          <mxGeometry width="80" relative="1" as="geometry">
            <mxPoint x="2939.25" y="1127.13" as="sourcePoint" />
            <mxPoint x="3524.75" y="1127.7399999999998" as="targetPoint" />
            <Array as="points" />
          </mxGeometry>
        </mxCell>
        <mxCell id="045CiPY4S235guZHoBIP-198" value="" style="edgeStyle=none;orthogonalLoop=1;jettySize=auto;html=1;rounded=0;entryX=-0.006;entryY=0.846;entryDx=0;entryDy=0;entryPerimeter=0;endArrow=none;endFill=0;jumpStyle=arc;jumpSize=17;fontSize=13;" parent="1" edge="1">
          <mxGeometry width="80" relative="1" as="geometry">
            <mxPoint x="2939.25" y="1145.5" as="sourcePoint" />
            <mxPoint x="3524.75" y="1146.1099999999997" as="targetPoint" />
            <Array as="points" />
          </mxGeometry>
        </mxCell>
        <mxCell id="045CiPY4S235guZHoBIP-199" value="EX FLUSH" style="text;html=1;align=center;verticalAlign=middle;whiteSpace=wrap;rounded=0;strokeWidth=3;horizontal=1;fontSize=13;strokeOpacity=100;snapToPoint=0;" parent="1" vertex="1">
          <mxGeometry x="2785" y="1443" width="93.35" height="15" as="geometry" />
        </mxCell>
        <mxCell id="045CiPY4S235guZHoBIP-200" value="Rs2_Store_Forward" style="text;html=1;align=center;verticalAlign=middle;whiteSpace=wrap;rounded=0;strokeWidth=3;horizontal=1;fontSize=13;strokeOpacity=100;snapToPoint=0;" parent="1" vertex="1">
          <mxGeometry x="3124.75" y="1045.5" width="130" height="15" as="geometry" />
        </mxCell>
        <mxCell id="045CiPY4S235guZHoBIP-201" style="edgeStyle=orthogonalEdgeStyle;rounded=0;orthogonalLoop=1;jettySize=auto;html=1;exitX=1;exitY=0.5;exitDx=0;exitDy=0;jumpStyle=arc;jumpSize=17;endArrow=none;endFill=0;fontSize=13;" parent="1" source="045CiPY4S235guZHoBIP-170" edge="1">
          <mxGeometry relative="1" as="geometry">
            <mxPoint x="3524.75" y="918" as="targetPoint" />
            <Array as="points">
              <mxPoint x="3474.75" y="996" />
              <mxPoint x="3474.75" y="918" />
              <mxPoint x="3525.75" y="918" />
            </Array>
          </mxGeometry>
        </mxCell>
        <mxCell id="Hs7a1tmvdIe1-_2XuvXQ-4" style="edgeStyle=orthogonalEdgeStyle;rounded=0;orthogonalLoop=1;jettySize=auto;html=1;exitX=0.75;exitY=0;exitDx=0;exitDy=0;entryX=0;entryY=0.25;entryDx=0;entryDy=0;endArrow=none;endFill=0;" parent="1" source="045CiPY4S235guZHoBIP-206" target="045CiPY4S235guZHoBIP-57" edge="1">
          <mxGeometry relative="1" as="geometry" />
        </mxCell>
        <mxCell id="045CiPY4S235guZHoBIP-206" value="&lt;font style=&quot;font-size: 13px;&quot;&gt;Data Memory&lt;/font&gt;" style="rounded=0;whiteSpace=wrap;html=1;strokeOpacity=100;snapToPoint=0;fontSize=13;" parent="1" vertex="1">
          <mxGeometry x="3959.75" y="775.5" width="245" height="100" as="geometry" />
        </mxCell>
        <mxCell id="045CiPY4S235guZHoBIP-207" value="WR" style="text;html=1;align=center;verticalAlign=middle;whiteSpace=wrap;rounded=0;strokeOpacity=100;snapToPoint=0;fontSize=13;" parent="1" vertex="1">
          <mxGeometry x="3961" y="817" width="28.25" height="15.5" as="geometry" />
        </mxCell>
        <mxCell id="045CiPY4S235guZHoBIP-208" value="" style="triangle;whiteSpace=wrap;html=1;rotation=0;strokeOpacity=100;snapToPoint=0;fontSize=13;" parent="1" vertex="1">
          <mxGeometry x="3959.75" y="855.5" width="20" height="20" as="geometry" />
        </mxCell>
        <mxCell id="045CiPY4S235guZHoBIP-209" style="edgeStyle=orthogonalEdgeStyle;rounded=0;orthogonalLoop=1;jettySize=auto;html=1;exitX=0;exitY=0.5;exitDx=0;exitDy=0;entryX=0.944;entryY=0.661;entryDx=0;entryDy=0;entryPerimeter=0;endArrow=none;endFill=0;strokeOpacity=100;snapToPoint=0;fontSize=13;" parent="1" source="045CiPY4S235guZHoBIP-208" edge="1">
          <mxGeometry relative="1" as="geometry">
            <mxPoint x="3941.75" y="865.5" as="targetPoint" />
          </mxGeometry>
        </mxCell>
        <mxCell id="045CiPY4S235guZHoBIP-210" value="Addr" style="text;html=1;align=center;verticalAlign=middle;whiteSpace=wrap;rounded=0;strokeOpacity=100;snapToPoint=0;fontSize=13;" parent="1" vertex="1">
          <mxGeometry x="3964.75" y="775.5" width="45" height="20" as="geometry" />
        </mxCell>
        <mxCell id="045CiPY4S235guZHoBIP-211" value="DataIn" style="text;html=1;align=center;verticalAlign=middle;whiteSpace=wrap;rounded=0;strokeOpacity=100;snapToPoint=0;fontSize=13;" parent="1" vertex="1">
          <mxGeometry x="4034.75" y="775.5" width="45" height="20" as="geometry" />
        </mxCell>
        <mxCell id="045CiPY4S235guZHoBIP-213" value="DataOut" style="text;html=1;align=center;verticalAlign=middle;whiteSpace=wrap;rounded=0;strokeOpacity=100;snapToPoint=0;fontSize=13;" parent="1" vertex="1">
          <mxGeometry x="4119" y="778" width="47.75" height="13.5" as="geometry" />
        </mxCell>
        <mxCell id="045CiPY4S235guZHoBIP-214" value="data" style="text;html=1;align=center;verticalAlign=middle;whiteSpace=wrap;rounded=0;strokeOpacity=100;snapToPoint=0;fontSize=13;" parent="1" vertex="1">
          <mxGeometry x="4119" y="735.5" width="45" height="20" as="geometry" />
        </mxCell>
        <mxCell id="045CiPY4S235guZHoBIP-220" style="edgeStyle=orthogonalEdgeStyle;rounded=0;orthogonalLoop=1;jettySize=auto;html=1;exitX=0;exitY=0.5;exitDx=0;exitDy=0;entryX=0.978;entryY=0.904;entryDx=0;entryDy=0;entryPerimeter=0;endArrow=none;endFill=0;jumpStyle=arc;jumpSize=18;fontSize=13;" parent="1" source="045CiPY4S235guZHoBIP-206" target="045CiPY4S235guZHoBIP-49" edge="1">
          <mxGeometry relative="1" as="geometry">
            <Array as="points">
              <mxPoint x="3904.75" y="825" />
              <mxPoint x="3904.75" y="1146" />
            </Array>
          </mxGeometry>
        </mxCell>
        <mxCell id="045CiPY4S235guZHoBIP-221" value="&lt;font style=&quot;font-size: 13px;&quot;&gt;clk&lt;/font&gt;" style="text;html=1;align=center;verticalAlign=middle;whiteSpace=wrap;rounded=0;fontSize=13;strokeOpacity=100;snapToPoint=0;" parent="1" vertex="1">
          <mxGeometry x="3914.75" y="843" width="40" height="25" as="geometry" />
        </mxCell>
        <mxCell id="045CiPY4S235guZHoBIP-222" value="" style="edgeStyle=none;orthogonalLoop=1;jettySize=auto;html=1;rounded=0;entryX=0.02;entryY=0.847;entryDx=0;entryDy=0;entryPerimeter=0;endArrow=none;endFill=0;jumpStyle=arc;jumpSize=18;fontSize=13;" parent="1" target="045CiPY4S235guZHoBIP-57" edge="1">
          <mxGeometry width="80" relative="1" as="geometry">
            <mxPoint x="3575.05" y="1108" as="sourcePoint" />
            <mxPoint x="3655.05" y="1108" as="targetPoint" />
            <Array as="points" />
          </mxGeometry>
        </mxCell>
        <mxCell id="045CiPY4S235guZHoBIP-223" value="" style="edgeStyle=none;orthogonalLoop=1;jettySize=auto;html=1;rounded=0;entryX=0.013;entryY=0.878;entryDx=0;entryDy=0;entryPerimeter=0;endArrow=none;endFill=0;jumpStyle=arc;jumpSize=18;fontSize=13;" parent="1" target="045CiPY4S235guZHoBIP-57" edge="1">
          <mxGeometry width="80" relative="1" as="geometry">
            <mxPoint x="3575.05" y="1128" as="sourcePoint" />
            <mxPoint x="4267.75" y="1129" as="targetPoint" />
            <Array as="points" />
          </mxGeometry>
        </mxCell>
        <mxCell id="045CiPY4S235guZHoBIP-224" value="" style="edgeStyle=none;orthogonalLoop=1;jettySize=auto;html=1;rounded=0;entryX=0;entryY=0.904;entryDx=0;entryDy=0;entryPerimeter=0;endArrow=none;endFill=0;fontSize=13;" parent="1" target="045CiPY4S235guZHoBIP-57" edge="1">
          <mxGeometry width="80" relative="1" as="geometry">
            <mxPoint x="3899.75" y="1145.5" as="sourcePoint" />
            <mxPoint x="4264.75" y="1146" as="targetPoint" />
            <Array as="points" />
          </mxGeometry>
        </mxCell>
        <mxCell id="Hs7a1tmvdIe1-_2XuvXQ-5" style="edgeStyle=orthogonalEdgeStyle;rounded=0;orthogonalLoop=1;jettySize=auto;html=1;exitX=1;exitY=0.5;exitDx=0;exitDy=0;entryX=0.5;entryY=1;entryDx=0;entryDy=0;" parent="1" source="045CiPY4S235guZHoBIP-227" target="045CiPY4S235guZHoBIP-231" edge="1">
          <mxGeometry relative="1" as="geometry" />
        </mxCell>
        <mxCell id="045CiPY4S235guZHoBIP-227" value="&lt;font style=&quot;font-size: 13px;&quot;&gt;mem_read&lt;/font&gt;" style="text;html=1;align=center;verticalAlign=middle;whiteSpace=wrap;rounded=0;fontSize=13;strokeOpacity=100;snapToPoint=0;" parent="1" vertex="1">
          <mxGeometry x="4449" y="840" width="70" height="15" as="geometry" />
        </mxCell>
        <mxCell id="045CiPY4S235guZHoBIP-229" style="edgeStyle=orthogonalEdgeStyle;rounded=0;orthogonalLoop=1;jettySize=auto;html=1;exitX=1;exitY=0.5;exitDx=0;exitDy=0;entryX=0;entryY=0.75;entryDx=0;entryDy=0;endArrow=none;endFill=0;jumpStyle=arc;jumpSize=19;fontSize=13;" parent="1" source="045CiPY4S235guZHoBIP-231" target="045CiPY4S235guZHoBIP-66" edge="1">
          <mxGeometry relative="1" as="geometry">
            <Array as="points">
              <mxPoint x="4595" y="779" />
              <mxPoint x="4595" y="1728" />
              <mxPoint x="1625" y="1728" />
              <mxPoint x="1625" y="878" />
              <mxPoint x="1825" y="878" />
              <mxPoint x="1825" y="834" />
              <mxPoint x="1868" y="834" />
            </Array>
          </mxGeometry>
        </mxCell>
        <mxCell id="045CiPY4S235guZHoBIP-230" style="edgeStyle=orthogonalEdgeStyle;rounded=0;orthogonalLoop=1;jettySize=auto;html=1;exitX=1;exitY=0.5;exitDx=0;exitDy=0;fontSize=13;" parent="1" source="045CiPY4S235guZHoBIP-231" edge="1">
          <mxGeometry relative="1" as="geometry">
            <mxPoint x="4594.75" y="728" as="targetPoint" />
          </mxGeometry>
        </mxCell>
        <mxCell id="045CiPY4S235guZHoBIP-231" value="&lt;span style=&quot;font-size: 13px;&quot;&gt;WB mux&lt;/span&gt;" style="triangle;whiteSpace=wrap;html=1;strokeOpacity=100;snapToPoint=0;rotation=0;fontSize=13;" parent="1" vertex="1">
          <mxGeometry x="4504.75" y="731.75" width="70" height="95" as="geometry" />
        </mxCell>
        <mxCell id="045CiPY4S235guZHoBIP-232" style="edgeStyle=orthogonalEdgeStyle;rounded=0;orthogonalLoop=1;jettySize=auto;html=1;exitX=0;exitY=0.25;exitDx=0;exitDy=0;entryX=0.969;entryY=0.167;entryDx=0;entryDy=0;entryPerimeter=0;endArrow=none;endFill=0;fontSize=13;" parent="1" source="045CiPY4S235guZHoBIP-231" target="045CiPY4S235guZHoBIP-57" edge="1">
          <mxGeometry relative="1" as="geometry">
            <Array as="points">
              <mxPoint x="4454.75" y="755" />
              <mxPoint x="4454.75" y="667" />
            </Array>
          </mxGeometry>
        </mxCell>
        <mxCell id="045CiPY4S235guZHoBIP-234" value="EX haz" style="text;html=1;align=center;verticalAlign=middle;whiteSpace=wrap;rounded=0;fontSize=13;strokeOpacity=100;snapToPoint=0;" parent="1" vertex="1">
          <mxGeometry x="3576" y="757" width="70" height="30" as="geometry" />
        </mxCell>
        <mxCell id="045CiPY4S235guZHoBIP-245" value="" style="edgeStyle=none;orthogonalLoop=1;jettySize=auto;html=1;rounded=0;exitX=1;exitY=0.5;exitDx=0;exitDy=0;entryX=0;entryY=0.5;entryDx=0;entryDy=0;fontSize=13;" parent="1" source="045CiPY4S235guZHoBIP-246" edge="1">
          <mxGeometry width="80" relative="1" as="geometry">
            <mxPoint x="3065.25" y="651.75" as="sourcePoint" />
            <mxPoint x="3144.75" y="681.75" as="targetPoint" />
            <Array as="points" />
          </mxGeometry>
        </mxCell>
        <mxCell id="045CiPY4S235guZHoBIP-246" value="EX haz" style="text;html=1;align=center;verticalAlign=middle;whiteSpace=wrap;rounded=0;fontSize=13;strokeOpacity=100;snapToPoint=0;" parent="1" vertex="1">
          <mxGeometry x="3051.63" y="666.75" width="73.75" height="30" as="geometry" />
        </mxCell>
        <mxCell id="Hs7a1tmvdIe1-_2XuvXQ-6" style="edgeStyle=orthogonalEdgeStyle;rounded=0;orthogonalLoop=1;jettySize=auto;html=1;entryX=0;entryY=0.5;entryDx=0;entryDy=0;" parent="1" source="045CiPY4S235guZHoBIP-247" target="045CiPY4S235guZHoBIP-164" edge="1">
          <mxGeometry relative="1" as="geometry" />
        </mxCell>
        <mxCell id="045CiPY4S235guZHoBIP-247" value="MEM haz" style="text;html=1;align=center;verticalAlign=middle;whiteSpace=wrap;rounded=0;fontSize=13;strokeOpacity=100;snapToPoint=0;" parent="1" vertex="1">
          <mxGeometry x="3053" y="696.5" width="60" height="18" as="geometry" />
        </mxCell>
        <mxCell id="045CiPY4S235guZHoBIP-249" value="" style="edgeStyle=none;orthogonalLoop=1;jettySize=auto;html=1;rounded=0;exitX=1;exitY=0.5;exitDx=0;exitDy=0;entryX=0;entryY=0.5;entryDx=0;entryDy=0;fontSize=13;" parent="1" source="045CiPY4S235guZHoBIP-250" edge="1">
          <mxGeometry width="80" relative="1" as="geometry">
            <mxPoint x="3065.25" y="958" as="sourcePoint" />
            <mxPoint x="3144.75" y="988" as="targetPoint" />
            <Array as="points" />
          </mxGeometry>
        </mxCell>
        <mxCell id="045CiPY4S235guZHoBIP-250" value="EX haz" style="text;html=1;align=center;verticalAlign=middle;whiteSpace=wrap;rounded=0;fontSize=13;strokeOpacity=100;snapToPoint=0;" parent="1" vertex="1">
          <mxGeometry x="3051.63" y="973" width="73.75" height="30" as="geometry" />
        </mxCell>
        <mxCell id="045CiPY4S235guZHoBIP-251" value="MEM haz" style="text;html=1;align=center;verticalAlign=middle;whiteSpace=wrap;rounded=0;fontSize=13;strokeOpacity=100;snapToPoint=0;" parent="1" vertex="1">
          <mxGeometry x="3047" y="998" width="70" height="30" as="geometry" />
        </mxCell>
        <mxCell id="045CiPY4S235guZHoBIP-253" value="" style="edgeStyle=none;orthogonalLoop=1;jettySize=auto;html=1;rounded=0;exitX=1;exitY=0.5;exitDx=0;exitDy=0;entryX=0;entryY=0.5;entryDx=0;entryDy=0;fontSize=13;" parent="1" source="045CiPY4S235guZHoBIP-254" edge="1">
          <mxGeometry width="80" relative="1" as="geometry">
            <mxPoint x="3065.25" y="811.75" as="sourcePoint" />
            <mxPoint x="3144.75" y="841.75" as="targetPoint" />
            <Array as="points" />
          </mxGeometry>
        </mxCell>
        <mxCell id="045CiPY4S235guZHoBIP-254" value="EX haz" style="text;html=1;align=center;verticalAlign=middle;whiteSpace=wrap;rounded=0;fontSize=13;strokeOpacity=100;snapToPoint=0;" parent="1" vertex="1">
          <mxGeometry x="3051.63" y="826.75" width="73.75" height="30" as="geometry" />
        </mxCell>
        <mxCell id="045CiPY4S235guZHoBIP-255" value="MEM haz" style="text;html=1;align=center;verticalAlign=middle;whiteSpace=wrap;rounded=0;fontSize=13;strokeOpacity=100;snapToPoint=0;" parent="1" vertex="1">
          <mxGeometry x="3047" y="852" width="70" height="30" as="geometry" />
        </mxCell>
        <mxCell id="045CiPY4S235guZHoBIP-257" value="MEM FLUSH" style="text;html=1;align=center;verticalAlign=middle;whiteSpace=wrap;rounded=0;strokeWidth=3;horizontal=1;fontSize=13;strokeOpacity=100;snapToPoint=0;" parent="1" vertex="1">
          <mxGeometry x="2771" y="1470" width="93.35" height="15" as="geometry" />
        </mxCell>
        <mxCell id="045CiPY4S235guZHoBIP-258" value="" style="edgeStyle=none;orthogonalLoop=1;jettySize=auto;html=1;rounded=0;endArrow=none;endFill=0;strokeWidth=1;fontSize=13;" parent="1" edge="1">
          <mxGeometry width="80" relative="1" as="geometry">
            <mxPoint x="2134.75" y="728" as="sourcePoint" />
            <mxPoint x="2134.46" y="661.75" as="targetPoint" />
            <Array as="points" />
          </mxGeometry>
        </mxCell>
        <mxCell id="045CiPY4S235guZHoBIP-259" value="" style="edgeStyle=none;orthogonalLoop=1;jettySize=auto;html=1;rounded=0;endArrow=none;endFill=0;fontSize=13;" parent="1" edge="1">
          <mxGeometry width="80" relative="1" as="geometry">
            <mxPoint x="2134.46" y="684.25" as="sourcePoint" />
            <mxPoint x="2134.46" y="734.25" as="targetPoint" />
            <Array as="points" />
          </mxGeometry>
        </mxCell>
        <mxCell id="045CiPY4S235guZHoBIP-268" value="EX_Rs1_index" style="text;html=1;align=center;verticalAlign=middle;whiteSpace=wrap;rounded=0;fontSize=13;strokeOpacity=100;snapToPoint=0;" parent="1" vertex="1">
          <mxGeometry x="3282.0499999999997" y="1431" width="80" height="30" as="geometry" />
        </mxCell>
        <mxCell id="045CiPY4S235guZHoBIP-270" value="EX_Rs2_index" style="text;html=1;align=center;verticalAlign=middle;whiteSpace=wrap;rounded=0;fontSize=13;strokeOpacity=100;snapToPoint=0;" parent="1" vertex="1">
          <mxGeometry x="3282.0499999999997" y="1461" width="80" height="30" as="geometry" />
        </mxCell>
        <mxCell id="045CiPY4S235guZHoBIP-272" value="MEM_RegWrite" style="text;html=1;align=center;verticalAlign=middle;whiteSpace=wrap;rounded=0;fontSize=13;strokeOpacity=100;snapToPoint=0;" parent="1" vertex="1">
          <mxGeometry x="3275.38" y="1501" width="96.25" height="30" as="geometry" />
        </mxCell>
        <mxCell id="045CiPY4S235guZHoBIP-273" value="WB_RegWrite" style="text;html=1;align=center;verticalAlign=middle;whiteSpace=wrap;rounded=0;fontSize=13;strokeOpacity=100;snapToPoint=0;" parent="1" vertex="1">
          <mxGeometry x="3276.94" y="1559" width="86.13" height="30" as="geometry" />
        </mxCell>
        <mxCell id="045CiPY4S235guZHoBIP-275" value="MEM_DestReg" style="text;html=1;align=center;verticalAlign=middle;whiteSpace=wrap;rounded=0;fontSize=13;strokeOpacity=100;snapToPoint=0;" parent="1" vertex="1">
          <mxGeometry x="3275.38" y="1528" width="90" height="30" as="geometry" />
        </mxCell>
        <mxCell id="045CiPY4S235guZHoBIP-276" value="WB_DestReg" style="text;html=1;align=center;verticalAlign=middle;whiteSpace=wrap;rounded=0;fontSize=13;strokeOpacity=100;snapToPoint=0;" parent="1" vertex="1">
          <mxGeometry x="3274.38" y="1584" width="91" height="30" as="geometry" />
        </mxCell>
        <mxCell id="045CiPY4S235guZHoBIP-278" value="Rs2_Store_Forward" style="text;html=1;align=center;verticalAlign=middle;whiteSpace=wrap;rounded=0;strokeWidth=3;horizontal=1;fontSize=13;strokeOpacity=100;snapToPoint=0;" parent="1" vertex="1">
          <mxGeometry x="3593" y="1590.75" width="121" height="15" as="geometry" />
        </mxCell>
        <mxCell id="045CiPY4S235guZHoBIP-279" value="ALU_selA" style="text;html=1;align=center;verticalAlign=middle;whiteSpace=wrap;rounded=0;strokeOpacity=100;snapToPoint=0;fontSize=13;" parent="1" vertex="1">
          <mxGeometry x="3608" y="1396.25" width="90.25" height="30" as="geometry" />
        </mxCell>
        <mxCell id="045CiPY4S235guZHoBIP-280" value="ALU_selB" style="text;html=1;align=center;verticalAlign=middle;whiteSpace=wrap;rounded=0;strokeOpacity=100;snapToPoint=0;fontSize=13;" parent="1" vertex="1">
          <mxGeometry x="3593" y="1489.75" width="68.25" height="30" as="geometry" />
        </mxCell>
        <mxCell id="045CiPY4S235guZHoBIP-294" style="edgeStyle=orthogonalEdgeStyle;rounded=0;orthogonalLoop=1;jettySize=auto;html=1;exitX=0;exitY=0.25;exitDx=0;exitDy=0;endArrow=none;endFill=0;fontSize=13;" parent="1" source="045CiPY4S235guZHoBIP-297" edge="1">
          <mxGeometry relative="1" as="geometry">
            <mxPoint x="2575" y="1430.897435897436" as="targetPoint" />
          </mxGeometry>
        </mxCell>
        <mxCell id="045CiPY4S235guZHoBIP-295" style="edgeStyle=orthogonalEdgeStyle;rounded=0;orthogonalLoop=1;jettySize=auto;html=1;exitX=0;exitY=0.5;exitDx=0;exitDy=0;endArrow=none;endFill=0;fontSize=13;" parent="1" source="045CiPY4S235guZHoBIP-297" edge="1">
          <mxGeometry relative="1" as="geometry">
            <mxPoint x="2575" y="1459.1025641025644" as="targetPoint" />
          </mxGeometry>
        </mxCell>
        <mxCell id="045CiPY4S235guZHoBIP-297" value="&lt;font style=&quot;font-size: 13px;&quot;&gt;exception&amp;nbsp;detection unit(UNIMPLEMENTED)&lt;br style=&quot;font-size: 13px;&quot;&gt;&lt;/font&gt;&lt;div&gt;&lt;font style=&quot;font-size: 13px;&quot;&gt;in Phase 2&lt;/font&gt;&lt;/div&gt;" style="rounded=0;whiteSpace=wrap;html=1;strokeOpacity=100;snapToPoint=0;fontSize=13;" parent="1" vertex="1">
          <mxGeometry x="2615" y="1403" width="150" height="112.5" as="geometry" />
        </mxCell>
        <mxCell id="045CiPY4S235guZHoBIP-298" value="ID_PC" style="text;html=1;align=center;verticalAlign=middle;whiteSpace=wrap;rounded=0;fontSize=13;strokeOpacity=100;snapToPoint=0;" parent="1" vertex="1">
          <mxGeometry x="2513.5" y="1413" width="60" height="30" as="geometry" />
        </mxCell>
        <mxCell id="045CiPY4S235guZHoBIP-299" value="ID_PC" style="text;html=1;align=center;verticalAlign=middle;whiteSpace=wrap;rounded=0;fontSize=13;strokeOpacity=100;snapToPoint=0;" parent="1" vertex="1">
          <mxGeometry x="1579.75" y="573" width="60" height="30" as="geometry" />
        </mxCell>
        <mxCell id="045CiPY4S235guZHoBIP-300" value="ID_opcode" style="text;html=1;align=center;verticalAlign=middle;whiteSpace=wrap;rounded=0;fontSize=13;strokeOpacity=100;snapToPoint=0;" parent="1" vertex="1">
          <mxGeometry x="2510" y="1442" width="60" height="30" as="geometry" />
        </mxCell>
        <mxCell id="045CiPY4S235guZHoBIP-301" style="edgeStyle=orthogonalEdgeStyle;rounded=0;orthogonalLoop=1;jettySize=auto;html=1;exitX=1;exitY=0.25;exitDx=0;exitDy=0;entryX=0.175;entryY=0.75;entryDx=0;entryDy=0;entryPerimeter=0;endArrow=none;endFill=0;fontSize=13;" parent="1" source="045CiPY4S235guZHoBIP-297" target="045CiPY4S235guZHoBIP-136" edge="1">
          <mxGeometry relative="1" as="geometry">
            <Array as="points">
              <mxPoint x="2785" y="1431" />
              <mxPoint x="2785" y="1367" />
              <mxPoint x="2535" y="1367" />
              <mxPoint x="2535" y="1310" />
            </Array>
          </mxGeometry>
        </mxCell>
        <mxCell id="045CiPY4S235guZHoBIP-302" style="edgeStyle=orthogonalEdgeStyle;rounded=0;orthogonalLoop=1;jettySize=auto;html=1;exitX=1;exitY=0.5;exitDx=0;exitDy=0;entryX=0.017;entryY=0.955;entryDx=0;entryDy=0;entryPerimeter=0;endArrow=none;endFill=0;jumpStyle=arc;jumpSize=19;fontSize=13;" parent="1" source="045CiPY4S235guZHoBIP-297" target="045CiPY4S235guZHoBIP-49" edge="1">
          <mxGeometry relative="1" as="geometry">
            <Array as="points">
              <mxPoint x="3145" y="1459" />
              <mxPoint x="3145" y="1283" />
              <mxPoint x="3445" y="1283" />
              <mxPoint x="3445" y="1179" />
            </Array>
          </mxGeometry>
        </mxCell>
        <mxCell id="045CiPY4S235guZHoBIP-303" style="edgeStyle=orthogonalEdgeStyle;rounded=0;orthogonalLoop=1;jettySize=auto;html=1;exitX=1;exitY=0.75;exitDx=0;exitDy=0;entryX=0.011;entryY=0.958;entryDx=0;entryDy=0;entryPerimeter=0;endArrow=none;endFill=0;jumpStyle=arc;jumpSize=19;fontSize=13;" parent="1" source="045CiPY4S235guZHoBIP-297" target="045CiPY4S235guZHoBIP-57" edge="1">
          <mxGeometry relative="1" as="geometry">
            <Array as="points">
              <mxPoint x="3205" y="1487" />
              <mxPoint x="3205" y="1303" />
              <mxPoint x="4005" y="1303" />
              <mxPoint x="4005" y="1181" />
            </Array>
          </mxGeometry>
        </mxCell>
        <mxCell id="045CiPY4S235guZHoBIP-304" value="ExceptionFlag" style="text;html=1;align=center;verticalAlign=middle;whiteSpace=wrap;rounded=0;strokeWidth=3;horizontal=1;fontSize=13;strokeOpacity=100;snapToPoint=0;" parent="1" vertex="1">
          <mxGeometry x="2811.75" y="1500" width="100" height="15" as="geometry" />
        </mxCell>
        <mxCell id="045CiPY4S235guZHoBIP-306" value="EX_opcode" style="text;html=1;align=center;verticalAlign=middle;whiteSpace=wrap;rounded=0;fontSize=13;strokeOpacity=100;snapToPoint=0;" parent="1" vertex="1">
          <mxGeometry x="3276.33" y="1402" width="81" height="30" as="geometry" />
        </mxCell>
        <mxCell id="045CiPY4S235guZHoBIP-308" value="&lt;font style=&quot;font-size: 13px;&quot;&gt;pc_write&lt;/font&gt;" style="text;html=1;align=center;verticalAlign=middle;whiteSpace=wrap;rounded=0;fontSize=13;strokeOpacity=100;snapToPoint=0;" parent="1" vertex="1">
          <mxGeometry x="2044" y="1601" width="30" height="15" as="geometry" />
        </mxCell>
        <mxCell id="045CiPY4S235guZHoBIP-309" style="edgeStyle=orthogonalEdgeStyle;rounded=0;orthogonalLoop=1;jettySize=auto;html=1;exitX=0.5;exitY=0;exitDx=0;exitDy=0;entryX=0.97;entryY=0.36;entryDx=0;entryDy=0;entryPerimeter=0;jumpStyle=arc;jumpSize=18;endArrow=none;endFill=0;" parent="1" source="045CiPY4S235guZHoBIP-210" target="045CiPY4S235guZHoBIP-49" edge="1">
          <mxGeometry relative="1" as="geometry" />
        </mxCell>
        <mxCell id="045CiPY4S235guZHoBIP-310" value="" style="edgeStyle=orthogonalEdgeStyle;orthogonalLoop=1;jettySize=auto;html=1;rounded=0;entryX=0.005;entryY=0.074;entryDx=0;entryDy=0;entryPerimeter=0;" parent="1" target="045CiPY4S235guZHoBIP-66" edge="1">
          <mxGeometry width="80" relative="1" as="geometry">
            <mxPoint x="1645" y="787" as="sourcePoint" />
            <mxPoint x="1728" y="698" as="targetPoint" />
            <Array as="points">
              <mxPoint x="1645" y="739" />
              <mxPoint x="1711" y="739" />
              <mxPoint x="1711" y="698" />
            </Array>
          </mxGeometry>
        </mxCell>
        <mxCell id="045CiPY4S235guZHoBIP-311" value="" style="edgeStyle=orthogonalEdgeStyle;orthogonalLoop=1;jettySize=auto;html=1;rounded=0;entryX=0;entryY=0.25;entryDx=0;entryDy=0;" parent="1" target="045CiPY4S235guZHoBIP-66" edge="1">
          <mxGeometry width="80" relative="1" as="geometry">
            <mxPoint x="1572.25" y="788" as="sourcePoint" />
            <mxPoint x="1652.25" y="788" as="targetPoint" />
          </mxGeometry>
        </mxCell>
        <mxCell id="045CiPY4S235guZHoBIP-312" value="data" style="text;html=1;align=center;verticalAlign=middle;whiteSpace=wrap;rounded=0;strokeOpacity=100;snapToPoint=0;fontSize=13;" parent="1" vertex="1">
          <mxGeometry x="1289" y="906" width="28" height="20" as="geometry" />
        </mxCell>
        <mxCell id="045CiPY4S235guZHoBIP-313" style="edgeStyle=orthogonalEdgeStyle;rounded=0;orthogonalLoop=1;jettySize=auto;html=1;exitX=1;exitY=0.25;exitDx=0;exitDy=0;entryX=0.023;entryY=0.354;entryDx=0;entryDy=0;entryPerimeter=0;" parent="1" source="045CiPY4S235guZHoBIP-13" target="045CiPY4S235guZHoBIP-19" edge="1">
          <mxGeometry relative="1" as="geometry" />
        </mxCell>
        <mxCell id="045CiPY4S235guZHoBIP-314" style="edgeStyle=orthogonalEdgeStyle;rounded=0;orthogonalLoop=1;jettySize=auto;html=1;exitX=0;exitY=0.25;exitDx=0;exitDy=0;entryX=0.007;entryY=0.06;entryDx=0;entryDy=0;entryPerimeter=0;jumpStyle=arc;jumpSize=18;" parent="1" source="045CiPY4S235guZHoBIP-18" target="045CiPY4S235guZHoBIP-19" edge="1">
          <mxGeometry relative="1" as="geometry">
            <Array as="points">
              <mxPoint x="1180" y="673" />
              <mxPoint x="1180" y="597" />
            </Array>
          </mxGeometry>
        </mxCell>
        <mxCell id="045CiPY4S235guZHoBIP-315" style="edgeStyle=orthogonalEdgeStyle;rounded=0;orthogonalLoop=1;jettySize=auto;html=1;exitX=1;exitY=0.5;exitDx=0;exitDy=0;jumpStyle=arc;jumpSize=18;endArrow=none;endFill=0;" parent="1" source="045CiPY4S235guZHoBIP-82" edge="1">
          <mxGeometry relative="1" as="geometry">
            <mxPoint x="2889" y="809" as="targetPoint" />
            <Array as="points">
              <mxPoint x="2810" y="1083" />
              <mxPoint x="2810" y="810" />
            </Array>
          </mxGeometry>
        </mxCell>
        <mxCell id="045CiPY4S235guZHoBIP-319" style="edgeStyle=orthogonalEdgeStyle;rounded=0;orthogonalLoop=1;jettySize=auto;html=1;exitX=0;exitY=0.75;exitDx=0;exitDy=0;entryX=1.013;entryY=0.062;entryDx=0;entryDy=0;entryPerimeter=0;endArrow=none;endFill=0;jumpStyle=arc;jumpSize=18;" parent="1" source="045CiPY4S235guZHoBIP-85" target="045CiPY4S235guZHoBIP-19" edge="1">
          <mxGeometry relative="1" as="geometry">
            <Array as="points">
              <mxPoint x="1594" y="1182" />
              <mxPoint x="1594" y="598" />
            </Array>
          </mxGeometry>
        </mxCell>
        <mxCell id="045CiPY4S235guZHoBIP-320" style="edgeStyle=orthogonalEdgeStyle;rounded=0;orthogonalLoop=1;jettySize=auto;html=1;exitX=1;exitY=0.5;exitDx=0;exitDy=0;entryX=-0.007;entryY=0.579;entryDx=0;entryDy=0;entryPerimeter=0;jumpStyle=arc;jumpSize=18;" parent="1" source="045CiPY4S235guZHoBIP-9" target="045CiPY4S235guZHoBIP-3" edge="1">
          <mxGeometry relative="1" as="geometry">
            <Array as="points">
              <mxPoint x="890" y="935" />
              <mxPoint x="890" y="1075" />
              <mxPoint x="449" y="1075" />
              <mxPoint x="449" y="931" />
            </Array>
          </mxGeometry>
        </mxCell>
        <mxCell id="045CiPY4S235guZHoBIP-325" value="" style="edgeStyle=none;orthogonalLoop=1;jettySize=auto;html=1;rounded=0;" parent="1" edge="1">
          <mxGeometry width="80" relative="1" as="geometry">
            <mxPoint x="1572.25" y="787.8899999999999" as="sourcePoint" />
            <mxPoint x="1645" y="788" as="targetPoint" />
            <Array as="points" />
          </mxGeometry>
        </mxCell>
        <mxCell id="045CiPY4S235guZHoBIP-328" value="opcode" style="text;html=1;align=center;verticalAlign=middle;whiteSpace=wrap;rounded=0;strokeWidth=3;horizontal=1;fontSize=13;strokeOpacity=100;snapToPoint=0;" parent="1" vertex="1">
          <mxGeometry x="2348" y="836" width="53.75" height="15" as="geometry" />
        </mxCell>
        <mxCell id="045CiPY4S235guZHoBIP-333" value="Wrong_Prediction" style="text;html=1;align=center;verticalAlign=middle;whiteSpace=wrap;rounded=0;strokeWidth=3;horizontal=1;fontSize=13;strokeOpacity=100;snapToPoint=0;" parent="1" vertex="1">
          <mxGeometry x="2234.53" y="774.13" width="112" height="25" as="geometry" />
        </mxCell>
        <mxCell id="045CiPY4S235guZHoBIP-335" value="&lt;font style=&quot;font-size: 13px;&quot;&gt;MemRead&lt;/font&gt;" style="text;html=1;align=center;verticalAlign=middle;whiteSpace=wrap;rounded=0;fontSize=13;strokeOpacity=100;snapToPoint=0;" parent="1" vertex="1">
          <mxGeometry x="2297" y="1546" width="70.25" height="10" as="geometry" />
        </mxCell>
        <mxCell id="045CiPY4S235guZHoBIP-336" value="control signals" style="rounded=0;whiteSpace=wrap;html=1;" parent="1" vertex="1">
          <mxGeometry x="2889" y="1107" width="50" height="37" as="geometry" />
        </mxCell>
        <mxCell id="045CiPY4S235guZHoBIP-337" value="control signals" style="rounded=0;whiteSpace=wrap;html=1;" parent="1" vertex="1">
          <mxGeometry x="3525.05" y="1108" width="50" height="38" as="geometry" />
        </mxCell>
        <mxCell id="045CiPY4S235guZHoBIP-338" value="control signals" style="rounded=0;whiteSpace=wrap;html=1;" parent="1" vertex="1">
          <mxGeometry x="4269.75" y="1108" width="50" height="38" as="geometry" />
        </mxCell>
        <mxCell id="045CiPY4S235guZHoBIP-339" value="" style="rounded=0;whiteSpace=wrap;html=1;align=center;" parent="1" vertex="1">
          <mxGeometry x="544" y="431" width="78.5" height="104" as="geometry" />
        </mxCell>
        <mxCell id="045CiPY4S235guZHoBIP-341" value="clk" style="text;html=1;align=center;verticalAlign=middle;whiteSpace=wrap;rounded=0;fontSize=13;strokeOpacity=100;snapToPoint=0;" parent="1" vertex="1">
          <mxGeometry x="1010.1199999999999" y="454" width="27.12" height="30" as="geometry" />
        </mxCell>
        <mxCell id="045CiPY4S235guZHoBIP-342" value="input_clk" style="text;html=1;align=center;verticalAlign=middle;whiteSpace=wrap;rounded=0;fontSize=13;strokeOpacity=100;snapToPoint=0;" parent="1" vertex="1">
          <mxGeometry x="837.75" y="440" width="60" height="30" as="geometry" />
        </mxCell>
        <mxCell id="045CiPY4S235guZHoBIP-343" value="HLT" style="text;html=1;align=center;verticalAlign=middle;whiteSpace=wrap;rounded=0;fontSize=13;strokeOpacity=100;snapToPoint=0;" parent="1" vertex="1">
          <mxGeometry x="856" y="475" width="41" height="20" as="geometry" />
        </mxCell>
        <mxCell id="045CiPY4S235guZHoBIP-344" value="hlt_logic" style="verticalLabelPosition=bottom;shadow=0;dashed=0;align=center;html=1;verticalAlign=top;shape=mxgraph.electrical.logic_gates.logic_gate;operation=or;negating=1;negSize=0.15;fontSize=13;" parent="1" vertex="1">
          <mxGeometry x="900.25" y="440" width="100" height="60" as="geometry" />
        </mxCell>
        <mxCell id="045CiPY4S235guZHoBIP-363" value="&lt;font style=&quot;font-size: 10px;&quot;&gt;mem_write&lt;/font&gt;" style="text;html=1;align=center;verticalAlign=middle;whiteSpace=wrap;rounded=0;fontSize=10;strokeOpacity=100;snapToPoint=0;" parent="1" vertex="1">
          <mxGeometry x="3905.25" y="810.5" width="39.5" height="10" as="geometry" />
        </mxCell>
        <mxCell id="2" value="" style="edgeStyle=none;orthogonalLoop=1;jettySize=auto;html=1;entryX=0.423;entryY=0.992;entryDx=0;entryDy=0;entryPerimeter=0;endArrow=none;endFill=0;jumpStyle=arc;jumpSize=18;" parent="1" target="045CiPY4S235guZHoBIP-106" edge="1">
          <mxGeometry width="80" relative="1" as="geometry">
            <mxPoint x="2433" y="986" as="sourcePoint" />
            <mxPoint x="2517" y="893" as="targetPoint" />
            <Array as="points" />
          </mxGeometry>
        </mxCell>
        <mxCell id="3" value="func" style="text;html=1;align=center;verticalAlign=middle;whiteSpace=wrap;rounded=0;strokeWidth=3;horizontal=1;fontSize=13;strokeOpacity=100;snapToPoint=0;" parent="1" vertex="1">
          <mxGeometry x="2436" y="836" width="53.75" height="15" as="geometry" />
        </mxCell>
        <mxCell id="4" value="MEM haz" style="text;html=1;align=center;verticalAlign=middle;whiteSpace=wrap;rounded=0;fontSize=13;strokeOpacity=100;snapToPoint=0;" parent="1" vertex="1">
          <mxGeometry x="4599" y="752" width="70" height="30" as="geometry" />
        </mxCell>
        <mxCell id="Hs7a1tmvdIe1-_2XuvXQ-7" style="edgeStyle=orthogonalEdgeStyle;rounded=0;orthogonalLoop=1;jettySize=auto;html=1;entryX=-0.001;entryY=0.572;entryDx=0;entryDy=0;entryPerimeter=0;" parent="1" source="045CiPY4S235guZHoBIP-255" target="045CiPY4S235guZHoBIP-167" edge="1">
          <mxGeometry relative="1" as="geometry" />
        </mxCell>
        <mxCell id="Hs7a1tmvdIe1-_2XuvXQ-8" style="edgeStyle=orthogonalEdgeStyle;rounded=0;orthogonalLoop=1;jettySize=auto;html=1;entryX=0.005;entryY=0.705;entryDx=0;entryDy=0;entryPerimeter=0;" parent="1" source="045CiPY4S235guZHoBIP-251" target="045CiPY4S235guZHoBIP-170" edge="1">
          <mxGeometry relative="1" as="geometry" />
        </mxCell>
        <mxCell id="b0ziHpK24BVwUH53S_0q-6" style="edgeStyle=orthogonalEdgeStyle;rounded=0;orthogonalLoop=1;jettySize=auto;html=1;entryX=0.004;entryY=0.565;entryDx=0;entryDy=0;entryPerimeter=0;" parent="1" source="045CiPY4S235guZHoBIP-333" edge="1">
          <mxGeometry relative="1" as="geometry">
            <mxPoint x="2379.0020000000004" y="786.78875" as="targetPoint" />
          </mxGeometry>
        </mxCell>
        <mxCell id="b0ziHpK24BVwUH53S_0q-7" value="predicted" style="text;html=1;align=center;verticalAlign=middle;whiteSpace=wrap;rounded=0;strokeWidth=3;horizontal=1;fontSize=13;strokeOpacity=100;snapToPoint=0;" parent="1" vertex="1">
          <mxGeometry x="2529" y="798.5" width="62" height="14.5" as="geometry" />
        </mxCell>
        <mxCell id="b0ziHpK24BVwUH53S_0q-13" value="&lt;span style=&quot;font-size: 10px;&quot;&gt;IsOper2Immed&lt;/span&gt;" style="rounded=0;whiteSpace=wrap;html=1;" parent="1" vertex="1">
          <mxGeometry x="544" y="495" width="78.12" height="16" as="geometry" />
        </mxCell>
        <mxCell id="b0ziHpK24BVwUH53S_0q-14" value="&lt;span style=&quot;font-size: 10px;&quot;&gt;MemWrite&lt;/span&gt;" style="rounded=0;whiteSpace=wrap;html=1;" parent="1" vertex="1">
          <mxGeometry x="544" y="479" width="78.12" height="16" as="geometry" />
        </mxCell>
        <mxCell id="b0ziHpK24BVwUH53S_0q-15" value="&lt;span style=&quot;font-size: 10px;&quot;&gt;MemRead&lt;/span&gt;" style="rounded=0;whiteSpace=wrap;html=1;" parent="1" vertex="1">
          <mxGeometry x="544" y="463" width="78.12" height="16" as="geometry" />
        </mxCell>
        <mxCell id="b0ziHpK24BVwUH53S_0q-16" value="&lt;span style=&quot;font-size: 13px;&quot;&gt;RegWrite&lt;/span&gt;" style="rounded=0;whiteSpace=wrap;html=1;" parent="1" vertex="1">
          <mxGeometry x="544" y="447" width="78.12" height="16" as="geometry" />
        </mxCell>
        <mxCell id="b0ziHpK24BVwUH53S_0q-17" value="&lt;span style=&quot;font-size: 10px;&quot;&gt;Control Signals&lt;/span&gt;" style="rounded=0;whiteSpace=wrap;html=1;" parent="1" vertex="1">
          <mxGeometry x="544" y="431.5" width="78.12" height="16" as="geometry" />
        </mxCell>
        <mxCell id="b0ziHpK24BVwUH53S_0q-18" value="&lt;font style=&quot;font-size: 7px;&quot;&gt;is_beq, is_bne, is_jr&lt;/font&gt;" style="rounded=0;whiteSpace=wrap;html=1;" parent="1" vertex="1">
          <mxGeometry x="544" y="511" width="78.12" height="16" as="geometry" />
        </mxCell>
        <mxCell id="b0ziHpK24BVwUH53S_0q-22" style="edgeStyle=orthogonalEdgeStyle;rounded=0;orthogonalLoop=1;jettySize=auto;html=1;entryX=0;entryY=0.25;entryDx=0;entryDy=0;" parent="1" source="b0ziHpK24BVwUH53S_0q-20" target="045CiPY4S235guZHoBIP-140" edge="1">
          <mxGeometry relative="1" as="geometry" />
        </mxCell>
        <mxCell id="b0ziHpK24BVwUH53S_0q-20" value="Control Signals" style="rounded=0;whiteSpace=wrap;html=1;fontSize=13;" parent="1" vertex="1">
          <mxGeometry x="2303.51" y="1155" width="96" height="32" as="geometry" />
        </mxCell>
        <mxCell id="b0ziHpK24BVwUH53S_0q-23" value="RegWrite" style="text;html=1;align=center;verticalAlign=middle;whiteSpace=wrap;rounded=0;strokeOpacity=100;snapToPoint=0;fontSize=13;" parent="1" vertex="1">
          <mxGeometry x="1934.75" y="863" width="51" height="16" as="geometry" />
        </mxCell>
        <mxCell id="b0ziHpK24BVwUH53S_0q-25" style="edgeStyle=orthogonalEdgeStyle;rounded=0;orthogonalLoop=1;jettySize=auto;html=1;entryX=0;entryY=0.5;entryDx=0;entryDy=0;" parent="1" source="b0ziHpK24BVwUH53S_0q-24" target="045CiPY4S235guZHoBIP-66" edge="1">
          <mxGeometry relative="1" as="geometry" />
        </mxCell>
        <mxCell id="b0ziHpK24BVwUH53S_0q-24" value="WB_DestReg" style="text;html=1;align=center;verticalAlign=middle;whiteSpace=wrap;rounded=0;strokeOpacity=100;snapToPoint=0;fontSize=13;" parent="1" vertex="1">
          <mxGeometry x="1759" y="773.5" width="85.25" height="18" as="geometry" />
        </mxCell>
        <mxCell id="b0ziHpK24BVwUH53S_0q-27" value="" style="edgeStyle=orthogonalEdgeStyle;orthogonalLoop=1;jettySize=auto;html=1;rounded=0;entryX=0;entryY=0.5;entryDx=0;entryDy=0;elbow=vertical;" parent="1" target="045CiPY4S235guZHoBIP-304" edge="1">
          <mxGeometry width="80" relative="1" as="geometry">
            <mxPoint x="2765" y="1507" as="sourcePoint" />
            <mxPoint x="2779" y="1507" as="targetPoint" />
          </mxGeometry>
        </mxCell>
        <mxCell id="b0ziHpK24BVwUH53S_0q-31" style="edgeStyle=orthogonalEdgeStyle;rounded=0;orthogonalLoop=1;jettySize=auto;html=1;entryX=0;entryY=0.5;entryDx=0;entryDy=0;" parent="1" source="b0ziHpK24BVwUH53S_0q-28" target="045CiPY4S235guZHoBIP-280" edge="1">
          <mxGeometry relative="1" as="geometry" />
        </mxCell>
        <mxCell id="b0ziHpK24BVwUH53S_0q-28" value="&lt;font style=&quot;font-size: 13px;&quot;&gt;ForwardB&lt;/font&gt;" style="rounded=0;whiteSpace=wrap;html=1;strokeOpacity=100;snapToPoint=0;fontSize=13;" parent="1" vertex="1">
          <mxGeometry x="3460.67" y="1458" width="101.33" height="93.5" as="geometry" />
        </mxCell>
        <mxCell id="b0ziHpK24BVwUH53S_0q-32" style="edgeStyle=orthogonalEdgeStyle;rounded=0;orthogonalLoop=1;jettySize=auto;html=1;entryX=0;entryY=0.5;entryDx=0;entryDy=0;" parent="1" source="b0ziHpK24BVwUH53S_0q-29" target="045CiPY4S235guZHoBIP-278" edge="1">
          <mxGeometry relative="1" as="geometry" />
        </mxCell>
        <mxCell id="b0ziHpK24BVwUH53S_0q-29" value="&lt;font style=&quot;font-size: 13px;&quot;&gt;ForwardC&lt;/font&gt;" style="rounded=0;whiteSpace=wrap;html=1;strokeOpacity=100;snapToPoint=0;fontSize=13;" parent="1" vertex="1">
          <mxGeometry x="3460.67" y="1551.5" width="101.33" height="93.5" as="geometry" />
        </mxCell>
        <mxCell id="b0ziHpK24BVwUH53S_0q-37" value="" style="shape=flexArrow;endArrow=classic;html=1;rounded=0;width=156;endSize=13.674285714285714;endWidth=64.57142857142857;" parent="1" edge="1">
          <mxGeometry width="50" height="50" relative="1" as="geometry">
            <mxPoint x="3377.87" y="1504.46" as="sourcePoint" />
            <mxPoint x="3438.62" y="1504.46" as="targetPoint" />
          </mxGeometry>
        </mxCell>
        <mxCell id="b0ziHpK24BVwUH53S_0q-40" value="PFC_src" style="triangle;whiteSpace=wrap;html=1;" parent="1" vertex="1">
          <mxGeometry x="1962" y="1256.5" width="60" height="74" as="geometry" />
        </mxCell>
        <mxCell id="b0ziHpK24BVwUH53S_0q-46" style="edgeStyle=orthogonalEdgeStyle;rounded=0;orthogonalLoop=1;jettySize=auto;html=1;entryX=0;entryY=0.75;entryDx=0;entryDy=0;" parent="1" source="b0ziHpK24BVwUH53S_0q-45" target="045CiPY4S235guZHoBIP-3" edge="1">
          <mxGeometry relative="1" as="geometry" />
        </mxCell>
        <mxCell id="b0ziHpK24BVwUH53S_0q-45" value="EX_PFC" style="text;html=1;align=center;verticalAlign=middle;whiteSpace=wrap;rounded=0;fontSize=13;strokeOpacity=100;snapToPoint=0;" parent="1" vertex="1">
          <mxGeometry x="475" y="951" width="51" height="14" as="geometry" />
        </mxCell>
        <mxCell id="b0ziHpK24BVwUH53S_0q-48" style="edgeStyle=orthogonalEdgeStyle;rounded=0;orthogonalLoop=1;jettySize=auto;html=1;entryX=0.5;entryY=1;entryDx=0;entryDy=0;" parent="1" source="b0ziHpK24BVwUH53S_0q-47" target="b0ziHpK24BVwUH53S_0q-40" edge="1">
          <mxGeometry relative="1" as="geometry" />
        </mxCell>
        <mxCell id="b0ziHpK24BVwUH53S_0q-47" value="Is_Branch" style="text;html=1;align=center;verticalAlign=middle;whiteSpace=wrap;rounded=0;" parent="1" vertex="1">
          <mxGeometry x="1963.5" y="1337" width="57" height="16" as="geometry" />
        </mxCell>
        <mxCell id="b0ziHpK24BVwUH53S_0q-49" value="HLT" style="text;html=1;align=center;verticalAlign=middle;whiteSpace=wrap;rounded=0;fontSize=13;strokeOpacity=100;snapToPoint=0;" parent="1" vertex="1">
          <mxGeometry x="4401" y="919" width="29.75" height="17" as="geometry" />
        </mxCell>
        <mxCell id="b0ziHpK24BVwUH53S_0q-50" value="" style="edgeStyle=none;orthogonalLoop=1;jettySize=auto;html=1;rounded=0;" parent="1" edge="1">
          <mxGeometry width="80" relative="1" as="geometry">
            <mxPoint x="4319.75" y="927" as="sourcePoint" />
            <mxPoint x="4399.75" y="927" as="targetPoint" />
            <Array as="points" />
          </mxGeometry>
        </mxCell>
        <mxCell id="D5iflguW_ETY26olaIU6-4" value="BDU" style="rounded=0;whiteSpace=wrap;html=1;" parent="1" vertex="1">
          <mxGeometry x="3267" y="926" width="80" height="41" as="geometry" />
        </mxCell>
        <mxCell id="iowaOyrM9Hpdpf-qPCg2-6" value="BranchDecision" style="text;html=1;align=center;verticalAlign=middle;whiteSpace=wrap;rounded=0;" parent="1" vertex="1">
          <mxGeometry x="3313.25" y="900" width="81" height="19" as="geometry" />
        </mxCell>
        <mxCell id="iowaOyrM9Hpdpf-qPCg2-7" style="edgeStyle=orthogonalEdgeStyle;rounded=0;orthogonalLoop=1;jettySize=auto;html=1;exitX=1;exitY=0.5;exitDx=0;exitDy=0;entryX=0;entryY=0.5;entryDx=0;entryDy=0;" parent="1" edge="1">
          <mxGeometry relative="1" as="geometry">
            <mxPoint x="2497" y="807.125" as="sourcePoint" />
            <mxPoint x="2528" y="808" as="targetPoint" />
          </mxGeometry>
        </mxCell>
        <mxCell id="iowaOyrM9Hpdpf-qPCg2-15" style="edgeStyle=orthogonalEdgeStyle;rounded=0;orthogonalLoop=1;jettySize=auto;html=1;exitX=1;exitY=0.5;exitDx=0;exitDy=0;exitPerimeter=0;entryX=1;entryY=0.5;entryDx=0;entryDy=0;endArrow=none;endFill=0;" parent="1" source="iowaOyrM9Hpdpf-qPCg2-8" target="iowaOyrM9Hpdpf-qPCg2-14" edge="1">
          <mxGeometry relative="1" as="geometry">
            <Array as="points">
              <mxPoint x="3455" y="941" />
              <mxPoint x="3455" y="1043" />
            </Array>
          </mxGeometry>
        </mxCell>
        <mxCell id="iowaOyrM9Hpdpf-qPCg2-8" value="" style="verticalLabelPosition=bottom;shadow=0;dashed=0;align=center;html=1;verticalAlign=top;shape=mxgraph.electrical.logic_gates.logic_gate;operation=xor;" parent="1" vertex="1">
          <mxGeometry x="3393" y="922" width="57" height="38" as="geometry" />
        </mxCell>
        <mxCell id="iowaOyrM9Hpdpf-qPCg2-9" style="edgeStyle=orthogonalEdgeStyle;rounded=0;orthogonalLoop=1;jettySize=auto;html=1;exitX=1;exitY=0.25;exitDx=0;exitDy=0;entryX=0;entryY=0.25;entryDx=0;entryDy=0;entryPerimeter=0;endArrow=none;endFill=0;" parent="1" source="D5iflguW_ETY26olaIU6-4" target="iowaOyrM9Hpdpf-qPCg2-8" edge="1">
          <mxGeometry relative="1" as="geometry" />
        </mxCell>
        <mxCell id="iowaOyrM9Hpdpf-qPCg2-11" value="predicted" style="text;html=1;align=center;verticalAlign=middle;whiteSpace=wrap;rounded=0;strokeWidth=3;horizontal=1;fontSize=13;strokeOpacity=100;snapToPoint=0;" parent="1" vertex="1">
          <mxGeometry x="3291.05" y="973" width="62" height="14.5" as="geometry" />
        </mxCell>
        <mxCell id="iowaOyrM9Hpdpf-qPCg2-12" style="edgeStyle=orthogonalEdgeStyle;rounded=0;orthogonalLoop=1;jettySize=auto;html=1;entryX=0;entryY=0.75;entryDx=0;entryDy=0;entryPerimeter=0;endArrow=none;endFill=0;" parent="1" source="iowaOyrM9Hpdpf-qPCg2-11" target="iowaOyrM9Hpdpf-qPCg2-8" edge="1">
          <mxGeometry relative="1" as="geometry" />
        </mxCell>
        <mxCell id="iowaOyrM9Hpdpf-qPCg2-14" value="Wrong_Prediction" style="text;html=1;align=center;verticalAlign=middle;whiteSpace=wrap;rounded=0;strokeWidth=3;horizontal=1;fontSize=13;strokeOpacity=100;snapToPoint=0;" parent="1" vertex="1">
          <mxGeometry x="3321" y="1030" width="112" height="25" as="geometry" />
        </mxCell>
        <mxCell id="0n2uskS3GaGwui9Igle8-4" value="clk" style="text;html=1;align=center;verticalAlign=middle;whiteSpace=wrap;rounded=0;strokeWidth=3;horizontal=1;fontSize=13;strokeOpacity=100;snapToPoint=0;" parent="1" vertex="1">
          <mxGeometry x="2310" y="802.5" width="24" height="18" as="geometry" />
        </mxCell>
        <mxCell id="0n2uskS3GaGwui9Igle8-8" value="" style="edgeStyle=none;orthogonalLoop=1;jettySize=auto;html=1;rounded=0;exitX=1;exitY=0.5;exitDx=0;exitDy=0;" parent="1" source="0n2uskS3GaGwui9Igle8-4" edge="1">
          <mxGeometry width="80" relative="1" as="geometry">
            <mxPoint x="2334" y="811.5000000000001" as="sourcePoint" />
            <mxPoint x="2379" y="811.75" as="targetPoint" />
            <Array as="points" />
          </mxGeometry>
        </mxCell>
      </root>
    </mxGraphModel>
  </diagram>
</mxfile>
